<?xml version="1.0" encoding="utf-8"?>
<!-- Generator: Adobe Illustrator 24.2.0, SVG Export Plug-In . SVG Version: 6.00 Build 0)  -->
<svg version="1.1" id="Layer_1" xmlns="http://www.w3.org/2000/svg" xmlns:xlink="http://www.w3.org/1999/xlink" x="0px" y="0px"
	 viewBox="0 0 449.4 226.4" style="enable-background:new 0 0 449.4 226.4;" xml:space="preserve">
<style type="text/css">
	.st0{fill:#00A7E1;}
</style>
<path d="M226.6,40.7C250.1,23,252.2,0,252.2,0c24.2,18.2,14.6,46,14.6,46C254.5,29.1,226.6,40.7,226.6,40.7"/>
<path d="M268.4,50.6c0,0,16.3,49.1-79.4,81c-19.1,6.4-29.7,41.1,27.2,28.5C216.2,160.1,311.3,138.1,268.4,50.6z M221,154.3
	c1.2-3.4,1.3-8.3,0-13.3c-1.5-5.7-4.3-10.2-7.5-12.4c0.1,0,0.2-0.1,0.3-0.1c4.3-1.1,9.3,3.8,11.1,11
	C226.7,146.4,225,152.8,221,154.3z"/>
<path class="st0" d="M210.6,54.6c-2.5,6.3-0.8,14.5-0.8,14.6l2.5,11.6l-5.4-10.5c-2.9-5.6-3.7-10.1-3.8-13.4
	c-4.3,1.5-10.1,3.8-16.4,7.1c-2.5,6.3-0.8,14.4-0.8,14.5l2.4,11.5l-5.4-10.5c-2.3-4.5-3.3-8.3-3.6-11.3c-3.6,2.3-7.2,5-10.7,8
	c-3.6,6.5-1.6,16-1.6,16.1l2.5,11.6l-5.4-10.5c-1.8-3.5-2.8-6.6-3.3-9.2c-14,16.9-21.1,42.3-2.7,79.9c0,0-17.6-54.3,80.1-79.9
	c3.5-0.9,8.8-2.6,11.3-5.5C259.9,67.2,256.1,44.6,210.6,54.6z"/>
<path d="M25.4,65.3c0,0.2,0,0.6-0.1,1c-0.1,0.5-0.2,0.9-0.4,1.4s-0.4,0.9-0.7,1.2c-0.3,0.4-0.7,0.5-1.2,0.5H10.2
	c-0.1,0.1-0.1,0.1-0.1,0.2v0.3v27.6v0.3c0,0.1,0,0.1,0.1,0.2h9.2c0.6,0,1,0.2,1.4,0.6s0.6,0.9,0.7,1.4c0.2,0.6,0.3,1.2,0.3,1.9
	c0,0.2,0,0.5-0.1,1c-0.1,0.4-0.2,0.9-0.4,1.3c-0.2,0.5-0.4,0.9-0.7,1.2c-0.3,0.4-0.7,0.5-1.2,0.5h-9.2c-0.1,0.1-0.1,0.1-0.1,0.2v0.3
	v37.5c0,0.7-0.2,1.2-0.6,1.6c-0.4,0.4-0.9,0.6-1.4,0.7c-0.6,0.1-1.2,0.2-1.8,0.2H4.9H3.8c-0.5,0-1.1-0.1-1.7-0.2
	c-0.6-0.1-1.1-0.4-1.5-0.7c-0.4-0.4-0.6-0.9-0.6-1.7V63.5c0-0.5,0.3-1.1,1-1.7c0.6-0.6,1.2-1,1.8-1h19.8c0.7,0,1.3,0.2,1.7,0.5
	c0.4,0.4,0.7,0.8,0.9,1.2c0.2,0.5,0.3,0.9,0.3,1.4C25.4,64.8,25.4,65.1,25.4,65.3"/>
<path d="M47.2,145.9c-0.4,0.4-0.9,0.6-1.5,0.7s-1.1,0.2-1.6,0.2s-0.9-0.1-1.2-0.1h-1.2c-0.6,0-1.1-0.1-1.7-0.2
	c-0.6-0.1-1.1-0.4-1.5-0.7c-0.4-0.4-0.6-0.9-0.6-1.7V63.8c0-0.8,0.2-1.4,0.6-1.8c0.4-0.4,0.9-0.7,1.5-0.8s1.1-0.2,1.7-0.2
	c0.6,0,1,0.1,1.3,0.1h1.2c0.5,0,1.1,0.1,1.6,0.2c0.5,0.1,1,0.4,1.4,0.8c0.4,0.4,0.6,0.9,0.6,1.7v80.4
	C47.8,145,47.6,145.6,47.2,145.9"/>
<path d="M91.4,63.7c-1.5,10-2.9,19.9-4.3,29.9s-2.7,20-4.2,29.9c-0.5,3.4-1,6.9-1.5,10.4c-0.5,3.6-1,7-1.4,10.4
	c-0.1,0.4-0.5,0.8-1,1.4s-1,0.9-1.3,0.9h-6.5c-0.6-0.6-0.9-1.1-1.1-1.4c-0.2-0.3-0.3-0.5-0.5-0.7c-0.4-2.3-0.7-4.8-1-7.2
	c-0.3-2.5-0.7-4.9-1-7.3c-1-6.5-2-13.2-2.9-20.1s-1.9-13.6-2.9-20.3c-0.6-4.3-1.2-8.6-1.8-13s-1.2-8.7-1.9-13.1
	c0.1-0.4,0.3-0.8,0.6-1.3s0.7-1,1.1-1.3h6.1c0.2,0,0.5,0.1,0.9,0.4c0.4,0.3,0.7,0.6,1,0.9c0.1,0.1,0.1,0.1,0.2,0.2
	c0.1,0,0.1,0.1,0.2,0.2l0.2,0.2c1,7.9,2,15.8,3,23.8s2.1,16,3.3,24c0.2-1,0.4-2,0.5-3s0.2-2,0.4-3c0.1-0.6,0.1-1.2,0.2-1.8
	c0.1-0.6,0.1-1.2,0.2-1.8c0.1-0.4,0.1-0.7,0.2-1c0-0.3,0.1-0.7,0.2-1.1c0.1-1,0.3-2.1,0.4-3.3c0.1-1.2,0.3-2.5,0.5-3.9
	c0.3-2.3,0.6-4.6,1-6.9s0.7-4.8,1.1-7.2c0.4-2.2,0.7-4.5,0.9-6.8c0.2-2.3,0.6-4.7,0.9-7.1c0.1-0.4,0.5-0.9,1-1.5c0.5-0.7,1-1,1.5-1
	h6.1c0.4,0.4,0.8,0.8,1.1,1.2c0.3,0.5,0.5,0.8,0.6,1.1v0.2H91.4z"/>
<path d="M125.5,142.7c0,0.2,0,0.5-0.1,1c0,0.4-0.1,0.9-0.3,1.3c-0.1,0.5-0.4,0.9-0.6,1.2c-0.3,0.4-0.7,0.5-1.3,0.5h-20.7
	c-0.4,0-0.9-0.3-1.5-1s-1-1.2-1-1.7V63.7c0-0.5,0.4-1.1,1.1-1.7c0.7-0.6,1.3-1,1.8-1h19.9c0.6,0,1.2,0.2,1.5,0.5
	c0.4,0.4,0.7,0.8,0.8,1.3c0.1,0.5,0.2,1,0.3,1.4c0,0.4,0.1,0.7,0.1,1c0,0.2,0,0.6-0.1,1c0,0.5-0.1,0.9-0.3,1.4
	c-0.1,0.5-0.4,0.9-0.6,1.2c-0.3,0.4-0.7,0.5-1.3,0.5h-12.7c-0.1,0-0.2,0.2-0.2,0.5v27.6c0,0.4,0.1,0.5,0.2,0.5h9.1
	c0.6,0,1,0.2,1.3,0.6s0.6,0.9,0.7,1.4c0.2,0.6,0.3,1.2,0.3,1.9c0,0.2,0,0.5-0.1,1c0,0.4-0.1,0.9-0.3,1.3c-0.2,0.5-0.4,0.9-0.7,1.2
	c-0.3,0.4-0.7,0.5-1.2,0.5h-9.1c-0.1,0-0.2,0.2-0.2,0.5v31.6c0,0.4,0.1,0.5,0.2,0.5h12.8c0.6,0,1.1,0.2,1.4,0.5
	c0.3,0.4,0.5,0.8,0.6,1.2s0.2,0.9,0.2,1.3V142.7z"/>
<path class="st0" d="M328.3,65.9c0,0.2,0,0.5-0.1,0.9c0,0.4-0.1,0.9-0.2,1.3c-0.1,0.5-0.3,0.9-0.6,1.2c-0.3,0.4-0.7,0.5-1.2,0.5H320
	c-0.2,0-0.3,0.2-0.3,0.5v74c0,0.7-0.2,1.2-0.6,1.6c-0.4,0.4-0.9,0.6-1.4,0.7c-0.6,0.1-1.1,0.2-1.7,0.2h-1.5c-0.1,0-0.5,0-1,0.1
	c-0.5,0-1.1,0-1.6-0.2c-0.6-0.1-1-0.4-1.5-0.8c-0.4-0.4-0.6-1-0.6-1.7V70.4c0-0.1,0-0.1-0.1-0.2c0-0.1-0.1-0.1-0.1-0.2v-0.2h-6.4
	c-0.6,0-1-0.2-1.3-0.6c-0.3-0.4-0.5-0.9-0.6-1.4c-0.1-0.5-0.2-1.2-0.3-2c0-0.8,0.1-1.6,0.4-2.5s1-1.3,2.1-1.3h22.2
	c0.7,0,1.2,0.2,1.6,0.5c0.4,0.4,0.6,0.7,0.7,1.2c0.1,0.4,0.2,0.8,0.2,1.3L328.3,65.9L328.3,65.9z"/>
<path class="st0" d="M391.8,67.1c-0.1,1.1-0.3,2.5-0.6,4c-0.3,1.8-0.6,3.7-0.9,5.8c-0.3,2-0.6,3.9-0.8,5.5c-0.4,2-0.7,4.3-0.9,6.8
	c-0.3,2.5-0.6,5-0.8,7.7l-0.3,1.8c-0.2,1.3-0.4,2.8-0.7,4.4c-0.2,1.6-0.4,3-0.6,4.2c-0.1,1.1-0.3,2.4-0.6,4
	c-0.2,1.5-0.5,2.9-0.7,4.1v-0.1c-0.6,3.9-1.2,8.4-1.8,13.5c-0.7,5.1-1.4,10.3-2.1,15.6c-0.1,0.1-0.1,0.2-0.2,0.3
	c-0.1,0.1-0.1,0.1-0.1,0.2v0.1c-0.2,0.4-0.5,0.7-0.7,1.2c-0.3,0.4-0.6,0.7-1,0.9c-0.5,0.1-1.1,0.1-1.7,0.1h-1.5h-0.9
	c-0.9,0-1.6,0-2.2-0.1c-0.5-0.1-1-0.4-1.3-0.9c-0.4-0.6-0.7-1.5-0.9-2.7c-0.2-1.3-0.5-3.1-0.8-5.4c-0.4-3-0.9-6.2-1.4-9.9
	c-0.5-3.6-1-7.2-1.5-10.8c-0.5-3.6-1-7-1.4-10.1c-0.5-3.2-0.8-5.8-1.1-7.9c-0.1,0.4-0.2,0.7-0.2,0.8c-0.2,1.2-0.4,2.4-0.6,3.7
	c-0.2,1.3-0.4,2.6-0.5,3.9c-0.1,1.1-0.3,2.4-0.5,3.8s-0.4,2.8-0.6,4.1v-0.4c-0.2,1.5-0.4,3.2-0.7,5.1c-0.2,1.9-0.5,3.9-0.9,6
	c-0.4,2.8-0.8,5.8-1.3,8.9c-0.4,3.1-0.8,6-1.2,8.7c-0.1,0.4-0.3,0.9-0.7,1.5c-0.4,0.7-0.8,1.1-1.2,1.4c-0.5,0.1-1.1,0.1-1.8,0.1
	h-1.6h-1.4c-0.7,0-1.3,0-1.8-0.1c-0.2-0.1-0.5-0.4-0.8-0.6c-0.4-0.3-0.7-0.6-1.1-1c-0.2-1.8-0.4-3.5-0.7-5.3
	c-0.2-1.8-0.5-3.5-0.8-5.2c-0.5-3.4-1-7.3-1.6-11.7c-0.6-4.3-1.2-8.8-1.8-13.4s-1.3-9.1-1.9-13.6c-0.6-4.5-1.2-8.7-1.8-12.7
	c-0.4-2.2-0.7-4.3-0.9-6.5c-0.3-2.1-0.5-4.1-0.8-5.9c-0.2-1.8-0.4-3.2-0.6-4.3c-0.1-1.1-0.2-1.7-0.2-1.8v-1.1
	c0.3-0.3,0.5-0.5,0.5-0.6c0.1-0.1,0.2-0.2,0.2-0.3c0,0,0.2-0.3,0.8-0.9h6.1c0.4,0,0.7,0.1,1,0.4c0.3,0.3,0.6,0.6,0.8,0.8
	c0.1,0.4,0.3,0.5,0.5,0.5c0.1,0.8,0.1,1.4,0.2,2c0.1,0.6,0.2,1.1,0.3,1.7c0.1,0.6,0.2,1.1,0.3,1.6c0,0.5,0.1,1.1,0.3,1.6
	c0.1,1.8,0.3,3.6,0.5,5.4s0.5,3.6,0.7,5.4c0.3,1.7,0.5,3.4,0.7,5.1s0.5,3.4,0.7,5.2c0.5,3.2,0.9,6.3,1.4,9.5
	c0.4,3.2,0.8,6.3,1.3,9.5c0.1-0.8,0.2-1.6,0.3-2.4s0.2-1.7,0.3-2.6c0.1-0.8,0.2-1.6,0.3-2.4s0.2-1.7,0.3-2.4
	c0.3-2.1,0.6-4.5,0.9-7.1c0.4-2.6,0.7-5.3,1.1-8c0.4-2.7,0.8-5.5,1.2-8.3s0.8-5.5,1.2-8.1c0.1-0.9,0.2-1.8,0.3-2.8
	c0.1-0.9,0.2-1.8,0.3-2.7c0.3-0.1,0.5-0.4,0.6-0.6c0.1-0.1,0.3-0.4,0.6-0.6c0.2-0.3,0.4-0.5,0.6-0.6h6.7c1.1,0.4,1.7,1.5,2.1,3.2
	c0.3,1.7,0.5,3.4,0.7,5.1c0.1,0.6,0.1,1.1,0.2,1.6c0,0.5,0.1,0.9,0.2,1.4v-0.1c0.7,4.2,1.3,8.3,1.9,12.5c0.6,4.2,1.1,8.3,1.7,12.6
	c0.3,2.3,0.5,4.4,0.8,6.5c0.2,2.1,0.5,4.2,0.8,6.4c0.1-0.4,0.1-0.7,0.2-1c0-0.3,0.1-0.6,0.2-1c0.1-0.7,0.2-1.4,0.3-2.1
	s0.2-1.4,0.3-2.2c0.2-1.3,0.4-2.8,0.6-4.6c0.2-1.8,0.4-3.3,0.5-4.6c0.1-0.4,0.1-0.8,0.2-1.3c0.1-0.4,0.1-0.8,0.2-1.2
	c0.4-2.3,0.7-4.7,1.1-7.4c0.4-2.7,0.8-5.6,1.1-8.6c0.1-0.6,0.2-1.2,0.3-1.9c0-0.7,0.1-1.5,0.3-2.3c0.2-1.2,0.4-2.4,0.6-3.7
	c0.2-1.3,0.4-2.5,0.7-3.5c0.2-1.1,0.5-1.9,0.9-2.6c0.4-0.7,0.8-1,1.3-1h6.1c0.6,0.6,0.8,0.9,0.8,0.9s0,0.1,0.2,0.3
	c0.1,0.1,0.2,0.4,0.5,0.6v1.3C392,65.3,391.9,65.9,391.8,67.1"/>
<path class="st0" d="M430.1,135.3c-0.1,0.4-0.2,0.9-0.4,1.5c-0.3,0.7-0.4,1.2-0.4,1.6c-0.4,1.7-1.1,3.1-2.3,4.2s-2.5,2-3.9,2.6
	s-2.9,1.1-4.4,1.4s-2.8,0.4-3.7,0.4c-1.5,0-3.2-0.2-4.8-0.5c-1.7-0.4-3.2-1-4.5-1.8c-1.4-0.9-2.5-2.1-3.4-3.6s-1.4-3.5-1.6-5.9
	c0-0.1,0-0.3-0.1-0.4c0-0.1-0.1-0.3-0.1-0.5c-0.1-0.2-0.1-0.5-0.1-0.8v-0.7v-57c0-0.4,0-0.8,0.1-1.3c0-0.5,0.1-0.9,0.2-1.4
	c0.1-1,0.4-2.2,0.8-3.5c0.4-1.4,1.2-2.7,2.3-4.1c0.6-0.6,1.4-1.2,2.5-1.6c1.1-0.4,2.3-0.8,3.6-1s2.6-0.4,3.8-0.5s2.2-0.2,3-0.2
	c0.1,0,0.3,0,0.7,0.1c0.4,0,0.8,0.1,1.4,0.1c0.5,0,1.1,0.1,1.7,0.2c0.6,0.1,1.1,0.1,1.6,0.2c1.3,0.1,2.6,0.6,3.8,1.3h-0.2
	c0.6,0.2,1.1,0.7,1.6,1.4s1,1.5,1.4,2.5c0.4,0.9,0.8,1.9,1.1,2.8s0.4,1.7,0.4,2.3v61.6C430.2,134.6,430.2,134.8,430.1,135.3
	 M420.4,79.5c0-0.2,0-0.4-0.1-0.4c0-0.1-0.1-0.2-0.1-0.3c-0.1-0.3-0.2-0.6-0.2-0.9c-0.2-1.8-0.7-3.4-1.5-4.8s-1.7-2.1-2.7-2.1
	c-1.2,0-2.2,0.3-2.9,1s-1.3,1.5-1.7,2.6s-0.7,2.2-0.8,3.5s-0.2,2.5-0.2,3.7v44.9c0,0.8,0,1.8,0.1,3s0.2,2.4,0.5,3.6s0.7,2.2,1.4,3.1
	c0.6,0.9,1.6,1.3,2.8,1.3s2.3-0.5,3.4-1.6c1-1.1,1.6-2.6,1.8-4.6c0-0.4,0-0.6,0.1-0.8c0-0.2,0.1-0.4,0.2-0.6
	c0.1-0.2,0.1-0.4,0.1-0.6v-50H420.4z"/>
<g>
	<path class="st0" d="M38.1,201.4l0.3-1.3c0-0.1,0-0.1,0.1-0.2s0.1-0.2,0.1-0.2l0.3-1c0.2-0.7,0.4-1,0.4-1.1
		c0.2-0.9,0.3-1.4,0.4-1.5c0-1.8,0.2-2.7,0.6-2.7c0.1,0,0.1,0,0.2,0l1.3-5c0,0,0-0.1,0.1-0.4l0.5-1.8l0.4-1l0.6-2.3
		c0.3-0.4,0.5-0.8,0.5-1.3c0.1-0.2,0.3-0.8,0.5-1.8c0.2-0.8,0.5-1.3,0.8-1.6c0.4-0.1,0.7-0.1,0.9-0.2c0.4,0.3,0.7,0.5,0.9,0.5
		l-0.9,2.1l-0.9,4l-0.6,1.3c-0.1,0.3-0.2,0.5-0.2,0.6c-0.2,0.9-0.4,1.4-0.4,1.4c-0.4,1.7-0.7,2.9-0.9,3.5l-0.2,0.9l-0.6,1.6
		l-0.2,0.8l-0.3,0.9l-0.2,0.6l-0.3,1.2l-0.3,0.7c-0.1,0.3-0.2,0.5-0.2,0.7c0,0.1,0,0.2,0,0.2c-0.1,0.3-0.2,0.5-0.3,0.6l-0.2,2.1
		c-0.1,0.5-0.2,0.8-0.2,1v0.3l-0.1,1c0,0.4,0,0.7,0.1,0.9c0.1,0.2,0.1,0.4,0.1,0.6c0,0.1,0,0.1,0,0.2c0,0.3,0.1,0.6,0.1,0.8
		c0,0,0,0.1,0.1,0.2c0.1,0.2,0,0.3,0,0.6c-0.1,0.4-0.4,0.7-0.7,0.8l-0.7,1.5l-0.5,0.4c0,0.1-0.2,0.1-0.3,0.1c-0.2,0-0.3,0-0.3,0
		l-0.4-0.3c-0.2-0.3-0.4-0.5-0.5-0.7l-0.1-0.8c0.1-0.2,0.2-0.3,0.2-0.4c0.2-0.2,0.2-0.5,0.3-0.7c0-0.3,0-0.5-0.2-0.8l0.1-0.4
		l0.1-0.6c0,0,0.1-0.2,0.2-0.5c0.1-0.3,0.2-0.5,0.2-0.6c-0.1-0.2,0-0.5,0.3-0.9c0-0.1,0-0.2,0-0.2v-0.5
		C38.1,202.2,38.1,201.8,38.1,201.4"/>
	<path class="st0" d="M50.1,197l0.9-0.5c0.5-0.4,0.8-0.8,0.9-1.1l0.6-0.7l0.3-0.1c0.1-0.3,0.2-0.5,0.2-0.7c0-0.1,0-0.2-0.1-0.3
		l-0.4-0.2c-0.1,0-0.3,0-0.4,0l-0.8,0.3l-1,0.4c-0.2,0.2-0.9,0.9-2.1,2c-0.1,0.1-0.3,0.4-0.5,0.7c-0.1,0.2-0.2,0.4-0.3,0.6l-0.4,0.5
		l-0.4,0.7l-0.3,0.4l-0.1,0.6c0.2,0,0.4-0.1,0.6-0.3l0.3-0.1l0,0L49,198C49.7,197.3,50.1,197,50.1,197 M56.5,204l-0.1,0.3
		c-0.1,0.1-0.1,0.2-0.3,0.3l-0.4,0.3l-0.3,0.2c-0.4,0.2-1.1,0.7-2.2,1.6l-1,0.5l-1.4,0.5c-0.1,0.1-0.4,0.2-1,0.5
		c-0.1,0-0.4,0.1-0.9,0.3h-1.8l-1.6-0.7c-0.1-0.1-0.1-0.2-0.2-0.2l-0.2-0.2l-0.8-0.8c-0.2-0.4-0.4-0.6-0.4-0.8
		c0-0.1-0.1-0.2-0.3-0.5l-0.2-1.5l0.2-2.2v-0.3l0.2-0.6l0.4-1.1l1.4-2.6l0.5-1.1c0.1-0.2,0.3-0.4,0.5-0.6l0.5-0.5
		c0.1-0.1,0.3-0.3,0.6-0.6c0.1-0.1,0.2-0.3,0.6-0.6c0.1,0,0.2-0.1,0.3-0.3c0,0,0-0.1,0.1-0.1l1.4-0.8l1-0.5c0.1,0,0.2-0.1,0.4-0.2
		c0.7-0.1,1.2-0.2,1.5-0.3c1.2,0,2,0.3,2.5,0.9c0,0.1,0.1,0.4,0.4,0.7l-0.1,0.9l-0.1,0.4l-0.5,0.7l-0.4,0.7l-0.5,0.5
		c-0.1,0.1-0.2,0.3-0.5,0.4c0,0.1-0.1,0.1-0.3,0.3l-0.5,0.4c0,0-0.6,0.4-1.7,1.2l-0.2,0.3c-0.7,0.2-1.4,0.7-2.1,1.5
		c-0.5,0.3-0.9,0.6-1,0.8c-0.1,0-0.2,0.1-0.3,0.2l-0.5,0.1l-1,0.5c0,0.5,0,0.8,0,0.8c0,0.5,0.2,1.1,0.4,2c0.1,0.3,0.2,0.4,0.2,0.5
		c0.4,0.4,0.7,0.8,1,1c0.1,0,0.1,0,0.3,0.1c0.1,0.1,0.2,0.1,0.3,0.1l0.5,0.1c0.1,0,0.2,0,0.3,0l0.9-0.2c0.9-0.4,2.2-0.9,3.9-1.7
		l0.5-0.2c0.3-0.1,0.4-0.2,0.4-0.2l1-0.6l0.2-0.3l0.2-0.3l0.4,0.2C56.5,203.3,56.5,203.5,56.5,204"/>
	<path class="st0" d="M61.4,205.3c0,0,0.1-0.1,0.1-0.4s0.1-0.4,0.1-0.4l0.2-1.2l0.3-0.6l0.2-1.7c0-0.1,0-0.2,0-0.4v-0.3v-0.2
		l0.4-2.8l0.5-2.1c-0.1-0.1-0.1-0.2-0.2-0.2c-0.5-0.2-1.1-0.1-1.8,0.3l-2.3,0.7c-0.1,0.1-0.2,0.2-0.2,0.2l0,0c0,0.1-0.1,0.1-0.3,0.1
		c-0.1,0-0.2,0-0.3,0.1l-0.4,0.3l-0.1,0.1l-0.2,0.1c0,0-0.1,0.1-0.3,0.2l-1.6,0.4v0.1l0.1-0.1v-0.1c-0.5-0.4-0.7-0.7-0.7-0.9
		c0-0.1-0.1-0.2-0.1-0.3v-0.3l0.4-0.8c0.1-0.1,0.2-0.1,0.3-0.1l1.2-0.6l1.6-0.4h0.1h0.2c0.1,0,0.2-0.1,0.3-0.1l0.8-0.2
		c0.2-0.2,0.4-0.3,0.6-0.2l0.2-0.1l0.3-0.2l0.9-0.1c0.3-0.1,0.6-0.2,0.9-0.3H63h0.3l0.7-0.2l1.8-6.2l0.6-1.7
		c0.1-0.1,0.1-0.2,0.2-0.3c0-0.7,0.3-1.6,0.7-2.7v-0.1c0-0.1,0.1-0.4,0.2-0.9l0.1-0.8l-0.1-0.6c0.2-0.3,0.4-0.5,0.6-0.6l0.3-0.3
		l0.4-0.1l1.5,1l0.1,0.2l0.2,0.3c0,0.5,0,0.8,0,0.9l-0.3,0.5l-0.6,1.1c-0.1,0.2-0.2,0.4-0.3,0.6l-0.2,0.6l-0.2,0.6
		c-0.1,0.3-0.2,0.5-0.2,0.6c-0.2,0.3-0.4,0.6-0.4,0.7c0,0.2-0.1,0.6-0.4,1.2c-0.2,0.6-0.3,1-0.3,1.2l-0.4,0.8l-0.4,1.4l-0.2,0.9
		c-0.1,0.2-0.1,0.4-0.2,0.6l-0.1,0.3c0,0,0,0.1,0,0.2l-0.1,0.1c-0.1,0.1,0.1,0.1,0.5,0.2h0.8c0.1,0,0.4,0,0.8,0.1h0.7
		c0.2,0,0.4,0,0.4,0.1h1.4l0.5,0.1c0.2,0.1,0.4,0.1,0.6,0.1h0.3c-0.1,0,0.1,0,0.5,0.1c0.5,0.1,0.8,0.1,0.6,0.2l0.8,0.1l0.7,0.2v0.2
		l-0.1,0.2l-0.4,0.3c0,0.1-0.5,0.1-1.5,0.1c-0.1,0-0.3,0-0.4,0h-0.7c-0.1,0-0.2,0-0.5,0h-0.1H71h-0.2v0.1l-0.1-0.1l-1.1,0.3
		l-4.1,0.5c-0.1,0.1-0.1,0.3-0.2,0.7c0,0,0,0.1,0,0.2v0.2c-0.2,0.3-0.3,0.5-0.3,0.8c0,0.1,0,0.2-0.1,0.4l-0.1,0.3v0.3
		c0,0.5-0.1,0.6-0.1,0.4c0,0.2,0,0.3-0.1,0.3l-0.4,1.3l-0.1,1.2c0,0.1,0,0.2-0.1,0.4l-0.2,0.9c-0.1,0.8-0.2,1.2-0.2,1.3
		c0,0,0,0.1,0.1,0.1l-0.1-0.1l-0.2,1.1c0,0.2,0,0.4-0.1,0.7l-0.2,0.9l0.1,1.4l0.1,0.3l-0.2,0.3c0,0.1,0,0.1,0,0.2s-0.1,0.1-0.2,0.2
		l-2,0.5c-0.1-0.1-0.2-0.2-0.3-0.3c0-0.1,0.1-0.1,0.1-0.2s0-0.1,0-0.1l-0.2-1.1C61.1,206.5,61.2,205.9,61.4,205.3"/>
	<path class="st0" d="M79.2,187.6l-0.6,0.3l-0.2-0.1l-0.6,0.2h-0.4l-0.4-0.2c-0.1-0.1-0.2-0.4-0.3-0.9L77,186c0-1.1-0.1-1.9-0.2-2.5
		l-0.3-0.5c0.1-0.1,0.1-0.2,0.1-0.4c-0.2-0.3-0.3-0.7-0.3-1.2c0-0.2,0-0.3,0-0.5l-0.2-0.6l0.2-0.7l0.9-0.1l0.2,0.2
		c0.1,0.1,0.3,0.2,0.6,0.4c0,0.1,0.2,0.3,0.4,0.6c0.1,0.1,0.1,0.3,0.2,0.5l0.4,2.1c0,0.6,0,1.1,0.2,1.4v1.3c0,0.5-0.1,0.9-0.2,1.3
		C79.1,187.2,79.1,187.4,79.2,187.6"/>
	<path class="st0" d="M83.2,208.5l-1.4,0.9c0,0,0,0.1-0.1,0.1l-0.4,0.1H81c-0.1,0-0.1,0-0.2-0.1l-0.1-0.1l-0.1-1l0.4-0.6l1.1-0.8
		l0.2-0.3c0.2-0.1,0.4-0.2,0.4-0.2l1-0.8c0.4-0.3,0.6-0.6,0.8-0.9c0.5-0.3,0.8-0.6,0.9-0.7l0.4-0.3c0.2-0.3,0.3-0.4,0.3-0.3l0.8-0.6
		c0-0.1,0.1-0.2,0.2-0.2l0.8-1.1l-2.4-0.5l-0.8-0.4c-0.4,0-0.7-0.1-0.8-0.3l-1.7-0.5c-0.1-0.1-0.1-0.1-0.1-0.1l-1.1-0.6l-0.3-0.6
		l-0.4-0.3l-0.3-0.6l-0.1-0.9l0.2-0.9l0.3-0.4c0.3-0.4,0.5-0.7,0.7-0.8l1.6-1.5c0.1,0,0.2-0.1,0.3-0.1l0.6-0.3l0.7-0.2l0.6-0.2
		l0.4-0.1c0.3,0,0.6-0.1,0.9-0.3l2.4-0.5l1.9-0.2l0.2-0.3l0.4-0.2c0.6,0.5,0.9,1,0.8,1.5c-0.3,0.3-0.5,0.5-0.6,0.7c0,0-0.1,0-0.2,0
		c-0.1,0.1-0.1,0.1-0.2,0.2l-0.9,0.2l-1.1-0.1c-0.3,0-0.6-0.1-0.9-0.1l-0.4,0.1c-0.2,0-0.3,0-0.3,0.1l-1.3,0.3c0,0-0.2,0.1-0.4,0.3
		c-0.1,0.1-0.2,0.1-0.3,0.2c-0.5,0.1-0.9,0.3-1.1,0.6l-0.3,0.1l-1.2,1.1l-0.2,0.5c0,0,0,0.2,0,0.4l0.1,0.7l0.7,0.8
		c1,0.4,1.6,0.6,1.8,0.6c2,0.3,3,0.4,2.9,0.4h0.4l1.7,0.3c0.4,0.3,0.6,0.5,0.7,0.7c0,0.1,0,0.2,0,0.2c0,0.2-0.1,0.4-0.2,0.8
		c-0.1,0.3-0.2,0.6-0.2,0.7c-0.2,0.3-0.4,0.5-0.5,0.7l-0.4,0.4c-0.1,0.2-0.2,0.3-0.3,0.3l-1,0.8c-0.3,0.3-0.4,0.6-0.4,0.7
		c-0.3,0.2-0.6,0.4-0.8,0.6l-0.6,0.5c0.1,0-0.1,0.1-0.5,0.4l-0.4,0.4l-0.8,0.7c-0.1,0.2-0.3,0.3-0.4,0.3
		C83.9,207.9,83.5,208.2,83.2,208.5"/>
	<path class="st0" d="M109.6,208.5l-1.4,0.9c0,0,0,0.1-0.1,0.1l-0.4,0.1h-0.3c-0.1,0-0.1,0-0.2-0.1l-0.1-0.1l-0.1-1l0.4-0.6l1.1-0.8
		l0.2-0.3c0.2-0.1,0.4-0.2,0.4-0.2l1-0.8c0.4-0.3,0.6-0.6,0.8-0.9c0.5-0.3,0.8-0.6,0.9-0.7l0.4-0.3c0.2-0.3,0.3-0.4,0.3-0.3l0.8-0.6
		c0-0.1,0.1-0.2,0.2-0.2l0.8-1.1l-2.4-0.5l-0.8-0.4c-0.4,0-0.7-0.1-0.8-0.3l-1.7-0.5c-0.1-0.1-0.1-0.1-0.1-0.1l-1.1-0.6l-0.3-0.6
		l-0.4-0.3l-0.3-0.6l-0.1-0.9l0.2-0.9l0.3-0.4c0.3-0.4,0.5-0.7,0.7-0.8l1.6-1.5c0.1,0,0.2-0.1,0.3-0.1l0.6-0.3l0.7-0.2l0.6-0.2
		l0.4-0.1c0.3,0,0.6-0.1,0.9-0.3l2.4-0.5l1.9-0.2l0.2-0.3l0.4-0.2c0.6,0.5,0.9,1,0.8,1.5c-0.3,0.3-0.5,0.5-0.6,0.7c0,0-0.1,0-0.2,0
		c-0.1,0.1-0.1,0.1-0.2,0.2l-0.9,0.2l-1.1-0.1c-0.3,0-0.6-0.1-0.9-0.1l-0.4,0.1c-0.2,0-0.3,0-0.3,0.1l-1.3,0.3c0,0-0.2,0.1-0.4,0.3
		c-0.1,0.1-0.2,0.1-0.3,0.2c-0.5,0.1-0.9,0.3-1.1,0.6l-0.3,0.1l-1.2,1.1l-0.2,0.5c0,0,0,0.2,0,0.4l0.1,0.7l0.7,0.8
		c1,0.4,1.6,0.6,1.8,0.6c2,0.3,3,0.4,2.9,0.4h0.4l1.7,0.3c0.4,0.3,0.6,0.5,0.7,0.7c0,0.1,0,0.2,0,0.2c0,0.2-0.1,0.4-0.2,0.8
		c-0.1,0.3-0.2,0.6-0.2,0.7c-0.2,0.3-0.4,0.5-0.5,0.7l-0.4,0.4c-0.1,0.2-0.2,0.3-0.3,0.3l-1,0.8c-0.3,0.3-0.4,0.6-0.4,0.7
		c-0.3,0.2-0.6,0.4-0.8,0.6l-0.6,0.5c0.1,0-0.1,0.1-0.5,0.4l-0.4,0.4l-0.8,0.7c-0.1,0.2-0.3,0.3-0.4,0.3
		C110.3,207.9,109.9,208.2,109.6,208.5"/>
	<path class="st0" d="M122.4,205.3c0,0,0.1-0.1,0.1-0.4s0.1-0.4,0.1-0.4l0.2-1.2l0.3-0.6l0.2-1.7c0-0.1,0-0.2,0-0.4v-0.3v-0.2
		l0.4-2.8l0.5-2.1c-0.1-0.1-0.1-0.2-0.2-0.2c-0.5-0.2-1.1-0.1-1.8,0.3l-2.3,0.7c-0.1,0.1-0.2,0.2-0.2,0.2l0,0c0,0.1-0.1,0.1-0.3,0.1
		c-0.1,0-0.2,0-0.3,0.1l-0.4,0.3l-0.1,0.1l-0.2,0.1c0,0-0.1,0.1-0.3,0.2l-1.6,0.4v0.1l0.1-0.1v-0.1c-0.5-0.4-0.7-0.7-0.7-0.9
		c0-0.1-0.1-0.2-0.1-0.3v-0.3l0.4-0.8c0.1-0.1,0.2-0.1,0.3-0.1l1.2-0.6l1.6-0.4h0.1h0.2c0.1,0,0.2-0.1,0.3-0.1l0.8-0.2
		c0.2-0.2,0.4-0.3,0.6-0.2l0.2-0.1l0.3-0.2l0.9-0.1c0.3-0.1,0.6-0.2,0.9-0.3h0.4h0.3l0.7-0.2l1.8-6.2l0.6-1.7
		c0.1-0.1,0.1-0.2,0.2-0.3c0-0.7,0.3-1.6,0.7-2.7v-0.1c0-0.1,0.1-0.4,0.2-0.9l0.1-0.8l-0.1-0.6c0.2-0.3,0.4-0.5,0.6-0.6l0.3-0.3
		l0.4-0.1l1.5,1l0.1,0.2l0.2,0.3c0,0.5,0,0.8,0,0.9l-0.3,0.5l-0.6,1.1c-0.1,0.2-0.2,0.4-0.3,0.6l-0.2,0.6l-0.2,0.6
		c-0.1,0.3-0.2,0.5-0.2,0.6c-0.2,0.3-0.4,0.6-0.4,0.7c0,0.2-0.1,0.6-0.4,1.2c-0.2,0.6-0.3,1-0.3,1.2l-0.4,0.8l-0.4,1.4l-0.2,0.9
		c-0.1,0.2-0.1,0.4-0.2,0.6l-0.1,0.3c0,0,0,0.1,0,0.2l-0.1,0.1c-0.1,0.1,0.1,0.1,0.5,0.2h0.8c0.1,0,0.4,0,0.8,0.1h0.7
		c0.2,0,0.4,0,0.4,0.1h1.4l0.5,0.1c0.2,0.1,0.4,0.1,0.6,0.1h0.3c-0.1,0,0.1,0,0.5,0.1c0.5,0.1,0.8,0.1,0.6,0.2l0.8,0.1l0.7,0.2v0.2
		l-0.1,0.2l-0.4,0.3c0,0.1-0.5,0.1-1.5,0.1c-0.1,0-0.3,0-0.4,0h-0.7c-0.1,0-0.2,0-0.5,0h-0.1H132h-0.2v0.1l-0.1-0.1l-1.1,0.3
		l-4.1,0.5c-0.1,0.1-0.1,0.3-0.2,0.7c0,0,0,0.1,0,0.2v0.2c-0.2,0.3-0.3,0.5-0.3,0.8c0,0.1,0,0.2-0.1,0.4l-0.1,0.3v0.3
		c0,0.5-0.1,0.6-0.1,0.4c0,0.2,0,0.3-0.1,0.3l-0.4,1.3l-0.1,1.2c0,0.1,0,0.2-0.1,0.4l-0.2,0.9c-0.1,0.8-0.2,1.2-0.2,1.3
		c0,0,0,0.1,0.1,0.1l-0.1-0.1l-0.2,1.1c0,0.2,0,0.4-0.1,0.7l-0.2,0.9l0.1,1.4l0.1,0.3l-0.2,0.3c0,0.1,0,0.1,0,0.2s-0.1,0.1-0.2,0.2
		l-2,0.5c-0.1-0.1-0.2-0.2-0.3-0.3c0-0.1,0.1-0.1,0.1-0.2s0-0.1,0-0.1l-0.2-1.1C122.1,206.5,122.3,205.9,122.4,205.3"/>
	<path class="st0" d="M140.8,197.3l0.4-0.6l0.3-1c-0.1-0.8-0.4-1.4-1-1.7c0-0.1-0.1-0.1-0.1-0.1l-1.1,0.3c-0.1,0.1-0.3,0.1-0.4,0.1
		l-0.7,0.6c-0.1,0.1-0.2,0.1-0.2,0.1l-1.2,1.6c-0.3,0.3-0.6,0.5-0.7,0.7c-0.7,1-1.1,1.6-1.2,1.8l-1.1,2.3c-0.2,0.9-0.4,1.6-0.5,2
		c0,0.1,0,0.2,0,0.3c0,0.2,0,0.3,0.1,0.5l0.1,1.1c0.1,0.1,0.2,0.2,0.4,0.2c0.5-0.1,0.9-0.2,1.4-0.5c0.2-0.1,0.6-0.4,1.2-0.9l0.5-0.6
		l0.5-0.5c0-0.1,0.1-0.2,0.4-0.4l0.3-0.5c0.1,0,0.1,0,0.2-0.1c0.2-0.3,0.5-0.7,0.8-1c0.4-0.7,0.7-1.3,0.9-1.6
		c0.1-0.1,0.1-0.1,0.2-0.1l0.5-1.2C140.9,197.7,140.9,197.4,140.8,197.3 M145.8,208.8l-0.9-0.4c-0.5-0.1-0.8-0.2-1-0.3
		c-0.4-0.2-0.9-0.5-1.4-1.1c-0.7-0.7-1-1.1-1.2-1.3l-0.2-1l-0.4-0.7l-0.2-1.1c0-0.1,0-0.2,0-0.2v-0.3c-0.1-0.1-0.1-0.2-0.1-0.2
		c-0.1,0.2-0.2,0.3-0.3,0.4c-0.2,0.2-0.4,0.4-0.5,0.6l-0.4,0.6l-0.3,0.5c-0.2,0.1-0.3,0.2-0.4,0.3c-0.2,0.3-0.3,0.4-0.5,0.5
		c0,0.1-0.1,0.2-0.3,0.2l-0.8,0.8l-0.7,0.7c-0.5,0.2-0.9,0.3-1.1,0.4c-0.8,0.3-1.7,0.4-2.7,0.3c-0.5-0.2-0.8-0.7-0.9-1.6
		c-0.1-0.3-0.1-0.5-0.1-0.8l0.1-0.9l0.6-2.7c0-0.1,0.1-0.4,0.2-0.8c0.3-0.8,0.6-1.4,0.8-2l0.6-0.8l0.6-0.9l0.8-1.1l0.9-0.9l0.8-0.9
		c0.1-0.1,0.3-0.2,0.4-0.3l0.6-0.8l1-0.6c0.3-0.1,0.5-0.2,0.7-0.3c1-0.1,1.7-0.2,1.9-0.2h0.3h0.3c0.5,0,1,0.3,1.5,0.7
		c0.1,0.2,0.1,0.4,0.1,0.8c0,0.2,0,0.3,0.1,0.4l-0.1,0.5v1.2l-0.1,1c0.1,0.2,0,0.8-0.3,1.5c0,0.1,0.1,0.2,0.1,0.2l-0.4,1.1
		c-0.1,0.1-0.1,0.2-0.1,0.3c-0.1,0.9-0.1,1.4-0.1,1.5s0,0.4-0.1,0.6c-0.1,0.3-0.1,0.5-0.1,0.6l0.3,1.4l0.9,1.5l1.4,1.3l1.6,0.9
		l0.2,0.3c0,0.2,0,0.3,0.1,0.4c0,0.1-0.1,0.1-0.2,0.2s-0.1,0.2-0.2,0.3C146.3,208.8,146,208.8,145.8,208.8"/>
	<path class="st0" d="M151.7,206.3l-0.3,0.8l-0.2,0.5c0,0.1,0,0.1,0,0.1l-0.1,0.1c-0.1,0.1-0.2,0.1-0.3,0.1
		c-0.1,0.2-0.1,0.4-0.1,0.5c-0.1,0.1-0.3,0.2-0.7,0.2c-0.4,0.1-0.7,0.1-0.8,0l-0.2-0.1l-0.1-0.3c-0.1-0.2-0.1-0.4-0.1-0.5
		c0-0.3,0-0.6-0.1-0.7l0.1-0.3c0-1.2-0.1-1.9-0.3-2.1l-0.2-3.2l-0.1-1.4l-0.3-1.5c-0.4-1-0.7-1.6-0.9-2l-0.2-0.3l-0.1-0.3v-0.3
		c0-0.2,0-0.3,0-0.4c0.1-0.2,0.1-0.3,0.1-0.4c0.2-0.4,0.3-0.6,0.4-0.8l0.8-0.6l1.9,0.5c0,0.1,0.1,0.2,0.2,0.3c0,0.2,0,0.6,0,1.1
		s0,0.8-0.2,1c0,0.4,0,0.7,0.1,0.9l-0.1,1.3v1l0.6,2.5l0.8-1c0.7-1.3,1.2-2.2,1.5-2.7l1.6-2.9c0.1-0.1,0.2-0.2,0.3-0.3
		c0.3-0.6,0.6-0.9,0.7-1.1l0.6-0.6l0.4-0.4l0.3-0.3l0.9-0.8c0.4-0.3,0.6-0.5,0.8-0.5c1.1-0.6,2-0.9,2.6-1.1h0.6
		c0.1-0.1,0.2-0.1,0.3-0.1c1.2,0.2,1.9,0.4,2,0.5c0,0.1,0,0.2-0.1,0.3l-0.4,0.5h-0.2l-0.5,0.4h-0.6c-0.2,0-0.5,0.1-0.9,0.3
		c-0.4,0.2-0.7,0.3-0.8,0.4c-0.6,0.2-1.1,0.5-1.5,0.9c-0.1,0.1-0.2,0.1-0.2,0.1l-1.2,1.4c-0.3,0.4-0.5,0.6-0.5,0.7l-0.8,1.1
		c-0.1,0.1-0.2,0.2-0.2,0.3l-0.3,0.4l-0.2,0.4c-0.2,0.5-0.7,1.3-1.3,2.3c-0.6,1-1.1,1.7-1.3,2.3c0,0,0,0.1-0.1,0.3
		c-0.1,0.1-0.1,0.3-0.1,0.3l-0.9,2c0.1,0.1,0.1,0.2,0.2,0.3L151.7,206.3z"/>
	<path class="st0" d="M163.5,205.3c0,0,0.1-0.1,0.1-0.4s0.1-0.4,0.1-0.4l0.2-1.2l0.3-0.6l0.2-1.7c0-0.1,0-0.2,0-0.4v-0.3v-0.2
		l0.4-2.8l0.5-2.1c-0.1-0.1-0.1-0.2-0.2-0.2c-0.5-0.2-1.1-0.1-1.8,0.3L161,196c-0.1,0.1-0.2,0.2-0.2,0.2l0,0c0,0.1-0.1,0.1-0.3,0.1
		c-0.1,0-0.2,0-0.3,0.1l-0.4,0.3l-0.1,0.1l-0.2,0.1c0,0-0.1,0.1-0.3,0.2l-1.6,0.4v0.1l0.1-0.1v-0.1c-0.5-0.4-0.7-0.7-0.7-0.9
		c0-0.1-0.1-0.2-0.1-0.3v-0.3l0.4-0.8c0.1-0.1,0.2-0.1,0.3-0.1l1.2-0.6l1.6-0.4h0.1h0.2c0.1,0,0.2-0.1,0.3-0.1l0.8-0.2
		c0.2-0.2,0.4-0.3,0.6-0.2l0.2-0.1l0.3-0.2l0.9-0.1c0.3-0.1,0.6-0.2,0.9-0.3h0.4h0.3l0.7-0.2l1.8-6.2l0.6-1.7
		c0.1-0.1,0.1-0.2,0.2-0.3c0-0.7,0.3-1.6,0.7-2.7v-0.1c0-0.1,0.1-0.4,0.2-0.9l0.1-0.8l-0.1-0.6c0.2-0.3,0.4-0.5,0.6-0.6l0.3-0.3
		l0.4-0.1l1.5,1l0.1,0.2l0.2,0.3c0,0.5,0,0.8,0,0.9l-0.2,0.6l-0.6,1.1c-0.1,0.2-0.2,0.4-0.3,0.6l-0.2,0.6l-0.2,0.6
		c-0.1,0.3-0.2,0.5-0.2,0.6c-0.2,0.3-0.4,0.6-0.4,0.7c0,0.2-0.1,0.6-0.4,1.2c-0.2,0.6-0.3,1-0.3,1.2l-0.4,0.8l-0.4,1.4l-0.2,0.9
		c-0.1,0.2-0.1,0.4-0.2,0.6l-0.1,0.3c0,0,0,0.1,0,0.2l-0.1,0.1c-0.1,0.1,0.1,0.1,0.5,0.2h0.8c0.1,0,0.4,0,0.8,0.1h0.7
		c0.2,0,0.4,0,0.4,0.1h1.4l0.5,0.1c0.2,0.1,0.4,0.1,0.6,0.1h0.3c-0.1,0,0.1,0,0.5,0.1c0.5,0.1,0.8,0.1,0.6,0.2l0.8,0.1l0.7,0.2v0.2
		l-0.1,0.2l-0.4,0.3c0,0.1-0.5,0.1-1.5,0.1c-0.1,0-0.3,0-0.4,0H174c-0.1,0-0.2,0-0.5,0h-0.1h-0.2H173v0.1l-0.1-0.1l-1.1,0.3
		l-4.1,0.5c-0.1,0.1-0.1,0.3-0.2,0.7c0,0,0,0.1,0,0.2v0.2c-0.2,0.3-0.3,0.5-0.3,0.8c0,0.1,0,0.2-0.1,0.4l-0.1,0.3v0.3
		c0,0.5-0.1,0.6-0.1,0.4c0,0.2,0,0.3-0.1,0.3l-0.4,1.3l-0.1,1.2c0,0.1,0,0.2-0.1,0.4l-0.2,0.9c-0.1,0.8-0.2,1.2-0.2,1.3
		c0,0,0,0.1,0.1,0.1l-0.1-0.1l-0.2,1.1c0,0.2,0,0.4-0.1,0.7l-0.2,0.9l0.1,1.4l0.1,0.3l-0.2,0.3c0,0.1,0,0.1,0,0.2s-0.1,0.1-0.2,0.2
		l-2,0.5c-0.1-0.1-0.2-0.2-0.3-0.3c0-0.1,0.1-0.1,0.1-0.2s0-0.1,0-0.1l-0.2-1.1C163.3,206.5,163.4,205.9,163.5,205.3"/>
	<path class="st0" d="M190.6,208.5l-1.4,0.9c0,0,0,0.1-0.1,0.1l-0.4,0.1h-0.3c-0.1,0-0.1,0-0.2-0.1l-0.1-0.1l-0.1-1l0.4-0.6l1.1-0.8
		l0.2-0.3c0.2-0.1,0.4-0.2,0.4-0.2l1-0.8c0.4-0.3,0.6-0.6,0.8-0.9c0.5-0.3,0.8-0.6,0.9-0.7l0.4-0.3c0.2-0.3,0.3-0.4,0.3-0.3l0.8-0.6
		c0-0.1,0.1-0.2,0.2-0.2l0.8-1.1l-2.4-0.5l-0.8-0.4c-0.4,0-0.7-0.1-0.8-0.3l-1.7-0.5c-0.1-0.1-0.1-0.1-0.1-0.1l-1.1-0.6l-0.3-0.6
		l-0.4-0.3l-0.3-0.6l-0.1-0.9l0.2-0.9l0.3-0.4c0.3-0.4,0.5-0.7,0.7-0.8l1.6-1.5c0.1,0,0.2-0.1,0.3-0.1l0.6-0.3l0.7-0.2l0.6-0.2
		l0.4-0.1c0.3,0,0.6-0.1,0.9-0.3l2.4-0.5l1.9-0.2l0.2-0.3l0.4-0.2c0.6,0.5,0.9,1,0.8,1.5c-0.3,0.3-0.5,0.5-0.6,0.7c0,0-0.1,0-0.2,0
		c-0.1,0.1-0.1,0.1-0.2,0.2l-0.9,0.2l-1.1-0.1c-0.3,0-0.6-0.1-0.9-0.1l-0.4,0.1c-0.2,0-0.3,0-0.3,0.1l-1.3,0.3c0,0-0.2,0.1-0.4,0.3
		c-0.1,0.1-0.2,0.1-0.3,0.2c-0.5,0.1-0.9,0.3-1.1,0.6l-0.3,0.1l-1.2,1.1l-0.2,0.5c0,0,0,0.2,0,0.4l0.1,0.7l0.7,0.8
		c1,0.4,1.6,0.6,1.8,0.6c2,0.3,3,0.4,2.9,0.4h0.4l1.7,0.3c0.4,0.3,0.6,0.5,0.7,0.7c0,0.1,0,0.2,0,0.2c0,0.2-0.1,0.4-0.2,0.8
		c-0.1,0.3-0.2,0.6-0.2,0.7c-0.2,0.3-0.4,0.5-0.5,0.7l-0.4,0.4c-0.1,0.2-0.2,0.3-0.3,0.3l-1,0.8c-0.3,0.3-0.4,0.6-0.4,0.7
		c-0.3,0.2-0.6,0.4-0.8,0.6l-0.6,0.5c0.1,0-0.1,0.1-0.5,0.4l-0.4,0.4l-0.8,0.7c-0.1,0.2-0.3,0.3-0.4,0.3
		C191.3,207.9,190.9,208.2,190.6,208.5"/>
	<path class="st0" d="M211.6,199.3c0-0.1,0-0.3,0-0.6c0-0.3-0.1-0.5-0.2-0.7l-0.6-1.1l-0.2-0.6c-0.1-0.1-0.2-0.2-0.3-0.3l-1.3-0.7
		c0,0-0.1-0.1-0.1-0.2l-1.5-0.3c0,0-0.1-0.1-0.3-0.1c-0.2,0-0.6,0-1.1,0.1c0,0.1-0.1,0.1-0.1,0.1s-0.1,0-0.2-0.1c-0.1,0-0.2,0-0.4,0
		c-0.2,0.1-0.5,0.4-0.9,0.7l-0.3,0.4c-0.1,0.1-0.2,0.3-0.6,0.9c-0.4,0.7-0.7,1.2-0.8,1.6c0,0.1,0,0.2,0,0.2
		c-0.2,0.3-0.4,0.6-0.5,0.8c-0.1,0.4-0.1,0.7-0.1,0.7l-0.3,0.5c0,0.1-0.2,0.6-0.5,1.6c0.2,1.3,0.7,2.1,1.6,2.5
		c1.1,0.3,1.6,0.4,1.7,0.4c0.3,0,0.7-0.1,1.1-0.2l0.7-0.1l0.4-0.4l0.9-0.5l1.6-1.1c0.2-0.3,0.4-0.6,0.8-0.7l0.5-0.8l0.3-0.6l0.2-0.4
		l0.3-0.7C211.5,199.7,211.6,199.5,211.6,199.3 M212.9,200.3l-0.4,1.1l-0.8,1.2l-0.3,0.4c-0.1,0.2-0.2,0.4-0.3,0.5l-0.7,0.8
		l-0.9,0.6c-0.1,0.1-0.1,0.2-0.2,0.2l-0.7,0.4l-1.1,0.6c-0.1,0.1-0.1,0.2-0.2,0.2c-0.9,0.3-1.5,0.6-1.9,0.8
		c-0.8,0.2-1.3,0.2-1.5,0.2L203,207l-0.7-0.2l-0.5-0.2c-0.6-0.1-1.2-0.6-1.7-1.4c0-0.2-0.2-0.6-0.4-1.2c-0.2-0.5-0.3-0.9-0.3-1.2
		c0-0.2,0-0.4,0-0.6c0.1-0.3,0.1-0.5,0-0.7l1.3-3.1c0,0,0.1-0.1,0.2-0.2c0-0.1,0.1-0.1,0.1-0.2l0.2-0.7l0.2-0.3
		c0.6-0.8,1.3-1.9,2-3.2c0.1-0.1,0.2-0.1,0.2-0.1l0.7-1.1c0.1,0,0.2-0.1,0.2-0.2c0.3-0.5,0.6-0.8,0.9-0.9c0.4-0.2,0.7-0.4,0.8-0.5
		h0.5c0.1,0.2,0.3,0.4,0.6,0.6l0.2,0.3l-0.1,0.6l1.2,0.3c0.1,0,0.1,0,0.2,0l2.3,0.8c0.2,0.3,0.4,0.5,0.6,0.6c0.3,0,0.6,0.2,0.7,0.5
		c0.3,0.2,0.5,0.3,0.6,0.5l0.5,0.9c0,0.1,0,0.4,0,0.6c0,0.1,0,0.2,0.1,0.4c0,0.2,0,0.3,0,0.3c0,0.6,0,1,0,1.1
		C213.4,199,213.2,199.5,212.9,200.3"/>
	<path class="st0" d="M235.2,211.1L235.2,211.1c-0.1,0-0.1-0.1-0.2-0.1l-1-0.3l-0.2-0.3l-0.2-1.3l0.3-2.6l-0.1-0.3l0.3-0.4v-0.3
		l0.2-0.7l-0.2-0.3l0.2-0.3v-2.1l0.3-0.7l-0.2-2.3c0.1-0.2,0.1-0.5,0-0.6c-0.2-0.7-0.3-1.2-0.6-1.4l-1.8,1.3v0.1
		c-0.4,0.2-0.7,0.4-0.9,0.8c-0.1,0.1-0.3,0.4-0.7,1l-2,1.7c-0.1,0.1-0.1,0.1-0.2,0.1c-0.6,0.5-1,0.9-1,1c-1,1.1-1.8,2-2.2,2.6
		c-0.7,0.5-1.2,0.9-1.5,1.2l-0.3,0.1l-1.2-0.4l-0.4-1l0.8-1.7l0.6-2.6c0,0,0-0.1,0-0.2l0.1-0.1c0-0.1,0-0.1,0-0.1
		c0.1-0.3,0.2-0.6,0.2-0.7s0-0.3,0.1-0.6c0.1-0.5,0.1-0.7,0.1-0.7c0.2-0.7,0.3-1.3,0.3-2c-0.1-0.1-0.2-0.1-0.4-0.1l-0.7,0.5
		c0,0.1-0.1,0.2-0.2,0.3h-0.1c-0.1,0.1-0.2,0.1-0.3,0.2l-0.1,0.1c0,0-0.1,0-0.1,0.1l-2.3,2.5l-0.4,0.7c-0.1,0.1-0.1,0.2-0.2,0.2
		l-0.6,0.6l-0.2,0.3l-0.8,0.8c-0.1,0.1-0.1,0.2-0.2,0.4l-1.9,2.4c-0.5,0.1-0.9,0.5-1.1,1.1l-0.6,0.2l-1-0.5
		c-0.1-0.3-0.2-0.5-0.3-0.6c0-0.5,0.2-0.8,0.5-1c0.1-0.1,0.1-0.3,0.2-0.5l1.7-4l1.4-3.6c0.6-1.6,0.9-2.7,0.9-3.5l0.3-0.3
		c0.1,0,0.2,0,0.4,0c0.4,0,1,0.1,1.7,0.2c0.1,0.1,0.2,0.2,0.3,0.3l-0.1,1.1c-0.3,0.1-0.5,0.2-0.6,0.5l-1.3,2.7c0,0,0,0.1-0.1,0.2
		l-0.1,0.1c0,0.1,0,0.1,0,0.1l-0.2,0.6l-0.2,0.6l-0.3,0.5v0.8l1.2-1.2l0.9-0.9c0.1-0.1,0.2-0.1,0.3-0.2l2.9-3.1
		c0.4-0.3,0.9-0.8,1.5-1.5c0.2-0.2,0.3-0.4,0.4-0.5c0,0,0.1-0.1,0.3-0.3l1.1-0.3l1,0.5c0,0.3,0.1,0.6,0.1,0.8c0,0.2-0.1,0.4-0.2,0.6
		c0.1,0.1,0.1,0.2,0.2,0.3l-0.7,3.4c-0.3,0.7-0.5,1.4-0.6,2l-0.2,2h0.4l3-2.9c0-0.1,0.1-0.1,0.2-0.2l0,0l0.4-0.3l3.6-3.6l0.1,0.1
		l1.5-1.2l1.4-0.3l0.3,0.3c0,0.1,0.1,0.1,0.3,0.1l0.6,1l0.3,3.4l-0.2,0.5c0.1,0,0.1,0,0.2,0.1l-0.5,5.7l-0.3,0.3l-0.1,4.9l-0.3,0.4
		l0.2,0.3l-0.1,0.3L235.2,211.1z"/>
	<path class="st0" d="M245.2,197l0.9-0.5c0.5-0.4,0.8-0.8,0.9-1.1l0.6-0.7l0.3-0.1c0.1-0.3,0.2-0.5,0.2-0.7c0-0.1,0-0.2-0.1-0.3
		l-0.4-0.2c-0.1,0-0.3,0-0.4,0l-0.8,0.3l-1,0.4c-0.2,0.2-0.9,0.9-2.1,2c-0.1,0.1-0.3,0.4-0.5,0.7c-0.1,0.2-0.2,0.4-0.3,0.6l-0.4,0.5
		l-0.4,0.7l-0.3,0.4l-0.1,0.6c0.2,0,0.4-0.1,0.6-0.3l0.3-0.1l0,0l1.9-1.2C244.8,197.3,245.2,197,245.2,197 M251.6,204l-0.1,0.3
		c-0.1,0.1-0.1,0.2-0.3,0.3l-0.4,0.3l-0.3,0.2c-0.4,0.2-1.1,0.7-2.2,1.6l-1,0.5l-1.4,0.5c-0.1,0.1-0.4,0.2-1,0.5
		c-0.1,0-0.4,0.1-0.9,0.3h-1.8l-1.6-0.7c-0.1-0.1-0.1-0.2-0.2-0.2l-0.2-0.2l-0.8-0.8c-0.2-0.4-0.4-0.6-0.4-0.8
		c0-0.1-0.1-0.2-0.3-0.5l-0.2-1.5l0.2-2.2v-0.3l0.2-0.6l0.4-1.1l1.4-2.6l0.5-1.1c0.1-0.2,0.3-0.4,0.5-0.6l0.5-0.5
		c0.1-0.1,0.3-0.3,0.6-0.6c0.1-0.1,0.2-0.3,0.6-0.6c0.1,0,0.2-0.1,0.3-0.3c0,0,0-0.1,0.1-0.1l1.4-0.8l1-0.5c0.1,0,0.2-0.1,0.4-0.2
		c0.7-0.1,1.2-0.2,1.5-0.3c1.2,0,2,0.3,2.5,0.9c0,0.1,0.1,0.4,0.4,0.7l-0.1,0.9l-0.1,0.4l-0.5,0.7l-0.4,0.7l-0.5,0.5
		c-0.1,0.1-0.2,0.3-0.5,0.4c0,0.1-0.1,0.1-0.3,0.3l-0.5,0.4c0,0-0.6,0.4-1.7,1.2l-0.2,0.3c-0.7,0.2-1.4,0.7-2.1,1.5
		c-0.5,0.3-0.9,0.6-1,0.8c-0.1,0-0.2,0.1-0.3,0.2l-0.5,0.1l-1,0.5c0,0.5,0,0.8,0,0.8c0,0.5,0.2,1.1,0.4,2c0.1,0.3,0.2,0.4,0.2,0.5
		c0.4,0.4,0.7,0.8,1,1c0.1,0,0.1,0,0.3,0.1c0.1,0.1,0.2,0.1,0.3,0.1l0.5,0.1c0.1,0,0.2,0,0.3,0l0.9-0.2c0.9-0.4,2.2-0.9,3.9-1.7
		l0.5-0.2c0.3-0.1,0.4-0.2,0.4-0.2l1-0.6l0.2-0.3l0.2-0.3l0.4,0.2C251.5,203.3,251.6,203.5,251.6,204"/>
	<path class="st0" d="M256.5,205.3c0,0,0.1-0.1,0.1-0.4s0.1-0.4,0.1-0.4l0.2-1.2l0.3-0.6l0.2-1.7c0-0.1,0-0.2,0-0.4v-0.3v-0.2
		l0.4-2.8l0.5-2.1c-0.1-0.1-0.1-0.2-0.2-0.2c-0.5-0.2-1.1-0.1-1.8,0.3L254,196c-0.1,0.1-0.2,0.2-0.2,0.2l0,0c0,0.1-0.1,0.1-0.3,0.1
		c-0.1,0-0.2,0-0.3,0.1l-0.4,0.3l-0.1,0.1l-0.2,0.1c0,0-0.1,0.1-0.3,0.2l-1.6,0.4v0.1l0.1-0.1v-0.1c-0.5-0.4-0.7-0.7-0.7-0.9
		c0-0.1-0.1-0.2-0.1-0.3v-0.3l0.4-0.8c0.1-0.1,0.2-0.1,0.3-0.1l1.2-0.6l1.6-0.4h0.1h0.2c0.1,0,0.2-0.1,0.3-0.1l0.8-0.2
		c0.2-0.2,0.4-0.3,0.6-0.2l0.2-0.1l0.3-0.2l0.9-0.1c0.3-0.1,0.6-0.2,0.9-0.3h0.4h0.3l0.7-0.2l1.8-6.2l0.6-1.7
		c0.1-0.1,0.1-0.2,0.2-0.3c0-0.7,0.3-1.6,0.7-2.7v-0.1c0-0.1,0.1-0.4,0.2-0.9l0.1-0.8l-0.1-0.6c0.2-0.3,0.4-0.5,0.6-0.6l0.3-0.3
		l0.4-0.1l1.5,1l0.1,0.2l0.2,0.3c0,0.5,0,0.8,0,0.9l-0.3,0.5l-0.6,1.1c-0.1,0.2-0.2,0.4-0.3,0.6l-0.2,0.6l-0.2,0.6
		c-0.1,0.3-0.2,0.5-0.2,0.6c-0.2,0.3-0.4,0.6-0.4,0.7c0,0.2-0.1,0.6-0.4,1.2c-0.2,0.6-0.3,1-0.3,1.2l-0.4,0.8L262,190l-0.2,0.9
		c-0.1,0.2-0.1,0.4-0.2,0.6l-0.1,0.3c0,0,0,0.1,0,0.2l-0.1,0.1c-0.1,0.1,0.1,0.1,0.5,0.2h0.8c0.1,0,0.4,0,0.8,0.1h0.7
		c0.2,0,0.4,0,0.4,0.1h1.4l0.5,0.1c0.2,0.1,0.4,0.1,0.6,0.1h0.3c-0.1,0,0.1,0,0.5,0.1c0.5,0.1,0.8,0.1,0.6,0.2l0.8,0.1l0.7,0.2v0.2
		l-0.1,0.2l-0.4,0.3c0,0.1-0.5,0.1-1.5,0.1c-0.1,0-0.3,0-0.4,0h-0.7c-0.1,0-0.2,0-0.5,0h-0.1h-0.2h-0.2v0.1l-0.1-0.1l-1.1,0.3
		l-4.1,0.5c-0.1,0.1-0.1,0.3-0.2,0.7c0,0,0,0.1,0,0.2v0.2c-0.2,0.3-0.3,0.5-0.3,0.8c0,0.1,0,0.2-0.1,0.4l-0.1,0.3v0.3
		c0,0.5-0.1,0.6-0.1,0.4c0,0.2,0,0.3-0.1,0.3l-0.4,1.3l-0.1,1.2c0,0.1,0,0.2-0.1,0.4l-0.2,0.9c-0.1,0.8-0.2,1.2-0.2,1.3
		c0,0,0,0.1,0.1,0.1l-0.1-0.1l-0.2,1.1c0,0.2,0,0.4-0.1,0.7l-0.2,0.9l0.1,1.4l0.1,0.3l-0.2,0.3c0,0.1,0,0.1,0,0.2s-0.1,0.1-0.2,0.2
		l-2,0.5c-0.1-0.1-0.2-0.2-0.3-0.3c0-0.1,0.1-0.1,0.1-0.2s0-0.1,0-0.1l-0.2-1.1C256.2,206.5,256.3,205.9,256.5,205.3"/>
	<path class="st0" d="M277.5,195.9l0.1-0.5c0.1-0.1,0.2-0.3,0.2-0.6c0-0.1,0-0.3-0.1-0.5c-0.1,0-0.4,0.1-0.8,0.5
		c-0.5,0.3-0.9,0.6-1.1,1c-0.5,0.4-0.8,0.8-0.9,1.1c-0.2,0.1-0.3,0.2-0.4,0.2c-0.2,0.4-0.5,0.6-0.7,0.6l-0.8,1
		c-0.3,0.2-0.5,0.4-0.8,0.6c-0.4,0.7-0.7,1.1-0.9,1.4c-0.1,0.1-0.1,0.1-0.2,0.1l-0.3,0.4c0,0-0.1,0-0.1,0.1
		c-0.1,0.1-0.1,0.1-0.2,0.1c-0.3,0.4-0.6,0.8-0.8,1.1c-0.3,0.1-0.6,0.4-0.8,0.8c-0.3,0.5-0.5,0.8-0.6,0.9l-0.2,0.8l-0.2,0.4
		l-0.4,0.4l-0.3,0.3l-0.7,0.2c-0.1,0-0.2,0.1-0.5,0.1c-0.2,0-0.3-0.1-0.6-0.2c0-0.1-0.1-0.1-0.1-0.2l-0.2-0.3
		c-0.1-0.3-0.1-0.4-0.1-0.5c0,0,0-0.2,0-0.6c0-0.2,0.1-0.3,0.2-0.5c0.1-0.3,0.2-0.5,0.2-0.6l0.7-2.4l0.6-1.9
		c0.2-0.5,0.2-0.8,0.2-0.9l1.1-3.6c0-0.1,0-0.2,0.1-0.5c0.1-0.2,0.1-0.4,0.1-0.5c0.1-0.3,0.4-1,0.8-2.2c0.4-0.9,0.6-1.7,0.7-2.2
		c0.5-1.3,0.9-2.3,0.9-3.1c0.2-0.6,0.4-0.9,0.3-1c0.1-0.2,0.1-0.4,0.2-0.5l0.1-0.6l0.2-0.4l0.2-0.6c0.2-0.4,0.3-0.9,0.3-1.4
		c0-0.2,0-0.3,0-0.5c0.2-0.8,0.3-1.3,0.5-1.5l0.1-0.3l0.1-0.6c0.4-0.2,0.7-0.3,1-0.3c0.2,0,0.4,0.1,0.5,0.3l0.6,0.1
		c0.1,0.2,0.2,0.3,0.2,0.5c0,0.1-0.1,0.3-0.2,0.7c-0.1,0.4-0.1,0.6-0.1,0.6s0,0,0-0.1c0,0-0.1,0.2-0.1,0.7l-0.3,1.2
		c0,0.2,0,0.5-0.1,0.7l-0.1,0.5l-0.5,1.9c-0.1,0.1-0.1,0.1-0.1,0.1l-1.2,3.9c-0.2,0.3-0.3,0.7-0.5,1.4c-0.2,0.7-0.4,1.1-0.6,1.4
		c-0.8,2.4-1.2,3.8-1.3,4.1c-0.4,1.3-0.7,2.2-0.8,2.5c-0.1,0.6-0.1,1-0.2,1.3c0,0.3,0.1,0.4,0.1,0.4s0.1,0,0.2,0l0.6-0.6
		c0.2-0.2,0.4-0.4,0.4-0.4c0.1-0.1,0.1-0.2,0.2-0.3l0.3-0.2l0.7-0.9l0.3-0.1l0.7-1l0.9-0.9c0.1-0.1,0.2-0.3,0.3-0.3
		c0.1-0.3,0.4-0.6,0.9-1.1c0.5-0.4,0.8-0.8,0.9-1.1l1.4-1.3c0.2-0.2,0.3-0.4,0.5-0.5c0.7-0.4,1.2-0.7,1.3-0.8
		c0.1-0.1,0.1-0.1,0.2-0.1l0.8,0.1l0.3,0.1l0.7,1.4c0,0.3,0.1,0.6,0.1,0.8c0,1-0.1,2-0.4,3.2c-0.5,0.9-0.9,1.8-1.1,2.8
		c-0.1,0.1-0.2,0.4-0.3,0.9c-0.1,0.4-0.2,0.7-0.3,0.9l-0.4,1.9l-0.2,1.8c0.1,0.1,0.1,0.1,0.1,0.2l0.1,1v0.5l0.2,0.6l0.7,0.8
		c-0.1,0.2-0.2,0.3-0.2,0.4l-1.5,0.6c-0.3-0.2-0.4-0.3-0.5-0.4c-0.2-0.2-0.4-0.3-0.5-0.4L276,208c-0.2-0.2-0.3-0.3-0.3-0.4l-0.3-1.5
		c-0.1-0.1-0.2-0.2-0.2-0.3c0-0.2,0.1-0.3,0.2-0.6c-0.1-0.2-0.1-0.4,0-0.8c0.1-0.2,0.1-0.4,0.1-0.4l0.2-0.7l0.1-0.7
		c0.1-0.2,0.1-0.3,0.1-0.4l0.4-1.6c0.1-0.2,0.2-0.4,0.3-0.4c0-0.3,0.1-0.7,0.2-1.1c0.2-0.6,0.3-1,0.4-1.1c0.1-0.4,0.2-0.7,0.3-1
		c0.1-0.1,0.1-0.3,0.1-0.6C277.4,196.1,277.4,195.9,277.5,195.9"/>
	<path class="st0" d="M290.2,184.5l-0.2,0.4l-1.2,1c-0.1,0.1-0.1,0.2-0.2,0.3c-0.1,0-0.3,0.1-0.4,0.1l-1.4-1.1l-0.7-1.1v-0.8
		l0.7-0.4l0.2-0.3l0.8-0.1l1.5,0.5l0.7,1.4C290.1,184.4,290.2,184.4,290.2,184.5 M282.2,200.6L282.2,200.6l1.9-3.8
		c0-0.1,0.2-0.4,0.6-1l0.3-0.7c0-0.1,0.1-0.1,0.1-0.2l0.1-0.1l0,0c0.4-0.5,0.5-0.9,0.4-1.4c0.1-0.1,0.1-0.2,0.1-0.3l0.1-0.1l0.2-0.4
		v-0.1v-0.2c0-0.2,0.1-0.2,0.1-0.3l0.7-0.6c0.1,0,0.3,0,0.6,0.1l0.3-0.1l0.6,0.2l0.4,1.2l0.1,0.1l-0.2,0.4l-0.3,0.3l-0.6,1l-0.8,1.1
		c-0.1,0-0.2,0.1-0.2,0.2c-0.2,0.5-0.3,0.8-0.3,0.9l-0.5,0.7c-0.2,0.3-0.3,0.5-0.4,0.7c-1.1,2.2-1.8,3.6-1.8,4.2l-0.3,0.9l-0.7,2.1
		l-0.2,1.9l-0.4,0.5l-0.4,0.1l-0.7,0.3c-0.2-0.1-0.4-0.2-0.4-0.4l-0.4-0.3c-0.1-0.1-0.1-0.2-0.1-0.4c0.1-0.6,0.2-1.1,0.2-1.4
		l0.7-2.2c0-0.1,0.1-0.3,0.3-0.7c0-0.1,0.1-0.2,0.1-0.3c0,0,0-0.1,0.1-0.1l0.5-1.6C282.1,200.7,282.1,200.7,282.2,200.6"/>
	<path class="st0" d="M288.3,206c0-0.2,0-0.4,0.1-0.4l0.1-0.4c0.1-0.4,0.1-0.7,0.1-0.7l0.2-0.4l0.1-1c0.1-0.2,0.1-0.4,0.2-0.6
		l0.5-2.2l0.3-1.3l0.3-1.5l0.3-0.5l0.1-1.7l0.2-0.6c0-0.3,0-0.5,0.1-0.7l0.3-2l0.6-0.1c0.1,0,0.2,0,0.3-0.1c0.2-0.1,0.3-0.1,0.4-0.1
		c0.8,0.3,1.3,0.7,1.7,1.3v0.3c-0.2,0.4-0.3,0.6-0.4,0.6c-0.1,0.3-0.2,0.5-0.2,0.6c0,0.2-0.1,0.4-0.4,0.8c0,0.2-0.1,0.5-0.2,1
		c-0.1,0.5-0.2,0.8-0.2,1c-0.1,0.2-0.1,0.2-0.2,0.3l-0.4,1.8c0.1,0.2,0,0.4-0.2,0.7c0,0.5-0.1,1.1-0.4,1.8c-0.1,0.3-0.1,0.6-0.1,0.8
		l0.3,0.2l1.9-1.5l1.2-0.9c0.1-0.1,0.1-0.2,0.1-0.2l0.4-0.2c0.3-0.4,0.6-0.7,0.9-0.8c0.7-0.6,1.3-1.2,1.8-1.6l0.2-0.2
		c0.2-0.2,0.4-0.3,0.4-0.3h0.2l1.1-0.7l2.5-0.8c0.6,0.1,0.9,0.1,1,0.2l0.5,0.3c0.4,0.4,0.7,0.8,0.9,1.2c0.1,0.2,0.2,0.6,0.4,1.4
		c0.1,0.4,0.2,0.9,0.2,1.6s0,1.3,0.1,1.6l-0.1,0.6c0.1,0.1,0.1,0.2,0.1,0.2c-0.1,0.7-0.1,1.1-0.1,1.3c0.2,1.1,0.2,1.8,0.3,2.1v0.6
		l0.2,1.1l0.6,1.3l0.4,0.3l0.2,0.7l-0.3,0.3c-0.2,0.1-0.4,0.1-0.5,0.1l-0.1,0.1l-1.8-0.3c-0.1-0.2-0.1-0.3-0.2-0.3l-0.5-1.3
		l-0.4-0.7l-0.1-0.9l-0.2-1.1l-0.1-0.7c-0.1-0.7-0.1-1.1-0.1-1.2c0-0.2,0-0.4,0.1-0.6c-0.1-0.2-0.1-0.6,0-1.1c0.1-0.5,0-0.8,0-1.1
		c-0.2-1.5-0.5-2.5-0.7-2.7c-0.1-0.4-0.4-0.6-0.9-0.6c-0.5,0.2-0.9,0.3-1.1,0.3c-0.6,0.4-1,0.7-1.3,0.8l-1.2,0.9
		c0,0.1-0.1,0.2-0.1,0.3l-0.7,0.5c-0.5,0.3-1,0.8-1.4,1.3c-0.2,0.1-0.5,0.3-0.9,0.7c-0.4,0.4-0.7,0.6-0.9,0.7l-0.2,0.3l-1.4,1
		l-0.9,0.8l-0.5,0.2l-0.8,0.7l-0.1,0.1l-0.7-0.1L288.3,206z"/>
	<path class="st0" d="M311,204.9c0.1-0.1,0.5-0.5,1-1l0.5-0.6l0.4-0.6c0-0.1,0.1-0.2,0.3-0.5l0.3-0.5c0,0,0.1,0,0.2-0.1
		c0.1-0.4,0.4-0.7,0.7-1.1c0.3-0.8,0.5-1.3,0.7-1.7c0.1-0.1,0.1-0.1,0.2-0.2l0.3-1.3c0,0,0,0-0.1-0.2l-0.5,0.4c-0.1,0-0.1,0-0.1-0.1
		s0.1-0.2,0.2-0.3l0.5-0.7c0-0.1,0.1-0.3,0.3-0.7l0.1-1c-0.2-0.8-0.6-1.3-1.2-1.6c-0.1-0.1-0.1-0.1-0.2-0.1l-1,0.4
		c-0.1,0.1-0.2,0.2-0.4,0.2l-0.6,0.7c-0.1,0.1-0.1,0.1-0.2,0.1l-1,1.7c-0.3,0.3-0.5,0.6-0.6,0.8c-0.5,1.1-0.8,1.7-0.9,1.9l-0.8,2.5
		c0,0.2,0,0.6-0.1,1c-0.1,0.5-0.1,0.8-0.1,1c0,0.3,0.1,0.6,0.2,0.8l0.3,1.1c0.1,0.1,0.2,0.2,0.4,0.1
		C310.2,205.5,310.6,205.3,311,204.9 M312,214.3c0.1-0.7,0.3-1.1,0.5-1.2c0-0.1,0-0.2,0.1-0.6l0.1-0.5l0.3-0.8c0,0,0.1-0.1,0.1-0.3
		l0.3-1.1c0.1-0.2,0.2-0.3,0.2-0.4l0.2-0.6l0.3-1.5l0.3-0.8c-0.2,0-0.4,0.1-0.7,0.2l-0.8,0.9l-0.3,0.6l-0.3,0.3
		c0,0.1-0.1,0.2-0.2,0.3c-0.2,0.1-0.4,0.3-0.6,0.6c-0.1,0.1-0.2,0.2-0.2,0.3c0,0.1,0,0.1,0.1,0.1c-0.3,0.4-0.5,0.7-0.5,0.9
		c-0.1,0.2-0.3,0.4-0.6,0.7c0,0.1,0,0.2-0.2,0.3c-0.2,0.5-0.3,0.9-0.4,1.2l-0.6,1.2c-0.2,0.3-0.3,0.6-0.4,0.9l-0.5,1.3
		c0,0,0,0.1-0.1,0.2c-0.1,0.1-0.1,0.2-0.1,0.2c0,0.1-0.1,0.4-0.3,0.8c-0.2,0.4-0.2,0.7-0.2,0.8c-0.4,1.4-0.6,2.5-0.6,3.2
		c0.1,0.1,0.1,0.1,0.1,0.2c-0.1,0.3-0.1,0.6-0.1,0.8c0.2,0.4,0.2,0.7,0.2,1h0.1l0.9-1.3l0.4-0.7l0.2-0.6l0.4-0.6l0.4-0.7
		c0-0.4,0.1-0.6,0.2-0.7c0.3-0.7,0.5-1.1,0.6-1.1c0.2-0.5,0.3-0.8,0.4-0.9c0.3-0.2,0.4-0.4,0.3-0.7l0.1-0.2L312,214.3z M309.8,222.9
		l-1.1,1.8c-0.1,0.5-0.3,0.8-0.6,0.8c-0.1,0.2-0.2,0.3-0.3,0.3l-0.3,0.3l-0.5,0.3h-0.1c-0.2,0-0.4-0.1-0.6-0.1l-0.6-0.3
		c-0.1-0.1-0.2-0.2-0.2-0.3c0-0.3,0-0.6-0.1-0.8c0.1-0.1,0-0.4-0.2-0.9v-1.4l0.1-1.1l0.3-1.5l0.3-1c0-0.1,0.1-0.5,0.3-1.1
		c0.2-0.5,0.3-0.8,0.3-0.9c0.1-0.4,0.3-0.6,0.4-0.8c0.2-0.8,0.4-1.3,0.4-1.4c0.2-0.4,0.4-0.7,0.5-1l0.9-2.1l0.8-1.2
		c0.2-0.6,0.4-0.9,0.7-1.1l0.2-0.6c0.1-0.2,0.2-0.3,0.2-0.4l0.2-0.3c0.3-0.3,0.4-0.5,0.6-0.7l1.8-1.9c0.2-0.1,0.3-0.3,0.4-0.4
		l0.4-0.2c0.1-0.1,0.2-0.2,0.2-0.3c0.1-0.1,0.2-0.1,0.2-0.1c0.1-0.1,0.2-0.3,0.5-0.5l0.2-0.8l0.2-1.2l-0.1,0.1
		c-0.2,0.2-0.2,0.3-0.2,0.3l-0.7,1.2c-0.3,0.3-0.6,0.6-0.8,0.8c0,0.1,0,0.2-0.2,0.2l-0.7,0.9c-0.1,0.2-0.2,0.4-0.3,0.4
		c-0.2,0.3-0.4,0.4-0.5,0.5c-0.4,0.2-0.7,0.4-0.8,0.5c-0.8,0.5-1.7,0.7-2.6,0.7c-0.5-0.1-0.9-0.6-1.1-1.4c-0.1-0.1-0.1-0.1-0.2-0.2
		v-0.3v-0.3v-0.7v-0.9l0.2-2c0-0.1-0.1-0.1-0.1-0.1c0.1,0,0.2-0.1,0.3-0.2c0-0.1,0-0.2,0-0.4c0-0.2,0.1-0.6,0.2-1
		c0.2-0.4,0.2-0.8,0.2-1c0,0,0-0.1,0.1-0.3c0.1-0.2,0.1-0.3,0.1-0.3l0.2-0.5l0.1-0.5l0.1-0.3l0.1-0.4l0.7-1.2l0.8-1l0.7-1
		c0.2-0.3,0.3-0.5,0.4-0.5l0.5-0.6l0.9-0.8c0.3-0.1,0.5-0.3,0.7-0.3c0.7-0.2,1.4-0.4,1.9-0.5l0.3,0.1l0.3-0.1c0.6,0,1.1,0.2,1.6,0.5
		c0.1,0.1,0.2,0.4,0.2,0.7c0,0,0,0.1,0.1,0.2c0.1,0.1,0.1,0.2,0.1,0.3l0.2,1.7v0.9c0,0.1,0.1,0.2,0.1,0.4c0,0.4,0,0.7-0.1,0.9
		c0,0.2,0,0.4,0,0.5l-0.2,1.1c-0.1,0.1-0.1,0.4-0.1,0.8c0,0,0,0.3-0.1,0.7c-0.1,0.4-0.1,0.7-0.1,0.8v1.3c0,0,0.1,0,0.3,0
		c0.3-0.2,0.5-0.3,0.6-0.3l0.6-0.2l0.6-0.2l0.6-0.2c0.2-0.1,0.4-0.1,0.6-0.2l0.7,0.4c-0.1,0.3-0.6,0.6-1.6,0.9l-0.8,0.5
		c-0.1,0.1-0.3,0.2-0.5,0.3l-0.7,0.3c-0.3,0.4-0.6,0.6-0.8,0.7l-0.2,0.3l-0.2,1c-0.1,0.1-0.2,0.3-0.2,0.7c-0.1,0.1-0.1,0.2-0.1,0.4
		l-0.3,0.8c0,0.3-0.1,0.4-0.1,0.5c0,0.3-0.2,0.7-0.4,1.1c-0.2,0.8-0.5,1.4-0.6,1.8l-0.2,1l-0.5,1.1l-0.2,0.6l-0.1,0.4
		c-0.1,0.2-0.1,0.4-0.2,0.4c-0.2,0.5-0.4,1-0.5,1.3c0,0.2-0.1,0.5-0.3,1L309.8,222.9z"/>
	<path class="st0" d="M334.4,206c0-0.2,0-0.4,0.1-0.4l0.1-0.4c0.1-0.4,0.1-0.7,0.1-0.7l0.2-0.4l0.1-1c0.1-0.2,0.1-0.4,0.2-0.6
		l0.5-2.2l0.3-1.3l0.3-1.5l0.3-0.5l0.1-1.7l0.2-0.6c0-0.3,0-0.5,0.1-0.7l0.3-2l0.6-0.1c0.1,0,0.2,0,0.3-0.1c0.2-0.1,0.3-0.1,0.4-0.1
		c0.8,0.3,1.3,0.7,1.7,1.3v0.3c-0.2,0.4-0.3,0.6-0.4,0.6c-0.1,0.3-0.2,0.5-0.2,0.6c0,0.2-0.1,0.4-0.4,0.8c0,0.2-0.1,0.5-0.2,1
		c-0.1,0.5-0.2,0.8-0.2,1c-0.1,0.2-0.1,0.2-0.2,0.3l-0.4,1.8c0.1,0.2,0,0.4-0.2,0.7c0,0.5-0.1,1.1-0.4,1.8c-0.1,0.3-0.1,0.6-0.1,0.8
		l0.3,0.2l1.9-1.5l1.2-0.9c0.1-0.1,0.1-0.2,0.1-0.2l0.4-0.2c0.3-0.4,0.6-0.7,0.9-0.8c0.7-0.6,1.3-1.2,1.8-1.6l0.2-0.2
		c0.2-0.2,0.4-0.3,0.4-0.3h0.2l1.1-0.7l2.5-0.8c0.6,0.1,0.9,0.1,1,0.2l0.5,0.3c0.4,0.4,0.7,0.8,0.9,1.2c0.1,0.2,0.2,0.6,0.4,1.4
		c0.1,0.4,0.2,0.9,0.2,1.6s0,1.3,0.1,1.6l-0.1,0.6c0.1,0.1,0.1,0.2,0.1,0.2c-0.1,0.7-0.1,1.1-0.1,1.3c0.2,1.1,0.2,1.8,0.3,2.1v0.6
		l0.2,1.1l0.6,1.3l0.4,0.3l0.2,0.7l-0.3,0.3c-0.2,0.1-0.4,0.1-0.5,0.1l-0.1,0.1l-1.8-0.3c-0.1-0.2-0.1-0.3-0.2-0.3l-0.5-1.3
		l-0.4-0.7l-0.1-0.9l-0.2-1.1l-0.1-0.7c-0.1-0.7-0.1-1.1-0.1-1.2c0-0.2,0-0.4,0.1-0.6c-0.1-0.2-0.1-0.6,0-1.1s0-0.8,0-1.1
		c-0.2-1.5-0.5-2.5-0.7-2.7c-0.1-0.4-0.4-0.6-0.9-0.6c-0.5,0.2-0.9,0.3-1.1,0.3c-0.6,0.4-1,0.7-1.3,0.8l-1.2,0.9
		c0,0.1-0.1,0.2-0.1,0.3l-0.7,0.5c-0.5,0.3-1,0.8-1.4,1.3c-0.2,0.1-0.5,0.3-0.9,0.7c-0.4,0.4-0.7,0.6-0.9,0.7l-0.2,0.3l-1.4,1
		l-0.9,0.8l-0.5,0.2l-0.8,0.7l-0.1,0.1l-0.7-0.1L334.4,206z"/>
	<path class="st0" d="M359.6,197l0.9-0.5c0.5-0.4,0.8-0.8,0.9-1.1l0.6-0.7l0.3-0.1c0.1-0.3,0.2-0.5,0.2-0.7c0-0.1,0-0.2-0.1-0.3
		l-0.4-0.2c-0.1,0-0.3,0-0.4,0l-0.8,0.3l-1,0.4c-0.2,0.2-0.9,0.9-2.1,2c-0.1,0.1-0.3,0.4-0.5,0.7c-0.1,0.2-0.2,0.4-0.3,0.6l-0.4,0.5
		l-0.4,0.7l-0.3,0.4l-0.1,0.6c0.2,0,0.4-0.1,0.6-0.3l0.3-0.1l0,0l1.9-1.2C359.3,197.3,359.6,197,359.6,197 M366,204l-0.1,0.3
		c-0.1,0.1-0.1,0.2-0.3,0.3l-0.4,0.3l-0.3,0.2c-0.4,0.2-1.1,0.7-2.2,1.6l-1,0.5l-1.4,0.5c-0.1,0.1-0.4,0.2-1,0.5
		c-0.1,0-0.4,0.1-0.9,0.3h-1.8l-1.6-0.7c-0.1-0.1-0.1-0.2-0.2-0.2l-0.3-0.3l-0.8-0.8c-0.2-0.4-0.4-0.6-0.4-0.8
		c0-0.1-0.1-0.2-0.3-0.5l-0.2-1.5l0.2-2.2v-0.3l0.2-0.6l0.4-1.1l1.4-2.6l0.5-1.1c0.1-0.2,0.3-0.4,0.5-0.6l0.5-0.5
		c0.1-0.1,0.3-0.3,0.6-0.6c0.1-0.1,0.2-0.3,0.6-0.6c0.1,0,0.2-0.1,0.3-0.3c0,0,0-0.1,0.1-0.1l1.4-0.8l1-0.5c0.1,0,0.2-0.1,0.4-0.2
		c0.7-0.1,1.2-0.2,1.5-0.3c1.2,0,2,0.3,2.5,0.9c0,0.1,0.1,0.4,0.4,0.7l-0.1,0.9l-0.1,0.4l-0.5,0.7l-0.4,0.7l-0.5,0.5
		c-0.1,0.1-0.2,0.3-0.5,0.4c0,0.1-0.1,0.1-0.3,0.3l-0.5,0.4c0,0-0.6,0.4-1.7,1.2l-0.2,0.3c-0.7,0.2-1.4,0.7-2.1,1.5
		c-0.5,0.3-0.9,0.6-1,0.8c-0.1,0-0.2,0.1-0.3,0.2l-0.5,0.1l-1,0.5c0,0.5,0,0.8,0,0.8c0,0.5,0.2,1.1,0.4,2c0.1,0.3,0.2,0.4,0.2,0.5
		c0.4,0.4,0.7,0.8,1,1c0.1,0,0.1,0,0.3,0.1c0.1,0.1,0.2,0.1,0.3,0.1l0.5,0.1c0.1,0,0.2,0,0.3,0l0.9-0.2c0.9-0.4,2.2-0.9,3.9-1.7
		l0.5-0.2c0.3-0.1,0.4-0.2,0.4-0.2l1-0.6l0.2-0.3l0.2-0.3l0.4,0.2C366,203.3,366.1,203.5,366,204"/>
	<path class="st0" d="M387.1,199.2c-0.1,0.2-0.2,0.4-0.3,0.4l-0.2,0.6l-0.2,0.3l-0.1,0.3l-1.5,2.2l-0.3,0.2
		c-0.2,0.6-0.7,1.1-1.3,1.6c-0.3,0.2-0.6,0.4-0.7,0.6c0,0.1-0.1,0.2-0.2,0.2l-0.3,0.2c-0.4,0.2-0.6,0.2-0.8,0.2l-1,0.2
		c-0.1,0-0.2,0-0.3,0s-0.2,0-0.3,0h-0.3c-0.2,0-0.4-0.1-0.7-0.2s-0.5-0.2-0.6-0.2l-0.2-0.2c-0.1,0-0.2,0-0.2-0.1
		c-0.1,0-0.2-0.1-0.3-0.2l-0.4-0.6l-0.4-0.8c0-0.2,0-0.3-0.1-0.3l-0.1-0.3l-0.1-0.4l-0.2-0.8c-0.1,0.2-0.2,0.3-0.3,0.3l-0.2,0.4
		c-0.1,0.1-0.2,0.2-0.3,0.3c-0.1,0.4-0.5,1-1,1.7c-0.6,0.7-0.9,1.3-1.1,1.7l-0.3,0.2l-2,1.4l-0.2,0.1c-0.1,0-0.2,0.1-0.4,0.1
		c-0.2,0.1-0.5,0.1-0.8,0.1h-0.9l-0.1-0.2c-0.2,0-0.4-0.1-0.6-0.3l-0.5-0.5c-0.2-0.4-0.3-0.7-0.4-0.9v-1.2c0-0.1-0.1-0.1-0.1-0.2
		l-0.1-1c0-0.2,0-0.3,0-0.3v-1.1v-0.8l0.1-0.7c0-0.1,0-0.1,0-0.2s0-0.2,0.1-0.4v-0.9l0.3-0.8l-0.1-0.6l0.2-1.8c0,0,0-0.1,0.1-0.2
		v-0.4l0.1-0.9c0-0.1,0-0.4,0.1-0.8c0.1-0.3,0.1-0.6,0-0.8l0.2-0.5l0.1-0.4l0.6-0.7l0.5-0.3c0.1,0,0.2-0.1,0.4-0.2
		c0,0,0.1,0,0.1,0.1c0.1,0,0.1,0.1,0.1,0.1l0.4,0.3l0.3,0.6c0,0.2,0,0.7-0.2,1.5v-0.1c0,0.9-0.1,1.5-0.3,1.8c0,0.3-0.1,0.7-0.3,1.2
		c-0.2,0.6-0.3,1-0.3,1.2l-0.4,3.4l0.1,3c-0.1,0.5,0.1,0.7,0.4,0.9c0.1,0.3,0.3,0.4,0.7,0.3l1.2-0.1c0.2-0.2,0.4-0.3,0.6-0.5
		c0.1-0.1,0.1-0.1,0.2-0.1c0.1-0.1,0.1-0.2,0.1-0.3l0.7-0.8c0.2-0.2,0.6-0.7,1.2-1.6l0.3-0.4c0.2-0.5,0.4-0.8,0.5-1l0.2-0.3l0.3-0.6
		l0.3-0.7l0.1-0.5c0-0.1,0-0.2,0.1-0.3c0.1-0.1,0.1-0.2,0.1-0.2l0.7-3.2v-0.3l0.1-0.4c0.1-0.2,0.2-0.3,0.2-0.3c0-0.1,0-0.2,0.1-0.2
		c0.1-0.1,0.1-0.2,0.2-0.2l0.6-0.3l0.8-0.1l0.5,0.8c-0.4,0.9-0.6,1.7-0.7,2.3c-0.2,0.5-0.3,1-0.3,1.2s-0.1,0.5-0.2,0.9
		c-0.1,0.4-0.2,0.7-0.2,0.9c0,0.2,0,0.3,0,0.3c0,0.1,0,0.1-0.1,0.2c0,1.2,0.1,2,0.2,2.3l0.1,0.3l0.2,0.2l0.3,0.6l0.2,0.2
		c0.1,0,0.1,0.1,0.2,0.1c0.3,0.3,0.8,0.4,1.4,0.4c0.1,0,0.3,0,0.4-0.1h0.7c0.3-0.4,0.6-0.7,1-0.8c1.3-1.2,2.2-2.4,2.5-3.5l0.2-0.4
		c0-0.1,0-0.3,0.2-0.6l0.2-1.4c0.2-1.1,0.2-2.1,0.2-2.7c0.2-0.3,0.4-0.5,0.5-0.6l1.1-0.5c0.4,0.1,0.6,0.1,0.7,0.3l0.2,0.8
		c0,0.1,0,0.2,0,0.3c0-0.2,0-0.2-0.1,0.2c0,0.4-0.1,0.6,0,0.7L387.1,199.2z"/>
	<path class="st0" d="M389.6,207.5c-0.1-0.1-0.4-0.4-0.8-0.7c-0.4-0.3-0.6-0.5-0.7-0.8l0.2-0.1c0.1,0,0.1-0.1,0.1-0.2l0.3-0.6
		l1.1-0.3c0.4-0.1,0.8-0.3,1-0.4l0.9,0.2l0.1,0.2c0.2,0,0.3,0.1,0.3,0.1v0.3c-0.1,0.1-0.2,0.2-0.2,0.5c0,0.1,0,0.2,0,0.4
		c-0.1,0.1-0.4,0.4-0.9,0.9c-0.4,0.4-0.7,0.6-1.1,0.7L389.6,207.5z"/>
</g>
<g>
	<path class="st0" d="M442.5,63.7c3.8,0,6.9,3,6.9,6.9c0,4-3.1,6.9-6.9,6.9c-3.8,0-6.9-3-6.9-6.9C435.5,66.6,438.7,63.7,442.5,63.7z
		 M442.5,76.4c3.2,0,5.7-2.5,5.7-5.9c0-3.3-2.5-5.8-5.7-5.8s-5.7,2.5-5.7,5.8C436.8,73.9,439.3,76.4,442.5,76.4z M439.8,66.5h3.1
		c1.9,0,2.8,0.8,2.8,2.3s-0.9,2.1-2.1,2.2l2.3,3.6h-1.3l-2.2-3.5h-1.3v3.5h-1.3V66.5z M441,70.1h1.3c1.1,0,2.1-0.1,2.1-1.3
		c0-1.1-0.9-1.2-1.8-1.2h-1.7v2.5H441z"/>
</g>
</svg>
