<svg data-name="Component 22 – 2" xmlns="http://www.w3.org/2000/svg" width="177.836" height="43.955">
  <g data-name="Digizent Logo">
    <g data-name="Group 39">
      <path data-name="Path 1" d="M4.443 34.778c-1.378 0-2.8.115-3.37.115-.766 0-1.072-.345-1.072-.8 0-1.455 2.566-.5 2.566-3.064V11.454c0-2.566-2.566-1.647-2.566-3.1 0-.46.306-.8 1.072-.8.575 0 1.992.115 3.37.115 2.03 0 4.06-.115 6.09-.115 9.651 0 15.779 6.128 15.779 14.171 0 7.966-6.166 13.175-14.975 13.175-2.298-.007-4.596-.122-6.894-.122Zm6.626-1.991c7.047 0 11.03-4.673 11.03-11.49 0-6.549-4.213-11.6-11.6-11.6h-.618c-2.757 0-3.485.5-3.485 1.838v19.38c0 1.417.766 1.877 3.485 1.877Z" fill="#003a5d" />
      <path data-name="Path 2" d="M80.946 29.416a4.7 4.7 0 0 1-.5 1.57l-1.34 3.025c-.23.575-.613 1.456-1.341 1.456-.766 0-.881-.689-1.838-.689h-8.5c-1.3 0-2.719.115-3.332.115-.8 0-1.073-.345-1.073-.8a1.556 1.556 0 0 1 .421-.919l11.6-15.2h-4.136c-2.106 0-3.562.8-5.247 2.758-.421.536-.766.8-1.187.8a.707.707 0 0 1-.689-.766 3.791 3.791 0 0 1 .46-1.532l1.226-2.719c.268-.574.536-1.226 1.226-1.226.766 0 .843.689 1.762.689h7.085c1.379 0 2.719-.115 3.294-.115.8 0 1.111.306 1.111.8a1.207 1.207 0 0 1-.269.727l-11.681 15.4h4.366c2.911 0 4.749-1 6.664-3.371.345-.422.69-.8 1.149-.8a.755.755 0 0 1 .769.797Z" fill="#003a5d" />
      <path data-name="Path 3" d="M99.556 30.794a1.965 1.965 0 0 1-.345.919c-1.417 2.03-4.749 3.753-8.081 3.753-5.209 0-9.613-3.638-9.613-10.034 0-6.013 4.4-10.188 9.422-10.188a7.573 7.573 0 0 1 7.851 7.353c0 .8-.23 1.034-.8 1.226L85.696 27.5c1.034 3.141 3.523 5.362 6.7 5.362a7.211 7.211 0 0 0 5.4-2.375 1.517 1.517 0 0 1 1-.575.824.824 0 0 1 .76.882Zm-14.439-6.779a9.93 9.93 0 0 0 .115 1.532l8.847-2.758c.689-.192.881-.383.881-1.034a4.562 4.562 0 0 0-4.52-4.29c-3.025.001-5.323 2.606-5.323 6.551Z" fill="#003a5d" />
      <path data-name="Path 4" d="M121.578 34.127c0 .536-.459.766-1.072.766-1 0-1.8-.115-3.332-.115-1.57 0-2.26.115-3.294.115-.689 0-1.073-.345-1.073-.8 0-1.379 2.566-.46 2.566-2.834 0-.307-.077-.766-.115-1.149l-.919-6.473c-.306-1.953-1-5.171-4.022-5.171-2.3 0-4.787 1.839-4.787 5.745v6.473c0 3.1 2.49 1.992 2.49 3.447a.787.787 0 0 1-.843.766c-.842 0-1.991-.115-3.37-.115-1.34 0-2.413.115-3.217.115a.813.813 0 0 1-.919-.766c0-1.455 2.413-.344 2.413-3.447v-9.387c0-2.374-2.719-1.072-2.719-2.566 0-.613.689-1.034 2.681-1.992 1.953-.958 2.375-1.072 2.681-1.072.613 0 .8.5.8 1.341v2.259a7.13 7.13 0 0 1 6.166-3.715c4.558 0 5.668 4.443 6.09 7.583l1 7.162c.458 3.601 2.795 2.337 2.795 3.83Z" fill="#003a5d" />
      <path data-name="Path 5" d="M133.614 31.56a2.342 2.342 0 0 1-.766 1.494 7.131 7.131 0 0 1-5.324 2.145c-2.949 0-5.017-1.647-5.017-3.6 0-.8.076-3.753.076-6.4v-7.2h-2.489c-.69 0-1.11-.306-1.11-.881 0-.5.383-.8 1-1.072 2.3-.958 3.332-2.336 4.213-5.822.345-1 .574-1.455 1.149-1.455.421 0 .689.306.689 1v6.2h6.549c.421 0 .651.192.651.536a6.111 6.111 0 0 1-.115.881.644.644 0 0 1-.689.613h-6.4v11.107c0 2.834 1.11 3.677 2.681 3.677a4.7 4.7 0 0 0 3.217-1.571 1.469 1.469 0 0 1 .919-.5.787.787 0 0 1 .766.848Z" fill="#003a5d" />
      <path data-name="Path 6" d="M59.655 30.68V16.093c0-.843-.192-1.341-.8-1.341-.306 0-.728.115-2.681 1.072-1.992.958-1.785 1.379-1.785 1.992 0 1.494 1.9.821 1.823 3.023v9.841c0 2.4-1.445 2.279-2.1 2.776q.229.148.438.31a5.111 5.111 0 0 1 1.05 1.1c.658-.034 1.434-.085 2.334-.085 1.378 0 2.528.115 3.37.115a.786.786 0 0 0 .842-.766c-.002-1.458-2.491-.347-2.491-3.45Z" fill="#003a5d" />
      <path data-name="Path 7" d="M26.697 34.127c0-1.455 2.413-.344 2.413-3.447v-9.84c.082-2.2-1.823-1.53-1.823-3.023 0-.613-.207-1.034 1.785-1.992 1.953-.958 2.375-1.072 2.681-1.072.613 0 .8.5.8 1.341V30.68c0 3.1 2.489 1.992 2.489 3.447a.786.786 0 0 1-.842.766c-.843 0-1.992-.115-3.37-.115-1.341 0-2.413.115-3.217.115a.813.813 0 0 1-.916-.766Z" fill="#003a5d" />
      <g data-name="Group 1">
        <path data-name="Path 8" d="M55.58 37.701c0 3.657-4.247 6.253-10.58 6.253-6.214 0-10.462-2.006-10.462-4.995 0-1.652 1.18-3.146 3.225-4.09a2.989 2.989 0 0 1-2.32-2.831c0-1.455 1.416-2.753 2.832-3.658a5.6 5.6 0 0 1-2.95-4.955c0-3.736 3.3-6.883 9.242-6.883a14.125 14.125 0 0 1 1.848.118c.512-3.461 2.714-5.152 3.933-5.152a5.7 5.7 0 0 1 3.068 1.023c.472.315.865.669.865 1.14s-.315.865-1.1.865c-2.242 0-4.4.236-4.955 2.478 3.146.9 5.073 2.989 5.073 5.86 0 3.658-3.225 6.843-9.2 6.843a13.938 13.938 0 0 1-4.012-.55c-.747.472-1.455.944-1.455 1.652 0 .669.629.944 2.124 1.1 3.54.432 7.394.787 8.731.944 3.812.352 6.093 2.046 6.093 4.838Zm-3.5 1.062c0-1.416-1.3-2.242-3.972-2.556-2.714-.275-5.27-.55-7.866-.865A3.768 3.768 0 0 0 38 38.567c0 2.32 2.6 3.461 7.158 3.461 4.287-.001 6.922-1.652 6.922-3.265Zm-13.018-15.81c0 2.95 2.32 4.8 5.428 4.8 2.95 0 5.073-1.691 5.073-4.444 0-2.91-2.36-4.8-5.428-4.8-2.949 0-5.073 1.73-5.073 4.444Z" fill="#003a5d" />
      </g>
      <g data-name="Digizent Mark">
        <g data-name="Group 38">
          <path data-name="Path 77" d="m163.821 15.945-24.345 25.986v.027h15.243c12.6 0 23.06-4.725 23.117-21.036a28.819 28.819 0 0 0-.414-4.978Z" fill="#37c8dc" />
          <path data-name="Path 78" d="M172.825 6.334C168.4 1.693 161.525 0 154.156 0h-14.68v15.945h24.345Z" fill="#0090b0" />
          <path data-name="Path 79" d="M139.476 15.945v25.986l24.345-25.986Z" fill="#003a5d" />
          <path data-name="Path 80" d="M177.421 15.95v-.023a18.153 18.153 0 0 0-4.336-9.317c-.084-.092-.171-.181-.257-.271l-9 9.611Z" fill="#df1683" />
        </g>
      </g>
    </g>
  </g>
</svg>