<svg xmlns="http://www.w3.org/2000/svg" viewBox="0 0 987.4 1080" style="enable-background:new 0 0 987.4 1080">
    <style>.st1{display:inline;fill:#606060}.st6{fill:#fdf6e7}.st7{fill:#003462}.st8,.st9{fill:#fff}.st9{opacity:.6}.st10,.st11{opacity:.45;fill:#fff}.st11{opacity:.3}.st12{opacity:.6}</style>
    <g id="Logos">
        <path d="M626.6 410.4 0 1079.3v.7h392.3c324.3 0 593.6-121.6 595-541.5 0-46.3-3.8-88.8-10.7-128.1h-350z" style="fill:#37c8dc" />
        <path d="M858.4 163C744.5 43.6 567.5 0 377.9 0H0V410.4h626.6L858.4 163z" style="fill:#0090b0" />
        <path style="fill:#003a5d" d="M0 410.4v668.9l626.6-668.9z" />
        <path d="M976.7 410.4c0-.2-.1-.4-.1-.6C958.9 308.9 919.7 230.1 865 170c-2.2-2.4-4.4-4.7-6.6-7L626.6 410.4h350.1z" style="fill:#df1683" />
    </g>
</svg>