<svg xmlns="http://www.w3.org/2000/svg" xml:space="preserve" id="a" x="0" y="0"
  style="enable-background:new 0 0 1119 959" version="1.1" viewBox="0 0 1119 959"><style>.st0{fill:none}.st1{fill:#003c5b}</style><path d="M719.2 756.3c4.1 3.5 4.7 3.8 9 4.7-.1.5-.4 1.1-.2 1.4.6.7 1.3 1.2 2.1 1.7 2.2 1.3 4.3 2.6 6.6 3.7s4.3 3.2 7.2 3c.2 0 .6.4.8.7.8 1.8 2.7 2.3 4.2 3.2 10.5 6.4 20.4 13.5 28.5 22.9.6.7 1.1 1.4 1.6 2.1.9-.5 1.3-.7 1.9-1.1-.6-1-1.1-2-1.7-2.8-4.7-6.2-8.5-12.9-12.1-19.7-2.5-4.8-5.1-9.5-7.6-14.3-5.8-11-11.6-21.9-17.5-32.8-3.3-6.2-7.2-12-12-17.2-1.8-2-3.7-3.9-5.9-5.5-8.2-6.3-17.5-3.8-21.7 5.6-.5 1.1-.9 2.4-1.2 3.6-1.6 5.4-1.1 10.7 1 15.8 3.7 9.5 9 18.2 17 25zm31.5 4.4v.3H744v-.3h6.7zM179.8 127c-2.1 4.2-3.9 8.5-5.7 12.8-2.9 6.6-5.6 13.3-8.7 19.7-3.3 6.7-8.9 10.7-16.2 12.1-4.6.9-9.2 1.6-13.8 2.2-8 1.1-16.1 2.1-24 3.2-5.7.9-11.2 2.5-16.4 5.1-11 5.7-18.3 16.4-16.3 30.9 1.2 8.9 4.2 17.1 8.9 24.7 4.5 7.3 10.8 12.5 18.7 15.7 9.1 3.7 18.7 5.3 28.5 4.6 9.2-.6 16.4-4.9 21.2-12.9 2.3-3.9 3.9-8.1 5-12.5 2.2-8.3 4.5-16.6 6.7-25 2.2-8.3 6.6-15.1 13.9-19.8.7-.5 1.4-1.1 2-1.6.1-2.5.3-4.7.4-7h.3c.1 1.9.3 3.9.4 6 5.8-1.7 10.9-3.3 16.1-4.7 6.9-1.9 13.9-3.6 20.9-5.5 2.6-.7 5-1.9 7.4-3 2.4-1.1 5.2-1.1 7.7-2 14.6-5.2 28.5-11.9 41.8-20 2.9-1.8 5.7-3.8 8.2-6.1 1.8-1.7 3.2-3.9 4.4-6.1 1.6-3.2 1.6-6.3-.1-9.7-5.6-11-14.2-18.9-25.1-24.3-8.1-4-16.7-6.8-25.5-8.4-14.8-2.7-28.7.2-41 8.9-6 4.2-12.1 8.5-14.9 15.8-.1.3-.3.7-.6.8-2.4 1.4-3.1 3.9-4.2 6.1zm-88.6 61.7H99c-2.5.7-5.1.5-7.8 0zm29.1.5c-2.1 0-4.3 0-6.4-.4h8.4c-1.1.2-1.6.4-2 .4zm16.4-.1v-.3h7.7v.3h-7.7zm22.4-.1v-.3h7.9v.3h-7.9zm25.1-54.2c.1 0 .2.1.3.1v6.8h-.3v-6.9zm-.1 22.5h.3v7.2h-.3v-7.2zM580.8 610.1c-.7-1.7-2.2-2.4-4-2-1.9.4-3.8 1-5.6 1.8-10.4 4.5-20.6 9.5-30.4 15.1-1.7 1-3.4 2-5.2 2.8-18.3 9-37 11.1-56.2 2.7-1.1-.5-2.3-1-3.5-1.5-10.9-4.7-21.2-10.5-31.2-17.1-10.5-6.9-20.5-14.6-30.4-22.4-11.9-9.4-24.9-17.1-38.9-22.9-1.1-.5-2.3-.7-3.7-1.2-.3 1.6-.5 2.7-.8 4.3-.4-1.6-.6-2.9-.9-4.2-2.6-1-5.1-.7-7.6-.8-.2 0-.4-.3-.6-.4 1.4-.2 2.8-.4 5-.7-1.7-.8-2.4-1.2-3.2-1.5-10.9-3.7-22.1-6.2-33.5-7.9-4.1-.6-8.2-.8-12.4-.2-7.1 1-13.3 4-18.6 9.1.6.6 1 .9 1.3 1.2-4 1.1-4.1 1-6.5 4.5-2.3 3.4-4.4 7-6.4 10.6-2.5 4.3-4.9 8.8-7.6 13-6.4 9.7-14.9 16.9-25.9 21-6 2.3-10.6 6.8-14 12.2-2.9 4.5-3 9.2-.3 13.8 1.4 2.3 3.1 4.4 5 6.3 3.8 3.8 8.1 7 12.8 9.8 10.2 6.1 18.6 14.1 25.3 23.9 5.1 7.5 9 15.5 12 24.1 2.7 7.7 6.1 15 9.7 22.2 1.5 3 3.4 6 5.4 8.7 6 8 14 12.1 24 12.3 6.2.1 12.2-.7 18.2-2 9.5-2.2 18.9-4.4 28.3-6.7 8.5-2 17-2.8 25.7-1.2 8.3 1.5 16.6 2.9 24.9 4.5 10 2 20 2.9 30 1.3 19.4-3.1 38.7-6.3 57.9-9.8 18.4-3.3 32.9-13 44.1-27.8 7.6-10 13.3-20.9 17.3-32.8 6.1-18.3 7.7-36.9 2.7-55.7-.6-2.1-1.3-4.3-2.2-6.4zm-241.2-46h6.2c0 .2-.1.3-.1.5H339c.4-.3.5-.5.6-.5zm-23.3.6v-.5h6.6v.3c-1 .1-2 .2-3.1.2h-3.5zM371.2 727h-.3v-7.8h.3v7.8zm117.9-39.4c-7.2 15.2-20.1 23.1-35.5 27.3-11 3-22.1 2.3-33.1-.3-11-2.7-22.2-4.4-33.5-5.2-9-.6-17.9-1.3-26.9-2.1-2.7-.2-5.4-.7-8-1.3-6.7-1.8-11.8-5.7-15.2-12-10.4-19.5-15.4-40.2-13.7-62.3.4-5.2 1.2-10.4 2.3-15.5 3.2-14.1 17.1-25.5 31.5-25.9 3.4-.1 6.8.6 10.2.9.9.1 1.7.2 2.6.2 1.5-2.3.5-4.8 1.3-7.8.1 1.8.2 2.8.2 3.8.1 1.2.1 2.5.2 4 1.2.5 2.3 1 3.4 1.3 6.5 1.8 12.4 4.6 17.9 8.5 24 17.2 48 34.2 72 51.4 5.5 4 11 8.1 15.7 13.1 4 4.2 7.2 9 9.1 14.5 1 2.7.7 4.9-.5 7.4zm68.4-35.3h.5v6.2h-.3c-.1-.9-.2-1.9-.2-2.8-.1-1.1 0-2.3 0-3.4zm.5 51.7c-.7-2.1-.4-4.2 0-6.2v6.2zm0-22.6c-.7-2.1-.5-4.2 0-6.2v6.2zm-.4-45.3v-6.5c1.1 2.3.1 4.3 0 6.5z" class="st0"/><path d="M473.6 662.7c-4.1-3.5-8.4-6.8-12.8-9.9-22.5-16.1-45.2-32-67.6-48.2-8.9-6.4-18.6-10-29.3-11.4-3.5-.4-7.3-.7-10.7 0-11.4 2.1-23.3 12-25.7 25.4-2 11-2.8 22-1.4 33.3 1.8 14.7 6.4 28.3 13.3 41.3 2.7 5 6.8 8.3 12.2 10 4 1.3 8 1.9 12.2 2 2.1.1 4.3.5 6.6-.2.1-1.3.3-2.5.4-3.8.1-1.2.1-2.3.2-3.5h.3c.1 2.5.3 5 .4 7.2 2.2 1.6 4.5 1.2 6.6 1.3 9.7.6 19.4 1.4 28.9 3.1 6.5 1.2 13 2.8 19.5 3.9 11 1.9 21.9 1.5 32.4-2.7 11.8-4.7 22-11.5 27.5-23.6.4-1 1-1.9 1.7-3.1-1.2-5-3.2-9.2-6.3-12.8-2.7-2.8-5.4-5.7-8.4-8.3zm-102.7-55.9h.3v7.8h-.3v-7.8zm0 22.9h.3v7.7h-.3v-7.7zm.4 51.8h-.3c-.1-1-.2-2-.2-3v-3.7c.2-.1.4-.1.5-.2v6.9zm.1-22.6c-.2 0-.4.1-.5.1v-6.8h.3c.1 1 .2 2 .2 3v3.7zM696.5 494.2c-1.5-3.3-3.1-6.5-5-9.5-3.9-6.5-9.2-11.9-14.7-17.1-7.7-7.3-15.3-14.8-22.8-22.2-4.6-4.5-9.1-9.2-13.7-13.8-4.1-4-8.8-6.9-14.5-7.8-9.8-1.6-17.3 1.8-20.9 11.7-1.9 5.2-2.5 10.5-2.3 15.9.5 12.9-.8 25.5-3.9 38-2.6 10.3-5.4 20.5-8.4 30.7-3.9 13.2-6.1 26.6-6.7 40.3 0 1 .2 2.1.2 3.2 3.2 1 6.3.1 9.5.8-3.2 1.1-6.5-.6-9.5 1.3 0 6 .5 11.9 1.7 17.8.2.9.5 1.7.8 2.6 1.1 3 3.3 4.7 6.5 4.7 1.6 0 3.2-.1 4.8-.4 19.3-3.3 36.8-10.9 52.8-22 1-.7 2-1.5 2.9-2.4.2-.2 0-.9 0-1.4 2.4-.5 4.7-1.7 6.8-3.4 10.6-8.4 20.2-17.9 29-28.2 3.6-4.1 6.3-8.8 8-14 2.8-8.3 3.1-16.6-.6-24.8zm-87.3 70.3v-.3c1-.1 2-.1 3-.2h3.6v.5h-6.6zm29.3 0h-6.8v-.2h6.8v.2zM934.8 692.5c-2.4-5.1-5.1-9.9-9.2-13.9-7.3-7.2-15.8-7.5-23.6-.8-3.6 3.1-6.4 6.8-8.7 11-10.1 19.1-2 44.2 13.8 54.9 2.6 1.8 5.7 3.2 8.7 4.1 4.7 1.4 9.5 1.5 14.1-1.3.1-1.5.3-3 .4-4.9.5 1.5.8 2.4 1.2 3.7 3-1.2 4.7-3.4 6.2-5.8 4.5-7.4 6-15.5 4.4-23.9-1.4-7.9-3.9-15.7-7.3-23.1zm-4.4 5.3h.3v6.4h-.3v-6.4zm0 29.2v-6.4c.2.1.4.2.4.3v6.1h-.4zM293.1 223.3c-9.9-3.4-18.8-1.4-26.8 5-7.3 5.9-9.6 13.6-7.2 22.7 4 14.9 19.1 26.3 34.9 26.5 2.1-.2 4.3-.5 6.4-.8 7.2-.8 11.7-4.9 14.4-11.4 1.9-4.5 2.5-9.3 2.8-14.2.1-2.2-.3-4.3-1.2-6.3-4.6-10.5-12.2-17.7-23.3-21.5zM864 340c-2.2-11.9-6.8-22.7-14-32.4-10-13.5-23.3-21.6-39.7-25-10-2.1-19.5 1.9-24.7 12-3.4 6.5-5.1 13.4-4.7 20.8.3 5.6 1.7 11 3.7 16.2 4.3 10.7 9.8 20.9 16.8 30.1 7.6 10 16.8 18.2 28 24.1 3.7 2 7.5 3.6 11.5 4.6 8.5 2 14.8-.6 19.3-8.1 2-3.3 3.3-6.8 4.1-10.5.2-1 .2-2 .4-3.1-2.8-1.2-5.6-.2-8.2-1.4h8.7c1.1-6.2 1.8-11.7.9-17.3-.8-3.3-1.5-6.6-2.1-10zm-52.7 28v-.2h7.4v.2h-7.4zm22.5-.1c.1-.1.1-.2.2-.3h6.4v.3h-6.6zM160.7 742.9c-3-14-9.9-25.3-22.2-33.1-5.2-3.3-10.8-5.8-16.6-7.7-11-3.6-22.3-5.4-33.8-6.5-5-.5-10.1-.4-15.1-.1-9.3.6-14.8 6.1-15.7 15.4-.1 1.4-.3 2.9-.2 4.3.5 15.5 5.2 29.6 13.8 42.5 1.3 1.9 2.8 3.3 5.4 3-1.2.7-2.1 1.5-1.1 2.6 3.2 3.4 6.3 7 9.9 9.9 10.7 8.7 23.2 12.3 36.8 10.5 19.4-2.5 35-17.7 38.7-37.1.3-1.1.3-2.5.1-3.7zM91.8 761v-.2h6.8v.2h-6.8zm22 0v-.2c1.2-.1 2.4-.1 3.6-.2h3.7v.4h-7.3zm29.8.1h-7.3v-.3h7.3v.3zM917.3 63.3c-5.6-4.4-11.7-7.8-18.3-10.3-9.7-3.7-19.5-7.3-29.5-10.5-7.3-2.4-14.8-4.3-22.5-5.3-11.2-1.5-20.2 2.1-26.5 11.7-.8 1.2-1.6 2.4-2.3 3.7-8.5 15.5-12.7 32.1-11.3 49.8.7 8.5 3.3 16.2 9.2 22.6 9.7 10.5 20.4 19.8 32.6 27.2 9 5.4 18.5 9.7 28.6 12.5 10.4 3 20 1.4 28.3-5.8 2.2-1.9 4.1-4 5.8-6.4 7.1-9.8 13-20.3 17.2-31.7.9-2.4 1.8-4.7 1.6-7.3 0-.8 0-2 .5-2.6 2.2-2.6 2.1-5.6 2.3-8.6.2-2 0-4 0-5.9h.1c0-1.3-.1-2.5 0-3.8.4-4.1-.7-7.8-2.3-11.5-2.9-7.1-7.5-13-13.5-17.8zm13 26.5c.6 2 .5 4.1 0 6.2v-6.2z" class="st0"/><path d="M1105.4 501.2c-5.6-12.9-15.5-20.1-29.3-21.5-10.9-1.1-21.9-.6-32.8 1.5-8.9 1.7-17.4 4.4-25.7 8-12.1 5.2-24.5 5.5-36.8.9-19.2-7.2-36.7-17.4-51.8-31.4-7.4-6.8-13-14.8-17-24-2.7-6.3-4.7-12.8-5.8-19.6-1.5-9.6-2.8-19.2-4.2-28.8-.9-6.2-2.1-12.4-2.7-18.7-1.1-10.9-2.7-21.8-5.1-32.5-4-17.9-11.5-34.1-24.2-47.5-6.5-6.9-13.5-13.5-20.6-19.8-10.5-9.3-22.2-17.1-34.9-23.3-4.7-2.3-9.5-4.3-14.7-5.4-14.3-2.8-26.8.4-36.8 11.3-2.9 3.2-5.3 6.8-7.5 10.5-4.3 7.1-7.2 14.9-9.5 22.8-.8 2.6-1.4 5.1-1.4 7.9 0 1.7-.7 3.5-1.2 5.2-.2.8-.9 1.6-1.1 2.4-1.2 6.5-2.6 13.1-3.3 19.7-.5 5.2-.5 10.4-.2 15.6.4 5.2 1.3 10.3 2.3 15.5.9 5.1 3.8 9.6 4.8 14.7.2.8.8 1.6 1.2 2.4 1.3.2 2.5.3 3.7.5-1 .5-1.9.8-3.1 1.3.9 2 1.6 3.6 2.5 5.2 5.8 11.2 13.2 21.4 21.5 30.9 3.4 4 7.1 7.6 11.4 10.6 6.2 4.4 12.4 8.7 18.7 12.9 14.8 9.9 26.4 22.8 34.8 38.4 10.9 20.5 22.5 40.5 34.3 60.5 10.5 17.8 18 36.7 21.9 57.1 2.5 12.8 1.4 25-3.9 36.9-1.7 3.9-3.7 7.8-5.8 11.5-3.1 5.3-6.6 10.3-9.7 15.5-3.2 5.2-6.4 10.5-9.1 15.9-5.5 11-7.6 22.9-6.4 35.1 2.2 21.7 10.8 40.9 23.6 58.3 1 1.3 1.9 2.5 3.8 2.6 1.6.1 0 .9.1 1.4.2.7.5 1.4.9 1.9 1.8 2 3.6 4 5.6 5.8 10.9 9.8 23.7 15.1 38.4 14.2 16.4-.9 30-8 41.1-20.1.5-.5.7-1.2 1.2-2.1-1.5-.3-2.8-.6-4-.8 1-.3 1.9-.3 2.8-.3s1.8-.2 3.1-.3c5.2-7.3 9.4-14.8 12.6-22.8 2-4.9 2.2-10.1 1.5-15.4-.9-6.1-2.9-11.8-5.3-17.5-2.6-6.3-5.1-12.7-6.6-19.4-3.8-15.9-2.4-31.1 6.2-45.3 4.7-7.7 9.9-15 16.2-21.5 10.2-10.5 22.2-17.6 36.9-19.7 6.4-.9 12.8-1.8 19.2-2.6 5-.7 10-1.1 14.9-2.1 13.3-2.5 22.3-10.2 26.9-23 1.1-3.2 2.1-6.5 2.9-9.8 4.4-16.2 7.1-32.7 7.1-49.5 0-3.3-.1-6.8-1.6-10.2zM773.5 367.9h-6.7v-.2h6.7v.2zm22.4 0h-7.4v-.3h7.4v.3zm69.2 9.3c-1.1 3.5-2.7 6.7-5 9.5-3.5 4.3-7.9 6.6-13.5 6.7-5.4.1-10.3-1.4-15.1-3.6-10.6-5-19.7-11.9-27.4-20.7-10.1-11.5-17.4-24.6-22.8-38.9-2-5.4-3.2-11.1-2.9-16.7-.2-7.4 1.7-14.1 5.2-20.3 5.7-10.5 15.4-15.1 27.2-12.8 22.1 4.5 37.9 17.2 48.1 37.2 4.2 8.3 6.6 17.1 8.2 26.1.1.7.1 1.4.3 2.1 2.8 10.8.9 21.1-2.3 31.4zm20.6-9.3H879v-.3h6.7v.3zm67.8 196.3v.3c-1.2.1-2.4.2-3.7.2h-3.6v-.5h7.3zm-23.1-91.8c.2.1.4.1.4.2v6.9h-.4v-7.1zm.3 45v6.3c-.5-2-.5-4.1 0-6.3zm0 22.7v6.3h-.3V540c.1.1.2.1.3.1zm-.4-45.3h.3v6.3h-.3v-6.3zm.2 67.6c.4 1.1 1.8 1.5.9 3.1-.6 1-.6 2.4-1 4.4-.2-1.9-.4-3.2-.5-4.3-2.1-1.5-4.4-.5-6.5-1.1 2.2-1.3 5.3 1 7.1-2.1zm-.1 73.6c-.1-1-.2-2-.2-3v-3.2c.2-.1.3-.2.5-.2v6.4h-.3zm.3 16.3v6.4h-.3c-.1-1-.2-2-.2-3v-3.5c.2.1.4.1.5.1zm-.3-37.8v-7.2c.6 2.4.4 4.8 0 7.2zm0-22.8v-6.3c.5 2.1.5 4.2 0 6.3zm-22.1-27.5v.3H901v-.3h7.3zm0 196.8h-6.7v-.3h6.7v.3zm22 10.1v-6.3c.6 2 .6 4.1 0 6.3zm.5-9.9h-7.5c.5-.4.6-.5.7-.6h6.9c0 .2 0 .4-.1.6zm12.1-26.7c-1.8 5.2-4.7 9.6-9.2 12.9-.4.3-.9.6-1.3.9-.5.4-3.5 1.7-4.3 1.9-3 .7-6 1.1-9.1.7-6.7-.9-12.3-3.8-17.1-8.3-11.2-10.5-16.1-23.5-15.2-38.7.7-11.3 5.4-20.7 13.9-28.2 3.3-2.9 7.1-4.8 11.6-5.1 5.1-.3 9.5 1.4 13.4 4.6 1.2 1 2.4 2.2 4.2 3.8.2-1.9.4-3 .5-4.1.2.2.5.4.5.6-.2 3.7 1.1 6.9 3.1 10.1 3.4 5.3 5.6 11.2 7.4 17.2.9 2.9 1.7 5.8 2.5 8.8 2.2 7.8 1.6 15.4-.9 22.9zm3.1 26.6v-.3h7.7v.3H946zm26.2-196.4h-3.6v-.5h6.7v.2c-1 .1-2.1.2-3.1.3zm25.9-.2h-6.9c.4-.3.5-.5.6-.5h6.3v.5zm15.9 0v-.3h6.7v.3h-6.7zm22.6 0v-.2h6.7v.2h-6.7zm29.4 0h-7.6v-.3h7.6v.3zm22.6 0h-7.6v-.3h7.6v.3z" class="st0"/><path d="M137.1 509.8c6.2-7.4 4.6-15.2-4.1-19.5-3.4-1.7-7.1-2.6-10.8-3.2-6.8-1.1-13.6-.8-20.4-.1-15.8 1.6-30.1 7-42.1 17.5-5.7 5-11 10.3-16 16-11.4 12.9-22.6 26.2-33.8 39.3-1.2 1.4-2.4 2.7-3.6 4.1-1.5.1-2.9.2-4.3.3-.2 0-.4.2-.7.3 1.1.3 2.1.5 3.6.9-1.4 1.8-2.4 3.2-3.5 4.6-.4.5-.9 1.1-1.3 1.6v7l.3-.3c15.1-19 31.1-37.3 47.1-55.6 3.8-4.3 7.9-8.4 12.1-12.3 8.9-8.5 19.4-14.2 31.3-17.2 5.4-1.4 11-1.8 16.5-2.4 5.4-.6 10.8-.1 16.1.9 2.6.5 5.2 1.4 7.6 2.5 6.2 3 7.1 7.8 2.6 13.1-.8 1-1.7 1.8-2.7 2.7-3.1 2.8-6.6 4.9-10.4 6.6-12.8 5.7-25.7 11.3-38.5 17-6.7 3-13.4 6-20 9.4-6.6 3.3-12.6 7.7-17.8 13-13.9 14-18.4 31-15.5 50 2.2 14 9.1 25.6 19.6 35.2 7.8 7.1 16.6 12.5 26.3 16.6 9.5 4 19.4 6.6 29.4 8.7 11.6 2.3 23.2 4.9 34.5 8.6 8.5 2.8 16.2 7 22.9 12.8 4.2 3.6 8.2 7.5 12.1 11.6 6.1 6.4 11.6 13.2 16.1 20.9 6 10.4 9.1 21.5 8.1 33.5-1.5 17.9-9.3 31.8-25.8 40.2-17.2 8.9-35.4 15.2-54.4 18.6-11.3 2.1-22.2.5-32.5-4.9-11.4-6-21.5-13.7-30.3-23.2-7.5-8.1-13.8-17-19-26.8-4.4-8.1-8.6-16.2-12.9-24.3-3.8-7.2-7.8-14.2-13.9-19.8-2.8-2.6-5.8-4.8-8.9-7-.1 0-.1-.1-.2-.2v5.2c2.6 1.8 4.9 3.9 7.1 6.2 4.2 4.5 7.6 9.6 10.5 15 4.4 8.3 8.7 16.5 13 24.8.4.7.5 1.5.7 2.6-2.8.2-5.1.3-7.5.5 2 .5 4 .5 5.9.5 2 0 3.4.9 4.3 2.6 1.1 2 2.4 4 3.7 6C48.9 787 63.2 800.6 81 810.5c12.1 6.8 25 8.8 38.6 6.2 5.1-1 10.2-2.1 15.2-3.5 16.7-4.7 32.8-10.7 47.4-20.2.3-.2.7-.1 1-.1.4.5.8 1 1.5 1.9-.4-2.8.7-4.5 2.4-6.1 6.6-6.2 10.6-14 12.9-22.7.4-1.5 1-3 1.5-4.7h9.3c-3-1.2-6.4.1-9.4-1.4.1-1 .3-1.9.3-2.8.4-5.6.6-11.1-.2-16.7-1.7-10.9-6.2-20.7-12.8-29.4-3-4-4.7-7.9-4.1-12.8 0-.2-.2-.4-.4-.8-.2 1.9-.4 3.5-.8 6-1.5-1.5-2.5-2.4-3.4-3.4-4.8-4.8-9.4-9.9-14.5-14.5-7.6-6.8-16.3-11.7-26.1-14.8-9.6-3.1-19.4-5.5-29.2-7.5-8.6-1.8-17.2-3.6-25.6-6.4-12.1-4-23.2-9.8-32.7-18.3C40.1 628 33.1 614.9 32.3 599c-.9-15.3 3.8-28.7 14.7-39.7 4.7-4.8 10-8.8 16-11.9 5.7-3 11.6-5.8 17.5-8.4 14.1-6.3 28.3-12.5 42.4-18.7 5.4-2.5 10.3-5.9 14.2-10.5zM818.9 957.5c-2.4-1.1-5.1.3-7.7-1.3.6-1.6 1.1-3.3 1.8-5 1.4-3.1 2.9-6.2 4.4-9.3l11.7-24.9c1.6-3.4 2.8-7 3.1-10.8.3-4.7-1.2-8.5-5.3-11-2-1.2-4.1-2.3-6.3-3-2.9-.9-5.9-1.4-8.9-2.2-5.2-1.3-10.5-2.5-15.6-4.2-13.3-4.5-24.4-12.1-32.8-23.5-5-6.8-9.9-13.7-14.8-20.6-1.7-2.5-3.7-4.9-4.1-8.1 0-.3-.3-.9-.5-.9-2.8-.5-3.5-3.2-5.1-5-1.8-2-3.3-4.2-5.2-6.2-4.7-5-9.2-10.1-14.3-14.7-7.4-6.8-15.2-13.2-22.8-19.8-8.5-7.2-16.8-14.7-24.1-23.2-6.4-7.4-10.6-15.8-12.6-25.3-2-9.8-1.9-19.6 0-29.5 5.5-28.5 23.1-46.4 49.7-56.2 11.8-4.3 22.3-1.2 31.3 7.2 3.9 3.6 6.8 7.9 9.5 12.4 3 5.1 5.9 10.3 8.8 15.5 13.3 23.5 27.8 46.3 44.7 67.4 4.3 5.3 8.2 11 12 16.6 11.3 16.4 20.2 34 25.6 53.2 3.3 11.8 6.4 23.6 9.6 35.4.9 3.1 1.8 6.2 3 9.2 3.3 7.7 9.2 12.1 17.4 13.7 9.3 1.8 18.6 4.2 27.5 7.5 8.7 3.1 16.6 7.7 23.4 14.1 3.4 3.2 7.3 5.8 11.1 8.5 2.7 1.9 5.8 2.8 8.9 3.6 6.2 1.5 12.2.7 18.2-.6 17.5-3.7 34.1-10 49.7-18.8 19.4-11 36.4-25.1 51.8-41.2 7.9-8.3 15.5-17 23.2-25.6 7.2-8.1 14.8-15.7 23.1-22.6 3.9-3.3 7.7-6.7 11.4-10.1v-6.4c-.3.1-.7.3-1 .5-.2-2-.4-3.5-.6-5-.4 1.1-.5 2.2-.4 3.3.2 2.6-.8 4.5-2.7 6.1-2.6 2.2-5.1 4.5-7.7 6.7-7.2 6-14.2 12.2-20.4 19.2-6.4 7.1-12.7 14.2-19.1 21.3-8.4 9.4-17.3 18.3-26.8 26.6-18 15.5-37.8 28-60.4 35.9-8.5 3-17.2 5.4-26.1 6.7-6.6 1-12.9.1-18.7-3.3-3.3-1.9-5.7-4.3-5.1-8.6.1-.5-.1-1-.3-2.6-.4 2.7-.6 4.3-.8 5.8-.7-.1-1.1-.1-1.3-.3-.9-.6-1.8-1.2-2.5-2-8.2-8.2-18.2-13.5-29.2-16.7-8.3-2.4-16.7-4.4-25-6.4-5.8-1.4-10.3-4.3-12.8-9.8-1.4-3.1-2.5-6.3-3.4-9.6-2.6-9.5-5-19.1-7.6-28.7-5.9-21.9-15-42.3-27.9-61-1.3-1.9-2.7-3.8-4-5.8-.4-.7-.7-1.5-1.1-2.5 1.5-.3 2.7-.5 4.7-.9-2.6-.2-4.4-.4-6.3-.5-7.9-10.5-16.2-20.7-23.7-31.5-11.6-16.9-21.9-34.7-32-52.5-3.5-6.1-7-12.2-11.7-17.4-.8-.9-1.3-2.2-2.3-2.9-2.2-1.6-4.4-3-6.8-4.4-9.1-5.2-18.6-6.3-28.6-2.8-10 3.4-19 8.5-27.1 15.2-8.9 7.4-15.6 16.4-20.2 26.9-4 9.2-6.1 18.8-6.7 28.7-1 18.2 3.7 34.5 16 48.3 7.5 8.3 15.7 15.8 24.2 23.1 6.5 5.5 13 10.8 19.3 16.5 12.2 10.8 22.6 23.1 31.4 36.9 4.4 7 9.5 13.5 14.4 20.2 9.6 13.1 22.5 21.6 37.9 26.3 4.6 1.4 9.4 2.4 14.1 3.5 3.9.8 7.8 1.6 11.3 3.4 4.2 2.2 5.6 4.5 4.8 9.2-.4 2.5-1.1 4.9-2.1 7.2-3.1 7.1-6.4 14.1-9.7 21.1-2.3 5-4.9 10-7.1 15.2-1 2.5-1.9 5-2.6 7.5h6c2.4-.4 4.8.2 6.9-.4z" class="st1"/><path d="M614.4 890.1c-.6-5-1.3-10-2.5-14.9-2.4-10.4-7.8-19.3-15.2-27-11.2-11.7-23-22.8-36.4-32.1-.7-.5-1.4-1.1-2-1.7-.1-1.6-.3-3.1-.4-5-.5 1.5-.9 2.4-1.4 3.8-1.7-.9-3.3-1.7-4.8-2.6-17.5-10.1-36.4-16.1-56.4-18.9-8.9-1.2-17.8-2.4-26.7-3.7-17.1-2.5-34.1-5.4-51.2-7.7-9.5-1.3-19-1.2-28.5 0-12.6 1.6-24.4 5.8-35.6 11.8-7.3 3.9-14.7 7.6-22.1 11.3-12.7 6.2-26.1 10.3-40.2 11.7-4.6.5-9.3.7-14 .5-11.5-.5-19.6-6.4-24.4-16.7-1.6-3.4-3-7-4-10.6-2.4-8.7-4.5-17.4-6.7-26.1-2.2-9.1-4.2-18.2-6.6-27.2-2.5-9.8-7.5-18.3-14.4-25.6-3.2-3.4-6.4-6.9-9.7-10.2-16.4-16.7-33-33.2-49.3-49.9-6.9-7.1-14.9-11.8-24.4-14.2-6.1-1.6-12.2-2.9-18.4-4.2-6.7-1.5-13.4-2.9-19.8-5.4-4.9-1.9-9.4-4.5-13.1-8.4-7.1-7.5-7.4-17.5-.9-25.5 2.4-3 5.3-5.3 8.7-7.2 7.3-4 15-6.8 23.5-7.1 13.9-.5 26.9-4.3 39.3-10.5 2.5-1.2 5-2 7.7-2.1.2 0 .5-.3.7-.4l-.9-1.2c4.9-3.3 9.8-6.3 14.4-9.7 9.3-6.7 18.5-13.7 26.4-22.1 7.7-8.2 14.1-17.3 19.6-27 6.2-10.9 15.3-18.5 27.2-22.6 4.9-1.7 10-3.1 15.1-4.1 22.4-4.4 44.8-8.6 67.3-12.8 7.2-1.4 14.5-2.5 22-2.4 10.4.1 19.7 4.7 21.6 18.8 2 15.6 8.7 29.2 19.2 40.9 5.1 5.7 10.9 10.4 16.9 15.1 10.5 8.2 21.4 15.9 32.4 23.3 1.4.9 3 1.5 3.9 3.5.9 1.9 3.5 1.1 5.2 2 6.3 3.3 13.3 4.5 20.3 4.8 5.9.2 11.5-1 16-5.1.4-.3.9-.6 1.5-1h9.8c-1.4-.5-2.8-.4-4.3-.5-1.5-.1-3.1.4-4.8-.8 5-7.8 6.6-16.5 8.7-25 .4-1.8.7-3.5 1.1-5.3 1.8-9.4 3.2-18.8 2.8-28.4-.5-13.2-5.7-23.9-16-32.2-5.1-4.1-10.7-7.2-16.6-10-9.5-4.4-19.4-7.7-29.3-10.8-7-2.2-14.1-4.4-21.1-6.6-4-1.3-7.7-2.9-11-5.5-4.6-3.7-6.8-8.3-5.6-14.2 2.6-12.7 6.9-24.6 15.1-34.8 4.3-5.3 9.1-10.2 14.3-14.7 5.3-4.6 10.7-9.1 16-13.7 5.6-4.8 11.1-9.7 15.9-15.4 3.4-4 6.4-8.2 8.6-13 4.7-10.2 4.4-20.3-1.3-30-1.9-3.2-4.1-6.4-6.7-9.1-5.8-5.9-11.8-11.6-17.9-17.2-4.8-4.4-9.7-8.6-14.5-12.9-1.1-1-2.1-2-3.1-3-11.6-11.4-15-25-10.6-40.6 1.1-4 2.7-7.8 4.4-11.6 5.8-12.4 13.8-23.1 23.5-32.7 1.8-1.8 3.2-3.9 5.9-4.6.4-.1 1-.6 1.1-1.1.8-2.4 3-3.4 4.7-5 3.5-3.3 7.4-6.4 10.7-9.9 15.4-15.9 23.2-34.8 21.7-57.2-1.1-15.8-7.8-28.6-20.5-38.2-3.1-2.4-6.6-4.4-10-6.4-10.2-6.1-20.4-12.2-30.6-18.2-4.9-2.9-8.9-6.7-12.9-10.6-.6-.6-1.2-1.4-1.6-2.1-1.3-2.1-1.1-4.2.4-6 1.2-1.3 2.6-2.4 4-3.5 4-3 8.2-5.9 12.1-9 1.4-1.1 2.5-2.5 3.8-3.8h-4.3c-.5.7-.7 1.6-1.4 2.1-3.6 2.7-7.2 5.4-10.8 8-1.3 1-2.7 1.8-3.9 2.9-4.1 3.8-4.4 8.1-.7 12.3.4.4.7.8 1.1 1.2 4.3 4.3 8.9 8.4 14.3 11.4 4.1 2.3 8 4.8 12 7.2 7.7 4.6 15.5 9 23.2 13.8 14.2 9 22 22 23.3 38.7 1.4 18-3.8 34.1-14.8 48.4-4.3 5.6-9.2 10.6-14.6 15.1-2.8 2.3-5.3 4.9-8.2 7-2.9 2.1-5.1 4.9-7.5 7.5-8.1 8.3-15 17.5-20.3 27.8-2.4 4.6-4.4 9.5-6 14.4-2.9 8.7-3.4 17.6-.6 26.5 2.4 7.6 7 13.8 12.7 19.1 3.7 3.4 7.6 6.7 11.3 10 6.8 6.2 13.6 12.4 20.2 18.6 3.4 3.2 6.3 6.9 8.7 11 5.5 9.2 6 18.7 1.5 28.4-1.4 2.9-3 5.8-5 8.3-3.4 4.2-6.9 8.3-10.8 12-4.9 4.7-10.3 9-15.4 13.5-5.5 4.9-11.1 9.7-16.4 14.8-12.3 11.9-19.2 26.7-22.3 43.4-1.3 7 1.1 12.3 6.4 16.6 3.4 2.8 7.3 4.5 11.5 5.8l23.7 7.5c10.5 3.3 20.8 6.8 30.6 11.9 5.1 2.6 10 5.7 14.3 9.6 8.1 7.4 12.5 16.6 13 27.5.3 6.1.1 12.2-1 18.3-1.7 10.1-3.4 20.2-6.6 30-1 2.9-2.2 5.7-3.7 8.3-2.6 4.4-6.6 7.2-11.7 7.8-3.7.4-7.6.3-11.3-.2-3.5-.5-7.2-.5-10.1-3.2-.3-.3-1-.5-1.5-.5-2.3 0-4.1-1.4-5.8-2.5-6.9-4.6-13.8-9.1-20.5-14-8.1-5.9-16.1-12-24-18.4-8.8-7.1-15.8-15.7-20.8-25.9-3.7-7.5-6-15.4-7.2-23.6-1.9-14.3-12.1-19-21.5-19.5-3.8-.2-7.6-.1-11.3.4-7 .9-13.9 2.1-20.8 3.3-16.4 3-32.9 6.2-49.3 9.4-6.7 1.3-13.4 2.5-20 4.2-10.3 2.7-19.4 7.5-26.8 15.3-3.4 3.6-6.1 7.6-8.5 11.8-8.7 15.2-19.8 28.3-33.8 38.8-.9.7-2 1.2-3.4 1.9-.2-2.2-.3-3.9-.5-5.6h-.3c-.2 2.5-.3 5-.5 7.2-8.1 6.2-16.1 11.6-24.7 16.2-1.9 1-3.9 2-5.8 2.9-11.1 5.1-22.6 8.3-34.8 8.8-9.2.3-17.6 3.2-25.6 7.7-4.5 2.5-8.2 5.8-11 10.2-5.1 8.2-4.4 17.8 1.9 25 1.8 2 3.9 3.8 6 5.4 4.2 3.2 9.1 5.1 14.2 6.5 6.2 1.7 12.6 3 18.9 4.5 5.8 1.4 11.6 2.6 17.2 4.3 7.4 2.2 13.8 6.1 19.1 11.6 6.6 6.8 13.5 13.5 20.2 20.3 5.1 5.1 4.5 3.1 4.6 10.7 0 .2.2.5.4 1.1.2-1.8.4-3.4.7-5.3.9.6 1.6.8 2.1 1.3 11.4 11.8 22.9 23.4 34.1 35.4 5.6 6 9.4 13.2 11.5 21.2 2.1 8.4 4.2 16.7 6.2 25.1 2.5 11 5.1 22.1 8.5 32.9 1.4 4.3 3.2 8.4 5.7 12.2 4.4 6.6 10.4 11 18.1 12.6 3.5.7 7.2 1.1 10.7 1 12.6-.6 25-2.5 37-6.9 10.7-3.9 20.7-9.2 30.8-14.3 5.4-2.8 10.9-5.5 16.5-8.1 1.2-.6 2.6-.8 4.3-1.2.2 2.4.4 4.5.6 6.5.5-1.3.4-2.5.5-3.8.1-1.2.4-2.4.5-3.7 1.9-.6 3.6-1.2 5.4-1.6 14.9-4 29.9-4 45-1.8 25.6 3.8 51.2 7.7 76.8 11.5 4.1.6 8.1 1.4 12.2 2.4 3.8.9 7.6 2 11.4 3.2 3.9 1.3 7.8 2.7 11.6 4.3 3.8 1.6 7.6 3.3 11.2 5.3 3.5 1.8 7 3.7 10.2 6.1 3.3 2.5 7 4.2 10 7 6.5 5.7 13.1 11.2 19.5 17.1 4.4 4 8.5 8.3 12.4 12.7 6.3 7.1 10.6 15.4 12.5 24.8 1 4.9 1.7 9.9 2.2 14.9 1.5 13.2 2.7 26.5 4.4 39.7 1.1 8.5 2.3 17.1 3.5 25.6h2.3c-1.6-11.5-3.1-23.1-4.5-34.6-1.2-11.1-2.1-22.2-3.5-33.3zM784 179.1c8.6.8 16.4 3.6 24 7.5 13 6.6 25.4 14.3 37.1 23 22.3 16.5 45.6 31.5 70.2 44.3 4.4 2.3 8.1 5.3 11.3 9.1 2.4 2.8 4.1 5.9 3.6 9.8-.1 1.2 0 2.4 0 3.6h.3c.2-1.1.5-2.2.8-4 .8 1.3 1.5 1.9 1.6 2.7.8 3.7 1.7 7.4 2.2 11.1 1 7.3 1.5 14.7 2.5 22 2.6 18.7 6 37.3 11.5 55.4.3 1.1 1.2 2.3.2 3.7-1.1.2-2.3.3-4 .6.9.2 1.2.3 1.6.3 2.9-.3 4.1 1.2 4.9 3.9 1.2 4 2.6 7.8 4.1 11.7 2.4 6.2 5.2 12.2 9.1 17.7 6.8 9.7 15.9 16.1 27.5 18.6 5.4 1.2 11 2 16.5 2.5 7.5.7 15.1.8 22.6 1.2 20.3 1.1 40.6 2.1 60.9 2.1 9.5 0 18.6-1.2 27.4-3.7v-4.4c-7.3 2.2-15 3.4-22.9 3.6-9.5.2-19.1.1-28.6-.2-16.5-.6-33.1-1.3-49.6-2.2-7.2-.4-14.3-1.3-21.4-2.3-14.2-2-24.6-9.6-31.5-22-2.3-4.1-4.2-8.3-6-12.7-3.9-9.9-7-20-9.6-30.3-5.6-21.6-8.7-43.7-10.8-65.9-1.5-16.3-8.8-28.9-23.9-36.6-22.9-11.8-44.5-25.7-65.2-41-13.6-10.1-27.9-19.1-43.1-26.6-8.5-4.2-17.5-6.7-26.9-7-11.1-.3-21.3 2.8-30.7 8.6-1.5.9-3.1 1.6-4.7 2.5-.5.2-1.1.4-1.3.7-1.3 2.4-3.7 3.3-5.7 4.8-9.2 6.7-18 13.8-25.7 22.2-7.5 8-12.8 17.1-15.8 27.8-3.2 11.4-7.1 22.6-10.8 33.9-1.1 3.2-2.6 6.3-4.4 9.2-5.3 8.2-13.2 11-22.5 7.8-2.9-1-5.8-2.2-8.2-3.9-13.3-9.2-26.7-18.3-39.8-27.9-10.5-7.6-14.1-18.2-11.6-30.9 2.6-13.1 6.7-25.8 11.8-38.1l.9-2.1h-2.2v-.3c.8-.1 1.6-.1 2.4-.2 8.2-18.1 21.7-31.3 40-39.6 15.4-7 31-13.5 46.8-19.4 5.4-2 10.8-3.9 16.1-6.3 22.8-10.3 38.5-27.3 46.7-51 2.5-7.5 4.6-15.1 6.5-22.8 3.7-15 7.1-30.1 10.6-45.1.2-1 .2-2.1.2-3.2h-4.3c-.1 1.1-.1 2.2-.3 3.2-2.5 10.7-5 21.4-7.4 32-2.5 10.9-4.9 21.7-8.4 32.3-2.6 7.7-5.9 15.1-10.5 21.8-.8 1.2-1.4 2.5-3.1 2.7-.4.1-.8 1-1.1 1.6-.6 1.1-.9 2.3-1.7 3.3-1.6 1.9-3.4 3.8-5.2 5.5-8.7 8.3-18.9 14.2-30.1 18.5-7.6 2.9-15.2 5.6-22.7 8.6-11.8 4.9-23.5 9.9-35.2 15.1-5.6 2.5-10.7 5.8-15.7 9.4-6.3 4.6-11.3 10.5-16.5 16.2-2.8 3.1-4.5 7.3-6.4 11.1-2 4-3.9 8.1-5.4 12.3-2.3 6.4-4.5 12.9-6.4 19.5-1.5 5-2.6 10.1-3.7 15.2-1 4.4-.9 9-.1 13.4 1.3 7.1 4.9 13.1 10.2 18 1.6 1.5 3.3 2.8 5 4.1 11.8 8.3 23.6 16.5 35.4 24.8 3.8 2.7 7.9 5 12.4 6.4 11 3.4 20.3.3 26.9-9.2 2.5-3.6 4.2-7.5 5.6-11.6 3.6-11.1 7.4-22.2 10.6-33.4 2.8-9.8 7.7-18.1 14.5-25.5 11.3-12.2 24.6-22.1 38.8-30.8 9-5.7 19.1-7.7 29.8-6.7zM751 957.5c-.7-.5-1.2-.8-1.9-1.3.3-2.1.6-4.2.9-6.4 2-13.2 1.3-26.2-3.7-38.8-.9-2.4-1.7-4.7-1.8-7.3 0-1-.3-2.8-.8-2.9-2.8-.6-2.5-3.2-3.2-4.9-5-11.8-10.4-23.3-17-34.3-5.8-9.6-13-18.1-21.9-25.1-10.6-8.4-22.7-13.7-35.8-16.9-4-1-8-2-11.9-3.4-5.8-2-11.2-4.8-15.8-9-8.6-7.9-14.3-17.5-17-28.8-3.2-13.2-2.7-26.5-.4-39.6 3.9-21.7 11.7-42.2 21.2-62.1 5.4-11.3 12.8-21.2 22.2-29.7 14-12.7 29.7-22.7 47.1-30 3-1.2 6.1-2.3 9.2-3.2 5-1.6 10.2-1.7 15.5-1.7 4.2 0 8 1.7 11.8 3 5.6 1.8 9.9 5.8 13.8 10.1 3.7 4 6.4 8.7 8.8 13.5 4.7 9.9 9.5 19.8 14.1 29.7 9.6 21 19.9 41.5 31.9 61.2 5.4 8.9 10.8 17.9 16.1 26.8.6 1.1 1.2 2.2 1.6 3.3.1.3-.3 1.2-.2 1.2 2.7.9 3.5 3.5 4.8 5.6 5.9 9.5 11.6 19 17.5 28.5 3.3 5.4 6.4 10.8 9.9 16.1 9.2 13.8 21.4 23.7 37.4 28.5 4.3 1.3 8.7 2.1 13.1 3.1 16.1 3.6 32.3 7.2 48.4 10.9 10.2 2.3 20.4 3.5 31 1.7 12.8-2.1 24.2-6.8 33.9-15.3 3.5-3.1 7-6.2 10.4-9.4 16.2-15.7 33.3-30.3 51.6-43.4 8.3-6 16.8-11.7 24.6-18.5.3-.3.9-.3 1.5-.5.2 1.3.5 2.4.9 4.6.1-1.2.2-1.4.2-1.6.1-2.7.5-4.8 1.3-6.3v-3.5c-2.1 2.1-4.3 4.2-6.6 6.2-5 4.3-10.3 8.4-15.8 12.2-19.7 13.7-38.2 28.8-55.6 45.3-5.5 5.2-11.1 10.3-16.9 15.1-5.6 4.7-11.9 8.2-18.9 10.1-3.5 1-7 1.7-10.5 2.3-7.3 1.3-14.6 1.8-22 .2-4-.9-8.1-1.5-12.2-2.4-17.5-3.9-35.1-7.8-52.6-11.8-8.7-2-16.7-5.5-24-10.7-7.4-5.3-13.5-11.9-18.2-19.7-9.1-14.7-18-29.4-27-44.2-.4-.7-.6-1.6-.9-2.3.7-.4 1.1-.7 1.7-1.1-1.1-.2-2.1-.5-3.3-.7-.9-1.4-1.9-2.9-2.8-4.4-3.7-6.1-7.5-12.3-11.2-18.5-10-16.7-20-33.3-28.2-50.9-7-14.8-13.9-29.6-20.9-44.4-1.8-3.7-3.6-7.5-5.8-11-5.1-8.4-11.9-14.9-21.2-18.5-1.6-.6-2.9-2.3-4.9-1.7-11.3-2.3-22.2-.4-32.7 4.1-13.6 5.9-26.2 13.3-38 22.3-15.9 12.2-28 27.3-35.7 45.9-3.8 9.3-7.3 18.8-10.7 28.2-5.3 15-8.8 30.4-8.8 46.4 0 .8-.4 1.6-.6 2.6-2.4.1-4.6.3-7.4.4 2.9.9 5.4-.3 7.8 1.5.1 1.2.4 2.6.4 4 .1 4.9 1 9.7 2.3 14.3 5.9 19.8 17.8 33.8 38.3 39.4 3.8 1 7.7 1.9 11.5 3 19 5.3 34.7 15.5 46.7 31.2 3.9 5.2 7.2 10.7 10.3 16.4 7.3 13.5 13.1 27.6 18.5 41.9 3.9 10.3 4.9 21 4 31.8-.3 3.6-1.2 7.1-1.7 10.6-.2 1.6-1.4 1.9-2.9 2.1.4.3.8.5 1.2.8h4.8c.3.4.8.3 1.2.1z" class="st1"/><path d="M565.1 956.6c.2-1.4.4-2.5.6-3.5 1.3-7.1 2.9-14.1 3.9-21.2 2.5-16.6-.7-32.2-9.3-46.6-1.5-2.4-2.3-4.8-2.1-7.6 0-.2-.3-.5-.4-.7-.4.5-.8 1-1.4 1.9-1.1-1.3-2.1-2.4-2.9-3.5-3.8-4.8-8.2-9.1-12.8-13.1-9.9-8.5-21-15.1-33.1-20-27-11.1-54.8-19.7-83.3-26-11.1-2.4-22.1-2.4-33.1.2-9.9 2.3-19.1 6.3-27.5 12.1-19.4 13.4-38.6 27-57.9 40.5-7.6 5.3-13.7 12.2-18.9 19.8-7 10.5-9.2 22.1-7.4 34.5 1.5 10.1 5 19.5 9.6 28.5 1 2 2.1 4 3.2 6h6.4c1-.2 2-.3 3-.5-.9-.4-1.8-.4-2.7-.5-.9-.1-1.7-.3-2.6-.5-6.2-10.8-11-22-12.8-34.3-1.5-10.3.1-20.1 5.7-29 4.9-7.8 10.8-14.8 18.5-20.2 11.9-8.4 23.7-16.9 35.7-25.2 9.5-6.5 18.9-13.1 28.7-19.2 10.5-6.4 22.1-9.5 34.4-9.8 7.1-.2 14 1 20.8 2.5 23.9 5.4 47.1 12.9 70 21.4 10.8 4 21.2 9 30.7 15.5 11.4 7.8 21.2 17.2 28.4 29.1 7.7 12.8 10.8 26.6 9.2 41.4-1.1 9.9-2.9 19.7-5.7 29.3h5.7c2.1-.2 4.2-.3 7.1-.5-3.3-.3-5.4-.5-7.7-.8zM.4 300.8c-.1-.7-.2-1.4-.4-2.1v11.8c5 19.5 13.1 37.6 26.2 53.2.8.9 1.4 2 2.3 3.3-1.8.2-3.2.4-4.6.6.9.4 1.8.4 2.6.4 2.5-.1 4.5.8 6.2 2.7 1.1 1.2 2.3 2.3 3.5 3.3 2.6 2 5.1 4 7.9 5.6 7.1 4 13.2 3.3 19.4-2 2-1.7 3.9-3.7 5.6-5.9 1.8-2.4 3.7-4.2 8.1-3.7-2-.7-2.8-1-3.6-1.3 2.9-4.7 8.6-11.3 12.1-14.1 8.9-7.1 19-6.7 27.3 1.1 3.2 3 5.5 6.6 7.3 10.6.3.7.4 1.6.8 2.7-2.7.1-5 .3-7.7.4 3.1 1 6.1-.4 8.9 1.5.5 1.5 1 3.2 1.5 5 1.7 6.1 0 11.4-4.2 15.9-1.3 1.4-2.9 2.7-4.4 3.9-5.5 4.2-11.4 7.4-17.8 10.1-6.1 2.6-12.1 5.6-17.7 9.2-8.1 5.2-15 11.7-20.5 19.7-2.2 3.3-4.5 6.5-6.8 9.7-17.3 23.8-34.4 47.4-51.4 71-.3.4-.6.9-1 1.4v4.3l.9-1.2 15.3-21.6c14.7-20.4 29.6-40.7 44.2-61.2 6.3-8.8 13.8-16.1 23.2-21.4 4.8-2.7 9.9-5.1 14.9-7.5 6.1-2.8 12-5.8 17.3-9.9 2-1.5 3.9-3.2 5.6-5 4.6-4.8 6.1-10.6 4.7-17-1.6-7.3-4.5-14.1-9.5-19.7-2-2.3-4.4-4.2-6.9-6-3.5-2.5-7.5-3.4-11.8-3.2-6.3.2-11.5 2.9-15.8 7.2-3.3 3.3-6.2 7-9.4 10.4-1.4 1.6-2.2 3.8-4.5 4.5-.2.1-.4.5-.5.8-1.5 4.3-4.9 7-8.5 9.4-3.3 2.2-6.9 2.8-10.8 1.4-3.3-1.2-6.2-3-8.8-5.1-6.4-5.3-11.9-11.4-16.8-18.2-11.6-16.6-18.7-35.1-22.4-55zM0 196.8v4c1.5 2.2 2.9 4.4 4.1 6.7 5.4 10.3 7.8 21.1 6 32.8-.9 5.9-2.6 11.6-4.9 17-2.1 5-4 10-5.1 15.3 0 .2-.1.4-.1.6v10.5c.1-.4.1-.7.2-1.1 2.1-8.4 3.8-16.8 7.4-24.8 3-6.6 4.8-13.6 5.4-20.8 1-13.1-2.6-24.9-9.7-35.8-1.1-1.4-2.2-2.9-3.3-4.4zM1120 388.7c-.3 0-.7.1-1 .2-.2-2.4-.4-4.5-.5-6.6h-.3c-.1 2.5-.3 5-.4 7.3-.7.5-1.1 1-1.6 1.2-12.8 5.2-26 8.3-39.8 8.6-12.2.2-24.4-.9-36.6-2.2-5.9-.6-11.8-1.7-17.5-3.1-16.9-4-30.3-13-38.6-28.7-.2-.5-.6-.9-.8-1.4-17.2-30-21-61.5-11.4-94.7 4.5-15.7 11.8-30.1 20.2-44 7.5-12.4 16-24.3 24.3-36.2h-1.5v-.3c.6-.1 1.2-.1 1.8-.1 1.2-1.6 2.3-3.3 3.5-4.9 6.1-8.7 13.8-15.6 23-20.9 10.3-5.9 21.4-9.5 32.9-11.6 8.7-1.5 17.4-2.6 26.2-3.6 6.1-.6 12.1-1.2 18.2-1.7v-2.9c-.3-.1-.7-.3-1.2-.5-.1-2.6-.2-5.3-.3-7.9-.5 1.8-.4 3.5-.5 5.2-.1 1.2-.4 2.3-.7 3.5-3.2.4-6 .8-8.9 1.1-9.5 1.1-18.9 2.1-28.4 3.4-10.2 1.5-20.1 4.2-29.5 8.2-13.7 5.9-25.1 14.6-33.5 27.1-3.6 5.4-7.6 10.5-11.1 15.9-6.5 9.9-13.2 19.8-19.3 29.9-8 13.3-14.2 27.4-18.3 42.5-4.2 15.6-5.6 31.5-3.5 47.6 2.5 19.4 9.8 37.1 20.6 53.4 5.3 8 12.4 14 20.9 18.2 8.1 4 16.8 6.2 25.7 7.6 10.3 1.6 20.7 2.3 31.1 3 9.9.6 19.8.4 29.6-1.4 9.5-1.7 18.5-4.6 27.2-8.3v-2.9zM246.1 957.8l.1.1-.1-.1c-.5-1.5-1.1-2.9-1.6-4.4-3-10-5.9-20-9-29.9-4.7-15.1-8.4-30.5-10.9-46.1-.8-5-1.8-9.9-3-14.8-3.4-13.5-11.6-22.4-24.9-26.7-1-.3-2.1-.6-3.1-1-2.9-1.1-5.9-1.4-8.8-2.3-2.7-.8-5.9-.2-8.9-.1-4.7.2-9.3.4-14 1-9.7 1.2-18.9 4.3-28.2 7.2-8.7 2.7-17.4 5.8-26.1 8.6-9.2 3-18.4 3.1-27.6.1-9.4-3.1-18.9-5.7-27.9-9.9-2.6-1.2-5.4-2.1-8.2-2.5-6.6-.9-11.1 1.8-13.7 7.9-.9 2-1.4 4.1-2 6.1-3.3 11.8-4.4 24-5.3 36.2-.9 12.2-1.5 24.4-3.3 36.5-1.5 10-3.9 19.7-7.7 29.1-.5 1.3-1.2 2.5-2 4-3 .1-5.9.2-8.8.3 2.2.8 4.6.2 6.9.8h4.5c5.5-12.6 8.8-25.9 10.3-39.7 1-9.7 1.6-19.4 2.4-29 .8-9.1 1.3-18.3 3.1-27.3 1-4.8 2.1-9.5 3.4-14.1 1.9-6.6 6.8-10.5 15.1-7.8 1.9.6 3.7 1.3 5.5 2.2 9.9 4.4 20.2 7.5 30.6 10.4 5.8 1.6 11.6 2 17.6.9 6.1-1.1 11.8-3.1 17.6-5 10.3-3.3 20.5-6.7 30.8-9.8 10.2-3 20.7-4.7 31.4-3.8 1 .1 2 .4 3.2.6.2 1.5.4 2.7.7 4.6.3-1.8.5-2.8.8-4.1 1.1 0 2.2-.2 3.2 0 2.3.5 4.5 1.2 6.8 1.8 13.2 4 21.3 12.9 24.4 26.3 1.2 5.4 2.2 10.9 3.2 16.4 2 10.8 4 21.6 7.2 32.1 4.6 15.1 9.1 30.2 13.6 45.2h2.7c0 .1 0 .1 0 0z" class="st1"/><path d="M278.7 957.5c-1.3-.4-2.5-.4-3.8-.4-1.4-.1-2.8-.2-4-.3-.4-.5-.7-.7-.9-1l-1.2-2.4c-8.4-18-11.7-36.9-10.3-56.7.7-10.3 3.9-19.8 11.2-27.4 2.6-2.7 5.3-5.4 8.4-7.6 4-3 8.3-5.7 12.6-8.3 22.2-13 44.4-26 66.6-38.9 3.1-1.8 6.3-3.5 9.4-5.2 1-.5 2.3-.8 3.9-1.2.1 3.2.3 6 .4 8.8h.6v-9.3c.7-.5.9-.8 1.2-.9.8-.4 1.6-.7 2.5-1 14.8-5.7 30-6.8 45.6-3.7 10.4 2.1 20.8 4 31.2 6 13.9 2.7 27.9 5.5 41.5 9.7 15.9 4.9 31 11.4 44.9 20.7 5.8 3.9 11.3 8.3 16.5 13 1.7 1.6 2.6 3.4 2.5 5.7v4.8c.7-1 .7-2 .8-3 .1-1-.4-2.2 1.1-2.8.5.4 1.1.8 1.5 1.3 8.2 8.9 15.4 18.5 20.7 29.5 4.9 10 7.8 20.4 8.6 31.5.8 11.7.5 23.4 0 35 0 1-.3 2.1-.5 3.2-1.2.3-2.2.5-3.8.8 1.1.2 2 .4 2.8.5h4.5c.1-.2.1-.5.2-.7s-.4-.6-.4-.9c-.2-1-.4-2.1-.3-3.2.1-9.3.2-18.7.2-28.1 0-16.6-4.3-32-12.8-46.2-14.3-24.1-34.4-41.7-59.7-53.7-16.2-7.6-33.2-12.6-50.7-16.3-16.4-3.4-32.8-6.5-49.2-9.7-10.7-2-21.5-2.2-32.2-.1-10 1.9-19.3 5.6-28.1 10.6-5 2.9-9.9 5.9-14.9 8.8-19.4 11.3-38.9 22.6-58.3 33.9-6.5 3.8-12.7 8.1-18 13.6-6.5 6.8-11 14.7-12.2 24.1-1.9 14.2-1.3 28.3 2 42.3 2.1 8.9 5.4 17.3 9.3 25.4h4.1c2.4.1 4.5 0 6.5-.2z" class="st1"/><path d="M543.9 932c.5-7 .6-14 .8-21 0-1.6-.5-3.2-1-4.7-3.4-10.3-9.2-19.1-17.2-26.4-7.5-6.9-16.2-12-25.5-15.9-13.8-5.7-27.5-11.5-41.4-17.1-6.2-2.5-12.4-4.9-18.6-7.1-14-4.8-28.4-6.2-43-2.9-10.1 2.3-19.5 6.4-27.9 12.5-15.7 11.4-31.2 23.1-46.8 34.7-4.2 3.1-7.8 6.9-10.9 11.2-5.1 7.1-7.7 14.9-8 23.6-.2 9.8 2.1 18.9 6.2 27.6.8 1.6 1.7 3.2 2.4 4.8.8 1.6 2 3.2 2.1 4.9 0 .8.3 1.3.7 1.8h5.1c.7-.2 1.5-.3 2.5-.6-1.8-.3-3.3-.6-4.6-.9-5.4-9.1-9.9-18.2-11.5-28.5-2-12.7.8-24 9.1-33.7 2.9-3.4 6.2-6.5 9.8-9.2 13.5-10.2 27.1-20.2 40.7-30.3.8-.6 1.8-1 2.9-1.7 1.3 3.2.2 6.2 1.4 8.9v-10.3c14-9.6 29.2-14.7 46.2-13.9 9.6.4 18.9 2.7 27.7 6.3 18.7 7.5 37.3 15.2 55.9 22.8 5.7 2.3 11 5.3 16.1 8.8 10 6.9 17.7 15.8 22.4 27 1.8 4.2 3 8.4 2.5 13.1-.3 3-.1 6.1-.3 9.2-.4 5.5-.6 11.1-2 16.6-1.5 5.7-3.2 11.2-5.3 16.6h2.7c.1-.2.1-.3.2-.5 3.2-8.4 6-16.8 6.6-25.7zM939.1 3c-.7-.4-1.1-1.3-1.7-1.9h-8.6c.7 1.6 1.7 3.2 1.5 5 0 .2.2.3.3.5.4-.9.7-1.7 1-2.3.7.1 1.1 0 1.4.2 1.4.8 2.8 1.6 4.2 2.5 14.8 9.6 26.1 22.5 34.7 37.8 4.9 8.8 8.5 18.2 12 27.7 3.5 9.3 7.2 18.4 11.9 27.2 3.1 5.7 6.4 11.3 10.5 16.3 7.2 8.8 16.1 14.9 27.6 16.4 3.9.5 7.9.6 11.8.4 14.7-.5 29.5-.7 44.2-2 9.2-.8 18.2-1.9 27.2-3.7 1-.2 1.9-.4 2.9-.6V122c-8.6 2-17.3 3.3-26.1 4.1-17.7 1.6-35.5 2.1-53.3 2.4-10.8.2-20.1-3.8-27.5-11.6-3.3-3.5-6.2-7.5-8.9-11.5-4.7-7-8.4-14.7-11.5-22.5-3.4-8.3-6.5-16.8-9.8-25.1-9.3-22.5-23-41.4-43.8-54.8zM215.4 953.3c-1.3-8.6-3.7-16.8-6.7-24.9-5.5-14.3-11.9-28.2-22.6-39.6-1.1-1.1-1.5-2.4-1.4-3.9.1-2.7 0-5.4 0-8.1-1.2 2.6-.2 5.5-1.2 8.5-2-.7-3.2-2.1-4.6-3.1-8.6-6.2-18.1-8.7-28.6-6.5-3.3.7-6.6 1.6-9.9 2.7-19.5 6.8-38.6 14.7-57.6 22.9-8.1 3.5-14.9 8.6-20.7 15.2-5.5 6.3-9.7 13.4-13.3 20.8-3.4 6.9-6.6 13.8-10 20.6h2.7c3.1-6.4 6.2-12.8 9.3-19.1 2.7-5.5 5.7-10.8 9.3-15.8 6.5-8.9 14.6-15.8 24.9-20 11.1-4.6 22.2-9.4 33.4-13.8 9.2-3.6 18.4-7.1 27.9-10.1 12.7-4 24.1-1.3 34.1 7.6 4.4 4 8.2 8.5 11.6 13.5 8 11.9 13.3 25.1 17.6 38.7 1.2 3.9 2.1 8 2.9 12 .4 1.9.8 3.8-.1 5.9-3 .1-5.8.2-9.4.4 3.3.9 6.1.1 8.9.7h3.9c0-1.5-.1-3-.4-4.6zM229.8 33.5c8.4-.7 16.9-1.1 25.3-2.1 22.4-2.5 41.5-12.4 57.8-27.7.7-.7 1-1.8 1.5-2.7H309c-2 1.8-3.8 3.8-5.9 5.4-14.2 11.4-30.2 18.7-48.4 20.6-12.9 1.4-25.8 2.2-38.7 3-11.3.8-22.6 1.6-33.8 3.4-15.9 2.6-29.2 9.3-38.8 22.9-6.2 8.8-13 17.2-19.6 25.8-3.4 4.5-7.5 8.3-12.4 11-7.1 4-14.5 5-22.4 3.1-9.6-2.3-16.8-8-22.2-16-2.4-3.6-4.6-7.3-6.9-10.9-9.1-14.9-18.2-29.8-27.2-44.7-4.3-7.1-6.7-14.9-5.5-23.5h-4.3c-1.1 9.1 1.3 17.5 5.9 25.3.2.3.4.6.5.9 11.1 18.1 22.1 36.2 33.2 54.3 3 5 6.9 9.2 11.7 12.6 14 9.9 32.5 10.9 47-2.7 2.6-2.4 5-5.2 7.2-8 6.9-8.8 13.6-17.7 20.3-26.6 5.8-7.8 13.3-13 22.4-16.1 5.8-2 11.8-3.3 17.9-3.9 13.6-1.3 27.2-2.3 40.8-3.4zM875.2 199.8c6.8 3.7 14 6.5 21.6 8.2 11.4 2.6 22.2 1.7 31.6-6 .3-.2.9-.1 1.7-.2v7.6c.5-1.8.6-3.5.7-5.3V199h.3v1.3c.1-.7.4-1.3.7-1.8 5-6.5 7.9-14.1 11.7-21.2.9-1.7 2-3.4 3-5 .3-.4.5-.9.7-1.4.6-1.7 1.1-3.4 1.8-5 4.1-8.2 8.2-16.4 12.4-24.5 4.8-9.4 7.8-19.3 8.1-29.9.1-4.3.3-8.7-.2-12.9-.6-4.8-1.8-9.5-2.8-14.3-3.6-16.8-11.3-31.4-23.9-43.2-3.5-3.3-7.5-6.2-11.5-9.4-.1-2.7-.3-5.7-.5-9.8-.8 3.6.2 6.4-1 9-3.9-1.7-7.5-3.4-11.1-4.9-19.6-8-39.3-15.9-59.3-22.9-1.3-.5-2.5-1.3-3.7-2h-7.6c1.6.8 3.2 1.6 4.8 2.2 22.6 7.8 44.8 16.6 67 25.7 15.4 6.3 26.9 16.9 35.3 31.3 5.6 9.6 8.6 20.1 10.6 31 .7 3.5 1.9 7.1 1.8 10.6 0 7.2-.1 14.4-1.7 21.5-1.3 5.8-3.6 11.3-6.2 16.6-7.8 15.6-15.5 31.2-23.3 46.8-1.1 2.2-2.3 4.5-3.7 6.6-6.1 9.4-14.8 13.9-26 13.4-5.6-.2-11-1.4-16.3-3.2-8-2.7-15.5-6.6-22.8-10.9-1.9-1.1-3.8-2.3-5.8-3.4h-4.8c6 3.5 12.2 7.1 18.4 10.5z" class="st1"/><path d="M805.9 2.9c-5 5.1-8.4 11.2-11.1 17.7-2.7 6.5-4.8 13.1-6.3 20-2.7 12.6-5 25.4-8.8 37.8-2.3 7.7-4.7 15.5-6.8 23.3-1.4 5-2.6 10.1-3.3 15.2-1.5 9.6 1.4 17.8 8.9 24.1 3.2 2.6 6.6 5 10.1 7.1 22.5 13.6 45 27.1 67.5 40.6.2.1.4.3.7.4 0-.2.1-.4.1-.5h3.8c-6.3-3.8-12.5-7.5-18.8-11.3-2.6-1.6-5.5-2.8-7.5-5.2-.4-.5-1.2-.7-1.9-1-1.3-.6-2.7-1.1-3.9-1.8-13.2-7.8-26.3-15.5-39.4-23.5-3.7-2.2-7.2-4.8-10.4-7.7-5.8-5.2-8-11.9-7-19.5.5-3.9 1.1-7.9 2.1-11.7 3.2-11.6 6.9-23.1 9.9-34.8 2.6-9.9 4.5-20 6.7-30 2-9 4.8-17.7 8.9-26 2.5-4.9 5.6-9.2 9.7-12.8.8-.7 1.3-1.6 2-2.4h-4.3c-.3.8-.4 1.5-.9 2zM150.4 926.2c-10.4-2.8-21-3.1-31.6-1.3-12.4 2.1-23.7 7.2-34 14.4-7.2 5-13 11.5-18 18.4-.1.1-.1.2-.2.3h4.1c1.9-.2 3.7-.3 6.3-.5-2.5-.4-3.8-.6-5.2-.8.2-2.2 1.7-3.4 2.9-4.7 15.7-17.1 35.1-25.7 58.4-25.6 6.9 0 13.6.9 20.1 3.3 11.8 4.3 19 12.7 21.5 24.9.2 1.1.4 2.2.5 3.4h2.4c-1.4-15.8-11.4-27.5-27.2-31.8zM556.4 49.8c2.1 12.3 5.7 24.1 12.2 34.9 6.5 10.7 16 16.8 28.2 18.9 12.9 2.2 25.8 1.9 38.7-.4 20.9-3.7 40.4-11.4 59.2-21.1 3-1.6 5.9-3.4 8.8-5.3C711 72 717.4 66.1 722.8 59c8-10.5 12.6-22.5 14.9-35.5 1.3-7.4 2.2-14.9 3.2-22.4h-3.2c.1 1.1.3 2.1.2 3.2-.7 6.1-1.4 12.2-2.4 18.2-2.7 15.8-8.8 30-20.1 41.6-6.7 6.9-14.5 12.4-23.1 16.7-14 7.1-28.5 13-43.6 17.1-16.1 4.4-32.5 6.1-49.1 3.8-12.9-1.8-23.1-7.7-29.5-19.3-1.2-2.2-2.5-4.4-3.5-6.7-5.7-12.2-8.2-25.3-9.2-38.6-.1-1.8 0-3.6.4-5.3.8-3.6.9-7.2.2-10.7-1-5.5-.1-10.7 1.7-15.9.5-1.3.7-2.7 1.1-4.1h-3.2L556.4 8c-.4 2.8-.9 5.7-1.2 8.5-.2 2 .1 4-.1 5.9-1 9.2-.2 18.4 1.3 27.4zM1112.5 62.1c-2.2 6-5.2 11.5-10.2 15.7-9.7 8.1-21 12.1-33.5 10.3-22.3-3.2-38.6-14.8-47.5-35.9-4.4-10.4-6.8-21.2-8.2-32.3-.8-6.2-1.4-12.5-2.1-18.8h-2.2c.7 9.9 1.6 19.7 3.5 29.4s4.6 19.2 9.3 28c8.9 16.9 23 26.7 41.3 31 6.7 1.6 13.5 1.7 20.3.2 15.2-3.5 26.5-11.7 31.7-27 1.6-4.9 4.4-9.4 4.4-14.8l.9-3.9V30c-.4 3-.9 6.1-1.4 9.1-1.6 7.9-3.5 15.5-6.3 23z" class="st1"/><path d="M598.4 1.1h-3.2c-.4 1-.6 2.1-1.1 3-5.5 9.9-7.4 20.5-6.5 31.7 1.7 19.4 13.8 34.4 32.6 38.8 13.9 3.2 27.8 2.6 41.6-.7 16-3.8 29.6-11.8 41.5-22.9 6.3-5.9 10.9-12.8 13.9-20.9 2.5-6.8 3.9-13.8 4.4-21 .2-2.7.7-5.3 1-8h-3.2c.5 5.4-.3 10.8-1.2 16.1-1.9 11-5.9 21.1-13.8 29.3-9.8 10.1-21.1 17.8-34.4 22.5-14.5 5.2-29.5 6.6-44.6 4.2-18.9-2.9-30.3-14.5-34.2-30.8-3-12.3-1.5-24.3 4.3-35.6.8-1.9 1.9-3.8 2.9-5.7zM1045.4 1.1h-2.2c-3 5.6-5.1 11.4-5.8 17.8-1.4 12 1.5 22.8 9 32.2 3.7 4.7 8.3 8.4 14.1 10.5 9.7 3.6 20 1.2 27.1-6.4 3.7-3.9 5.9-8.5 7.2-13.7 1.8-7.5 2.2-15.3 2.2-23 0-1-.2-2.1-.5-3.2-1.5-4.8-3.1-9.5-4.7-14.3h-2.2c.6 1.9 1.1 3.8 1.8 5.6 1.9 5.8 3.7 11.6 3.1 17.9-.3 2.7-.1 5.4-.6 8.1-.6 3.7-1.3 7.4-2.3 11-.9 3.3-2.7 6.2-4.9 8.9-7 8.3-17.6 10-26.4 6.2-8-3.5-13.4-9.6-17-17.3-5.4-11.8-4.9-23.7.2-35.5.7-1.5 1.3-3.2 1.9-4.8z" class="st1"/><path d="M635.1 1.1h-3.2c-.2 1-.4 2.1-.8 3.1-1 2.9-2.3 5.7-3 8.6-3.3 13.3 1.1 22.6 13 28.5 6.8 3.4 13.9 4.8 21.4 3.1 13.5-3 24.1-10.1 30.2-22.9 3-6.4 4.5-13.2 3.9-20.4h-2.2c0 1.3 0 2.5-.1 3.8-1.5 18.6-11.5 31.3-29.9 36.5-11.2 3.2-21.3.3-29.9-7.7-3.4-3.2-5.1-7.3-5.1-12-.1-4 .4-7.9 1.9-11.6 1.3-3.1 2.6-6 3.8-9zM1118.2 6.9h.3c.1-1.9.3-3.9.4-5.8h-1.1c.1 1.9.3 3.9.4 5.8zM370.6 1.1c.1 1.9.2 3.9.3 5.8h.3c.2-1.9.3-3.9.5-5.8h-1.1zM183.8 1.1c.1 2 .3 3.9.4 5.9h.3c.1-2 .2-3.9.4-5.9h-1.1zM977.4 1.1h-2.2c1 .8 1.8.8 2.2 0zM1102.2 563.4c.4-1.8.8-3.5 1.2-5.3 4-16.1 6.4-32.5 6-49.1-.1-2.1-.2-4.4-.9-6.4-5.2-14.5-15.6-23-30.9-25.2-9.8-1.4-19.8-.9-29.6.5-10.9 1.5-21.4 4.7-31.5 9-11.4 4.9-23.1 5.2-34.7.9-16.5-6.1-31.7-14.6-45.3-25.8-3.7-3-5.6-6.9-5.9-11.7-1.2 1.3.4 3.5-1.6 5-1.4-1.5-2.8-2.8-4-4.3-8.2-9.5-13.2-20.6-15.6-32.8-3.2-15.9-4.8-32-6.8-48-.1-.5.3-1 .5-1.7 1.7-.2 3.5-.4 6.3-.8-3.1-.2-5-.4-7.2-.5-.5-3.1-.9-5.9-1.4-8.7-1.4-8.3-2.6-16.7-4.4-25-3.5-15.8-10-30.4-20.5-42.9-4.7-5.6-10-10.9-15.3-16-13.2-12.8-27.8-23.9-44.5-31.9-3.6-1.7-7.2-3.3-10.9-4.5-8-2.7-16.2-3.2-24.4-1.1-10.1 2.6-17.7 8.6-23.6 16.9-5.5 7.7-10.8 19.1-13.2 28.6-1.6 6.5-3.2 12.9-4.6 19.4-1.7 7.9-3 15.9-3.2 24-.3 11.4 1.6 22.6 5.1 33.4.9 2.7 2.9 5.1 2 8.2-.1.3.4 1 .8 1.2 1.4.7 1.8 2.1 2.5 3.4 5.7 11.7 13.2 22.2 21.5 32.3 5 6 10.6 11.2 17 15.7 4.9 3.4 9.8 6.7 14.8 10 15 10 26.7 23 35.1 38.8 10.5 19.9 21.8 39.3 33.3 58.7 5.8 9.8 10.8 19.9 14.8 30.6.6 1.7 1.1 3.3 1.8 5.3-2.1.3-3.8.5-6.2.9 2.7.3 4.6.5 6.5.7.5 1.3 1 2.2 1.3 3.2 2.2 7.6 4.1 15.3 5 23.2.4 3.4.7 6.8.3 10.2-.8 8.7-3.5 16.9-7.6 24.6-2.7 5.1-5.8 9.9-8.8 14.8-3.7 6.2-7.7 12.2-11.2 18.5-8.9 16-10.7 33-7 50.7 3.4 16.2 10 31.1 19.4 44.8.9 1.3 1.9 2.6 2.7 4 .2.4-.2 1.2-.2 1.8 1.1.7 2.4 1.3 3.4 2.2 1.1.9 1.9 2.2 2.8 3.2 11 12.2 24.3 19.5 41 20.1 1.2 0 2.4.3 3.9.5.1 2.5.3 4.8.4 7.1h.3c.2-2.3.3-4.6.5-6.9.8-.5 1-.6 1.1-.6.9-.2 1.8-.3 2.7-.5 10-1.5 19.1-5 27.4-10.7 6-4.1 11.3-9.1 15.5-14.9 3.9-5.5 6.8-11.8 10-17.9 3.7-7.1 4.5-14.7 3.1-22.5-1.1-5.9-3.1-11.5-5.4-16.9-2.6-6.1-4.9-12.4-6.4-18.9-3.7-15.8-1.9-30.7 6.9-44.6 4.3-6.9 9.1-13.4 14.7-19.3 9.9-10.3 21.5-17.3 35.9-19.2 9.8-1.3 19.6-2.7 29.4-3.9 9.3-1.2 17.8-4.1 24.6-11 4.3-4.3 7.1-9.4 9-15.2.7-2 1.4-4 2.2-6.2 3-.1 5.7-.2 9.3-.4-3.6-.9-6.4.1-9.2-1.1zm-2.2-2.2c-.9 3.3-1.8 6.6-2.9 9.8-4.6 12.8-13.6 20.5-26.9 23-4.9.9-10 1.4-14.9 2.1-6.4.9-12.8 1.7-19.2 2.6-14.7 2.1-26.7 9.2-36.9 19.7-6.3 6.5-11.5 13.8-16.2 21.5-8.5 14.2-9.9 29.4-6.2 45.3 1.6 6.7 4 13 6.6 19.4 2.4 5.7 4.4 11.4 5.3 17.5.8 5.3.5 10.5-1.5 15.4-3.3 8-7.4 15.6-12.6 22.8-1.3.1-2.2.2-3.1.3-.9 0-1.8 0-2.8.3 1.2.2 2.5.5 4 .8-.5.9-.8 1.6-1.2 2.1-11.1 12.1-24.7 19.1-41.1 20.1-14.8.8-27.5-4.4-38.4-14.2-2-1.8-3.8-3.8-5.6-5.8-.5-.5-.7-1.2-.9-1.9-.2-.5 1.5-1.3-.1-1.4-1.9-.1-2.8-1.3-3.8-2.6-12.9-17.4-21.4-36.6-23.6-58.3-1.3-12.2.9-24.1 6.4-35.1 2.7-5.5 5.9-10.7 9.1-15.9 3.2-5.2 6.7-10.3 9.7-15.5 2.2-3.7 4.1-7.6 5.8-11.5 5.2-11.9 6.3-24.1 3.9-36.9-3.9-20.4-11.4-39.3-21.9-57.1-11.8-20-23.4-40-34.3-60.5-8.4-15.6-20-28.5-34.8-38.4-6.3-4.2-12.5-8.5-18.7-12.9-4.3-3-8-6.7-11.4-10.6-8.3-9.5-15.7-19.7-21.5-30.9-.8-1.6-1.5-3.2-2.5-5.2 1.2-.5 2-.9 3.1-1.3-1.3-.2-2.4-.3-3.7-.5-.4-.8-1-1.5-1.2-2.4-1.1-5.1-3.9-9.6-4.8-14.7-.9-5.1-1.9-10.3-2.3-15.5-.4-5.2-.4-10.5.2-15.6.7-6.6 2.1-13.1 3.3-19.7.2-.9.8-1.6 1.1-2.4.5-1.7 1.2-3.5 1.2-5.2 0-2.8.7-5.3 1.4-7.9 2.3-8 5.2-15.7 9.5-22.8 2.2-3.7 4.7-7.3 7.5-10.5 10-10.9 22.5-14.2 36.8-11.3 5.1 1 10 3.1 14.7 5.4 12.7 6.2 24.4 13.9 34.9 23.3 7.1 6.3 14.1 12.9 20.6 19.8 12.7 13.4 20.2 29.6 24.2 47.5 2.4 10.7 4 21.5 5.1 32.5.6 6.2 1.8 12.4 2.7 18.7 1.4 9.6 2.7 19.2 4.2 28.8 1.1 6.8 3.1 13.3 5.8 19.6 4 9.2 9.7 17.2 17 24 15.1 14 32.6 24.1 51.8 31.4 12.3 4.6 24.7 4.3 36.8-.9 8.3-3.6 16.8-6.3 25.7-8 10.9-2.1 21.8-2.6 32.8-1.5 13.8 1.4 23.7 8.6 29.3 21.5 1.5 3.4 1.6 7 1.7 10.5-.1 16.6-2.8 33.1-7.2 49.2zM584.1 611.4c-1.6-5.5-4.8-7-10.4-5.3-1 .3-2 .7-3 1.2-2.6 1.2-5.2 2.4-7.9 3.6-1.3.6-2.6 1-4.2 1.6-.2-2.1-.5-3.8-.7-5.5-.5 1-.5 2.1-.4 3.1.2 2.5-1.1 3.9-3.3 5-6.1 3.1-12 6.4-18.1 9.7-1.6.8-3.2 1.7-4.8 2.4-10.9 4.7-22.2 7.2-34.2 5.8-5.9-.7-11.5-2.7-17.1-4.9-8.9-3.6-17.3-8-25.5-12.9-12.8-7.7-24.8-16.6-36.5-26-13-10.4-27.1-18.9-42.5-25.3-1.6-.7-3.4-1.2-4.5-2.8-1.9.7-3.5-.4-5.2-.9-2.4-.7-4.8-1.6-7.2-2.3-10.4-3.1-20.9-5.4-31.6-6.5-10.5-1-19.9 1.6-28.1 8.5-1.8 1.5-3 3.7-5.5 4.2-.3.1-.4.8-.6 1.2-.5.9-.9 1.9-1.4 2.8-2.1 3.6-4.1 7.2-6.2 10.7-3.1 5.1-5.9 10.3-9.3 15.1-5.6 7.8-12.9 13.5-21.9 16.9-6.7 2.5-11.6 7.1-15.6 12.8-3.8 5.5-3.9 11.5-.5 17.3 1.3 2.3 3.1 4.4 5 6.3 3.8 3.8 8.1 7.2 12.7 9.9 5.6 3.3 10.7 7.2 15.4 11.8 9.6 9.5 16.4 21 20.9 33.6 2.7 7.6 6 15 9.5 22.3 1.5 3.1 3.2 6.1 5.1 8.9 7.9 11.8 19.2 16.4 33 15.2 5-.4 10-1.5 14.9-2.5 4.4-.9 8.8-2 13.1-3 .8-.2 1.7-.2 2.8-.3.3 2.3.5 4.3.9 7.3.2-3.2.4-5.5.6-8.1 4.5-1 8.7-1.9 12.8-2.8 7.1-1.7 14.2-1.6 21.4-.3 8 1.5 15.9 2.8 23.9 4.3 11.4 2.2 22.8 2.9 34.3 1 14.4-2.4 28.8-4.7 43.1-7.2 6.9-1.2 13.8-2.4 20.5-4.4 16.3-4.8 29-15 38.8-28.7 12.7-17.7 19.8-37.3 21.7-59 1-11.4-1.1-22.7-4.2-33.8zm-3.8 61c-4 11.9-9.7 22.8-17.3 32.8-11.2 14.8-25.8 24.5-44.1 27.8-19.3 3.5-38.6 6.7-57.9 9.8-10 1.6-20.1.7-30-1.3-8.3-1.6-16.6-3-24.9-4.5-8.6-1.6-17.2-.9-25.7 1.2-9.4 2.3-18.9 4.5-28.3 6.7-6 1.4-12 2.1-18.2 2-10-.2-18.1-4.2-24-12.3-2-2.7-3.8-5.7-5.4-8.7-3.6-7.2-7-14.5-9.7-22.2-3-8.5-6.9-16.6-12-24.1-6.7-9.8-15.1-17.8-25.3-23.9-4.7-2.8-9-6-12.8-9.8-1.9-1.9-3.6-4-5-6.3-2.8-4.6-2.6-9.3.3-13.8 3.5-5.4 8-9.9 14-12.2 11-4.2 19.5-11.3 25.9-21 2.8-4.2 5-8.7 7.6-13 2.1-3.6 4.1-7.2 6.4-10.6 2.4-3.5 2.6-3.4 6.5-4.5-.4-.3-.7-.7-1.3-1.2 5.3-5.1 11.5-8.1 18.6-9.1 4.1-.6 8.3-.4 12.4.2 11.4 1.6 22.6 4.2 33.5 7.9.8.3 1.6.7 3.2 1.5-2.2.3-3.6.5-5 .7.2.2.4.4.6.4 2.5.1 5-.3 7.6.8.3 1.3.6 2.6.9 4.2.3-1.6.5-2.7.8-4.3 1.4.5 2.6.7 3.7 1.2 14 5.9 27 13.5 38.9 22.9 9.9 7.8 19.9 15.5 30.4 22.4 9.9 6.5 20.2 12.4 31.2 17.1 1.2.5 2.3 1 3.5 1.5 19.2 8.4 37.9 6.2 56.2-2.7 1.8-.9 3.5-1.9 5.2-2.8 9.8-5.6 20-10.5 30.4-15.1 1.8-.8 3.7-1.4 5.6-1.8 1.8-.4 3.3.4 4 2 .9 2.1 1.6 4.4 2.2 6.6 5.1 18.6 3.5 37.2-2.7 55.5zM698.2 523.2c4.3-10.2 5.1-20.6.2-30.8-1.9-4-4.2-8-6.6-11.7-3.8-5.7-8.6-10.6-13.6-15.2-6.8-6.4-13.5-12.9-20.2-19.5-5.1-5-10.1-10.2-15.2-15.3-1.5-1.5-3.2-2.9-4.9-4.2-5.9-4.4-12.6-6-19.9-5.1-4.8.6-8.8 2.8-11.9 6.7-2 2.6-3.3 5.6-4.2 8.7-1.6 5.2-2.1 10.6-1.8 16 .6 11.6-.6 23-3.3 34.2-2.6 10.6-5.5 21.2-8.5 31.8-4.1 14.2-6.8 28.7-6.8 43.5 0 1.6-.1 3.2 0 4.9.6 5.9 1 11.8 2.1 17.7 1.2 6.2 4.5 8.6 10.7 8.2 3.6-.2 7.1-.9 10.6-1.7 18.3-4.1 34.9-12.2 50.1-23.1 1.9-1.3 3.5-3.2 6-3.4.3 0 .8-.3.8-.5 1.6-4.2 5.7-5.7 8.6-8.5 6.9-6.6 13.7-13.3 20-20.4 3.1-3.8 5.8-7.8 7.8-12.3zm-38 37.9c-2.1 1.7-4.4 2.8-6.8 3.4 0 .5.3 1.2 0 1.4-.9.9-1.9 1.7-2.9 2.4-16 11.1-33.6 18.7-52.8 22-1.6.3-3.2.4-4.8.4-3.2 0-5.4-1.7-6.5-4.7-.3-.8-.6-1.7-.8-2.6-1.1-5.8-1.6-11.7-1.7-17.8 3-1.9 6.3-.3 9.5-1.3-3.2-.7-6.3.3-9.5-.8-.1-1.1-.3-2.1-.2-3.2.6-13.7 2.8-27.2 6.7-40.3 3-10.2 5.8-20.4 8.4-30.7 3.1-12.5 4.4-25.1 3.9-38-.2-5.5.4-10.8 2.3-15.9 3.6-9.9 11.2-13.3 20.9-11.7 5.7.9 10.4 3.8 14.5 7.8 4.6 4.5 9.1 9.2 13.7 13.8 7.6 7.4 15.2 14.9 22.8 22.2 5.5 5.2 10.8 10.6 14.7 17.1 1.8 3.1 3.5 6.3 5 9.5 3.7 8.1 3.4 16.4.6 24.7-1.7 5.2-4.4 9.9-8 14-8.9 10.3-18.5 19.8-29 28.3zM688.8 955.2c4.3-7.2 6.9-15 7.7-23.3.5-5.2 1-10.5.1-15.6-1.1-6.1-3.3-12.1-6.6-17.5-2.5-4.3-6.4-6.7-11.3-7.5-6.9-1.1-12.8.8-17.5 6.1-3.7 4.1-6.4 8.8-7.5 14.1-3.1 15.1-1.8 29.6 6.9 42.9.4.7.6 1.5 1 2.7h-7.9c-.1.3-.2.5-.3.8h7c.8 0 1.7.1 2.5.2h5.2c-1-.7-1.9-1.4-2.8-2.2-2.9-2.8-5-6.2-6.4-9.9-4.3-10.8-5.4-22-2.8-33.3 1.1-5 3.5-9.4 6.9-13.3 2.4-2.8 5.4-4.7 9-5.6 7.2-1.7 14 1.5 17.3 8.7 3.8 8.2 6.5 16.7 5.3 26-1 7.9-2.5 15.6-6.3 22.7-.4.8-.9 1.6-1.3 2.4-1.2 2.5-3 3.9-6 3.6-1.6-.2-3.2 0-4.9.5 1.8.1 3.6.2 6.5.4h4.3c.7-1 1.3-1.9 1.9-2.9zM748.8 557.8c-.3-.2-.7-.5-.9-.4-3.4 1.9-6.8 3.8-10.1 5.8-.2.1 0 .6 0 1.2 1.5.1 3.1-.2 4.4.4 1.5.6 2.6.5 4 .2 1.5-.4 3.1-.2 4.7-.3v-.3c-1.9-.1-3.8-.3-5.7-.4-.9-3.7 3.9-3.4 3.6-6.2zM1057.6 768.1c-.2.2-.2.7 0 1 .1.2.6.6.8.5 3.8-1.5 7.3-3.5 10.6-6-1.9-2.8-1.9-2.9-3.5-2.9-2.3-.1-4.6 0-6.9 0v.5c2.4.1 4.9.2 7.3.4.1.4.2.8.2 1.2-2.1 1.2-4.3 2.5-6.4 3.7-.8.4-1.5 1-2.1 1.6zM281.5 761.2c1.2 1.5 2.2 3 3.3 4.3 1.1 1.4 2.3 2.7 3.7 3.9.9.8 1.6.2 1.8-1-2.4-3-4.8-6.1-7.4-9.3-3.6 2.6-7.8.9-11.6 2.1h10.2zM413.8 565c.1-.3.3-.6.4-.9-.9-.8-1.6-1.8-2.6-2.5-2.1-1.6-4.4-3.1-6.6-4.6-.7-.5-1.6-1.2-2.4-.3-.9 1 .1 1.6.8 2.1 1.4 1.1 2.9 2 4.3 3.1.5.3.9.8 1.5 1.5-1.3.4-2.2.7-3.8 1.2 3.5.1 6 .3 8.4.4zM551.7 171.6c2.8-1 5.9-2 8.9-3.1 1-.4 2.5-.7 2.1-2-.6-2-2-.2-3.1-.3-.3 0-.7-.2-1.2-.4-.1-2.6-.3-5.2-.4-7.9h-.5v9.1c-2.2.9-4.1 1.5-5.9 2.3-1 .4-1.2 1.3.1 2.3zM1118.2 456.9c-.1-2.6 1.5-5.2.2-7.9-2.1 1.9-4.2.7-6.3.6-3.7-.1-3.7-.3-6.2 1.1 1.7 1.5 3.7 1.1 5.5 1.5 2 .4 4.3-.3 6.2.9.3 1.4.4 2.6.6 3.8zM540.8 765.1c.4.3.8.7 1.2.7 3.6-.3 6.9-1.6 10-3.3.4-.2.5-1.1.8-1.9h-11c-.2 0-.4.3-.6.4 1.4.2 2.7.4 5 .7-2.6 1.2-4.1 1.9-5.6 2.6.1.5.1.8.2.8zM1117.3 692.5c-2.1 4-1.6 8.3-2.6 12.9 1.5-.2 2.5-.3 3.8-.5.7-9.3.6-9.9-1.2-12.4zM561.1 340.4c1.6-.8 3.2-1.5 4.8-2.3.4-.2.8-.6 1.1-1 .1-.1.1-.4 0-.5-.2-.3-.5-.7-.6-.7-1 .2-2 .5-3 .8-1.7.4-3 1.9-4.8 1.6-.4-.6-.6-1-.8-1.3-.8 1.5-1.5 3-2.3 4.6.8 1 1.6 2.1 3 3.9-1-3.3.8-4.3 2.6-5.1zM187.6 624.1c-.2-2.5-.6-5-.9-7.4-.1-1.1 0-2.5-.6-3.1-1.8-1.9-1.3-4.4-2-7.5-.6 7.2-.4 13.3 2 19.8.8-.9 1.6-1.4 1.5-1.8zM231.1 564.7c.9 0 1.7-.1 2.6-.1-1.1-.6-2.1-.4-3.2-.6-1.2-.2-2.4-.6-3.7-1-3.4 2-6 4.9-8.8 7.5-.2.2.2.9.4 1.7.8-.3 1.5-.5 2-.9 1.8-1.4 3.7-2.9 5.4-4.4 1.5-1.4 3.2-2.2 5.3-2.2z" class="st1"/><path d="M832.9 564.9c2.4-.1 5-.3 7.5-.4-3.2-.8-6.5.1-9.3-.8-2.2-2.5-2.6-5.8-5.6-7.6-.2.8-.6 1.3-.5 1.7 1.6 3.5 3.1 7.1 6 10.3.8-1.3 1.3-2.1 1.9-3.2zM373.9 765.4c.9-.2.8-1 .4-1.8-1-.1-2.2-.6-3.1-.2-2.9 1-5.6 2.3-8.4 3.6-.3.1-.4.9-.4 1.3 0 .2.6.5.9.5 2.1-.5 4.1-1 6.9-1.7.3 2.1.5 3.7.7 5.3.5-1.1.5-2.2.5-3.3 0-1.8.5-3.1 2.5-3.7zM529.1 141.7c-.1 3.7-.1 7.4 0 11.1 0 .2.7.6 1.2.7.2 0 .7-.4.7-.6.1-1.8 0-3.5 0-5.3h.2c-.1-1.9-.2-3.9-.3-5.8 0-.2-.5-.7-.7-.7-.4.1-1.1.4-1.1.6zM1120 682.5V674c-.2.3-.4.7-.7.9-.3-.2-.6-.3-1.2-.6-.1 3.1-.7 6 0 8.9 1 .3 1.6-.1 1.9-.7zM236.1 557.2c3.5-2 6-5 8.4-8.1.1-.2 0-.8-.2-.9-.4-.2-1.1-.4-1.4-.2-1.8 1.5-3.4 3.1-5.1 4.8-1.1 1.1-2.1 2.3-3.5 3.9 1.2.3 1.6.6 1.8.5zM744 60.7c1.5-3.4 2.9-6.8 4.2-10.3.1-.3-.4-.8-.8-1.4-1.3 1.1-2.5 2.2-3.2 2.8-.4 2-.6 3.6-.9 5.1-.3 1.5-2 2.7-.6 4.5.4-.3 1.2-.4 1.3-.7zM928.3 374.2c-.3.1-.9.3-.9.4-.2 5 1.3 9.6 3.1 14.4 1.3-5.8.8-9.2-2.2-14.8zM531.4 130.2c.3-3.3.6-6.7.8-10.1 0-.9-.4-1.7-1.8-1.4-1.1 4.1-1.1 8.2-.6 13.1.8-.9 1.6-1.2 1.6-1.6zM695.2 344.3c-1-1-1.7-.8-2.5-.2-2.5 2-5 4-7.4 6.1-.3.3-.4.9-.9 2.4 5.2-1.7 8.3-4.5 10.8-8.3zM839 597c-2.2 4.1-3.3 8-4.9 11.6-.1.2.2.8.4.9.5.1 1.2 0 1.4-.2 2.3-3.2 3.8-6.8 4.2-10.7 0-.3-.4-.6-1.1-1.6zM496.4 768.4c3.9.8 7.8.6 11.6-.4.2-.1.3-.8.5-1.6-4.4-.3-8.6-.8-12.6.8.2.6.3 1.2.5 1.2zM796.9 495.1c2.4 4 3.7 7.9 6.1 11.4.5-.5 1.2-.9 1.2-1.1-.8-3.9-2.6-7.4-5.1-10.5-.2-.2-1.1.1-2.2.2zM473.5 768.7c4.4 1.4 9.9 1.1 13.3-1.6-2.5-.1-3.9-.2-5.3-.2-2.3 0-4.6.1-7 .3-.5.1-1.2.6-1 1.5zM491.8 604.8c.1 0 .2-.3.2-.5-.1-.3-.2-.8-.4-.8-3.8-.5-7.6-.9-12.2-1.4.3 1.1.3 2 .5 2 3.9 1 7.8 2 11.9.7zM587.4 333.1c.7-.1 1.2-.6 2-.9-.5-.6-.8-1.3-1.1-1.3-4.1-.1-8.1.2-12.5 2.1 1 .7 1.6 1.3 2.1 1.3 3.1-.3 6.3-.7 9.5-1.2zM530.7 96.3c-.4.2-1 .7-1 1 .1 3.7-.3 7.5 1 11.1 0 .2.2.2.4.4.3-.1.8-.2.9-.4 1-3.9.5-7.7-.4-11.6-.2-.3-.8-.6-.9-.5zM757.7 493.1c-2 3.8-2.1 7.7-2.4 11.6 0 .4.7.9 1.2 1.4.4-.3.6-.4.6-.6.7-3.8 1.4-7.7 2-11.5 0-.2-.8-.6-1.4-.9zM395.9 550.9c-3.9-3-7-5.3-10.4-7.3-.3-.2-1.1 0-1.4.3-.2.2-.2 1.1.1 1.3 3 2.2 6.1 4.3 9.2 6.4.3.2 1-.3 2.5-.7zM509.4 442.6c-.2.3-.1 1.1.2 1.3 3.1 2.1 6.3 4 9.5 6 .2.1.9-.3 2-.8-3.4-3.2-6.8-5-10.3-6.9-.4-.2-1.2.1-1.4.4zM764.3 209c-4.7 2-7.1 3.8-8.9 6.3.3.2.6.6.8.5 3.8-1.4 7.2-3.7 10.6-5.9-.1-.4-.1-.8-.2-1.2-.8.1-1.6 0-2.3.3zM739.1 230.2c-.1.1.4.5.7 1 4.1-2 6.2-5.8 8.8-9.6-1.1-.1-1.7-.3-2-.1-3.6 1.9-5.6 5.3-7.5 8.7zM538 548.3c1-3.7 2-7.5 2.8-11.2 0-.2-.8-.5-1.3-.9-1.9 3.8-2.4 7.9-3.5 12.5 1.2-.2 2-.2 2-.4zM521.3 590c2.8-2.6 4.7-5.8 6.2-9.3.3-.7-.2-1.4-1.4-1.5-2 3.4-4.8 6.4-6.3 10.2-.1.2.3.5.5.8.4-.1.8 0 1-.2zM405.7 761.3c.6.3 1.1.9 1.7.9 3.8.1 7.5 2 11.7 1-.3-.7-.4-1.3-.8-1.5-4-1.5-8.2-1.7-12.6-.4zM845.7 738.2c.2-.3.7-.6.6-.8-1.6-3.5-3.2-7-4.9-10.5-.1-.3-1.1-.1-1.9-.2 1.8 6.3 3.7 9.8 6.2 11.5zM196.6 645.6c-1.7-4-3.6-7.7-6.2-11.7-.6.9-1.1 1.2-1 1.5.9 4 2.9 7.5 5.5 10.6.2.1.9-.2 1.7-.4zM365.8 532.3c3 2.2 6 4.3 9.1 6.3.3.2.9-.2 2.2-.5-3.6-3.3-7.1-5.8-11.4-8 .1 1.1-.2 2 .1 2.2zM234.7 687.9c2.7 1.9 4.7 4.8 8.2 6.1.1-.9.3-1.6.1-1.8-2.8-2.5-5.7-4.9-8.6-7.2-.2-.2-.9.2-1.9.4.9 1 1.4 1.9 2.2 2.5zM821.9 547.2c-2.1-4.1-3.5-7.9-6.1-11.7-.7.8-1.1 1.1-1.1 1.3.9 3.9 2.8 7.3 5.1 10.5.2.3 1.1 0 2.1-.1zM283.8 510.8c3.9-.2 7.4-1.9 11.1-3 .2-.1.5-.6.5-.8-.2-.4-.7-1.1-1-1-3.8.6-7.6 1.3-10.9 3.6-.2.1-.1.6-.1 1 .1 0 .2.2.4.2zM620.5 338.6c3.5 2.1 7.3 3.7 11.5 4.4.2 0 .4-.5 1-1.2-3.6-2.2-7.4-3.3-11-4.6-.7-.3-1.5 0-1.5 1.4zM470.1 599.3c-3-2.5-6.7-4-10.2-5.5-.3-.1-.9.4-1.2.7-.1.1.1.8.3.9 3.3 1.7 6.6 3.4 10 5 .3.1.9-.3 1.2-.5 0-.3 0-.5-.1-.6zM193.4 592.2c-.3-.2-1.1 0-1.4.3-2.5 2.8-4.3 6-5.4 9.6-.1.3.4.9.9 2.1 2.4-4 4.4-7.3 6.3-10.7.2-.3-.1-1.2-.4-1.3zM994.4 451.1c2.5 1.6 3.4 1.7 8 1.3 1.7-.2 3.5 0 4.7-1.5-.4-.5-.6-1-.8-1-4-.3-8 .2-11.9 1.2zM736.5 69.8c-2.2 2.8-4.3 5.7-6.4 8.5-.2.2 0 .7 0 1.4.7 0 1.2.1 1.3 0 2.9-2.4 4.9-5.6 6.8-8.8.2-.3-.1-1.1-.4-1.3-.2-.2-1.1-.1-1.3.2zM719.2 280.3c-1.2 1.1-1.7 1.3-1.8 1.7-1 3.2-2 6.5-2.9 9.8-.2.7-.1 1.5.9 1.6.4 0 1-.4 1.2-.8 1-2.9 1.8-5.8 2.6-8.7.2-.8 0-1.7 0-3.6zM680.5 597c3-1.9 5.8-3.9 8.7-6 .3-.2.3-.9.4-1.4-.6-.1-1.5-.5-1.8-.2-2.9 2-5.8 4-8.6 6.1-.2.2-.2.6-.5 1.3.7.1 1.5.5 1.8.2zM382.5 761c1 .7 1.6 1.4 2.1 1.3 3.7-.3 7.5-.7 11.2-1.1.2 0 .6-.6.6-.7-.2-.4-.5-1.1-.8-1.1-4.4-.4-8.5.2-13.1 1.6zM721.9 86.4c-2.9 2-5.8 4-8.7 6.2-.3.2-.2 1.2-.3 2.2 4.2-1.6 7.2-4.1 10.1-6.6.3-.2.4-1.1.2-1.4-.1-.3-1-.5-1.3-.4zM755 550.3c.5 0 1.1-.2 1.3-.5 1.9-3.3 2.4-7 2.4-10.8 0-.4-.6-.7-.9-1-.3.2-.5.2-.6.3-1 3.7-1.9 7.5-2.8 11.2 0 .3.4.8.6.8zM940.4 417.1c-.2.4-.7.9-.6 1.2 1.2 3.8 3.4 7 6.2 9.9.2.2.8.1.9 0 .2-.4.5-1.1.4-1.4-1.8-3.1-3.8-6.1-5.7-9.1-.3-.3-.7-.3-1.2-.6zM701 335.7c3-2.9 4.2-6.7 5.1-10.7 0-.2-.4-.8-.6-.7-.5 0-1.2.2-1.3.5-1.5 3.2-2.9 6.4-4.3 9.6-.1.3.3.9.4 1.3.4 0 .6.1.7 0zM920.6 342.8c.6-.3 1.2-.5 1.2-.6.1-4.1-.7-8-2.3-11.7-.1-.2-.6-.1-1.3-.3-.1 4.4.6 8.6 2.4 12.6zM661.8 610.1c3.2-2.2 6.3-4.5 9.4-6.8.1-.1-.3-.9-.5-1.7-3.9 2-7.2 4.5-11 7.8 1.2.5 1.8.9 2.1.7zM569.9 747.7c-2.9 2.5-6 5.1-9.7 8.2 1.2.5 1.8 1 2.1.9 3.5-2 6.5-4.5 8.9-7.6.3-.6 0-1.4-1.3-1.5zM308.2 780.5c.5.1 1-.6 2.2-1.3-4.4-1.7-8.1-3.2-11.9-4.6-.2-.1-.8.2-.9.4 0 .5 0 1.2.2 1.4 3.2 2.3 6.7 3.5 10.4 4.1zM717.8 573.3c.4-.1 1-.2 1.5-.4l7.5-3c.5-.2 1-.4 1.4-.8.3-.3.6-1 .5-1.3-.2-.3-1-.7-1.3-.6-3.3 1.3-6.6 2.7-9.9 4.1-.2.1-.3.2-.4.4-.1.3-.2.7-.1 1s.4.4.8.6zM524.5 52.6c-.3-1-1.2-1.1-2.2-.1.8 3.9 1.4 7.9 3.3 12.1.6-.8 1.4-1.4 1.3-1.7-.7-3.5-1.5-6.9-2.4-10.3zM651.2 120.9c.2.3 1 .7 1.3.5 3.2-1.2 6.4-2.4 9.5-3.7.5-.2.8-.9 1.3-1.5-.6-.3-1-.7-1.2-.6-3.5 1.2-7 2.5-10.5 3.9-.3.3-.6 1.2-.4 1.4zM264.6 521.7c-.2.3 0 1 .2 1.4.1.2.7.3.9.2 2.9-2.3 5.8-4.7 8.6-7.1.2-.2 0-.9-.1-2.3-4 2.4-7.2 4.7-9.6 7.8zM675.3 354.1c-.1-.1-.2-.4-.3-.4-3.8-.5-7.7-.9-11.5-1.3-.2 0-.6.8-1 1.4 4.1 2 8.3 2.1 12.5 1.2.2 0 .2-.6.3-.9zM642.7 622.2c-.2.2.2.9.3 1.7 3.8-2.1 6.7-5 9.8-7.6.2-.1-.2-.9-.4-1.7-4 1.9-7.1 4.5-9.7 7.6zM830 618.1c-.6.2-1.5.4-1.7.8-1.4 3.2-2.7 6.5-3.8 9.8-.1.4.6 1 1.2 1.8 2.3-3.7 3.2-7.5 4.7-11 .2-.3-.2-.9-.4-1.4zM490.6 433.3c2.8 1.7 5.6 3.2 8.4 4.8.1.1.4.2.5.2.5-.1 1.2-.2 1.4-.5.2-.3-.1-1.2-.4-1.4-3.3-1.8-6.6-3.5-9.9-5.3-.1-.1-.3.1-1.3.4.5.8.8 1.5 1.3 1.8zM1028.9 786c.7-.5.5-1.2-.4-1.9-3.6 1.5-7.3 3.2-10.4 5.9-.1.1.1.6.2 1.7 4.1-1.5 7.5-3.4 10.6-5.7zM622.8 649.9c-2.1 3.3-3.5 6.9-5 11 1 0 2 .2 2.1 0 1.6-3.3 3-6.7 4.5-10.2.1-.2-.4-.8-.8-1.1 0-.2-.6 0-.8.3zM998.4 801.6c.3.2.6.6.8.5 3.9-1.1 7.5-3 10.5-5.7.2-.1-.2-.9-.4-1.4-5.4 2-9.3 4.3-10.9 6.6zM1028.2 448.1c.3-.1.6-.7 1.6-1.9-5.1 0-9.2.6-14.3 2.4 1.5.9 1.9 1.3 2.3 1.3 3.5-.5 7-1.1 10.4-1.8zM1097.2 740.8c-.8.8-1.4 1.6-2.1 2.5-.1.1-.2.3-.1.5.1.3.2.7.4.9.2.2.8.3.9.2 3.1-2.5 5.7-5.3 7.4-9 .1-.3-.4-.8-.7-1.6-2.5 1.9-3.8 4.5-5.8 6.5zM577 739.5c-.2.2.2.9.5 1.3.1.1.8 0 1-.1 2.9-2.7 4.7-6.2 7.2-10.3-1.4-.1-2.1-.3-2.3-.1-2.2 3-4.4 6-6.4 9.2zM1111.7 715.8c-1.3 2.9-2.5 5.9-3.6 8.9-.2.6.1 1.3.1 2.2.8-.3 1.5-.4 1.7-.8 1.9-3.4 3.4-6.9 4.2-10.5-1.3-1.2-2-.6-2.4.2zM595.8 710.7c-.5.1-1 0-1.1.2-1.9 3.2-3.8 6.4-5.7 9.7-.2.3.2 1.1.5 1.3.3.2 1.2-.1 1.3-.4 1.8-3.1 3.6-6.2 5.2-9.3.3-.4-.1-1-.2-1.5zM609.9 681.7c.5 0 1.2 0 1.4-.3 1.5-3.4 3-6.9 4.3-10.4.1-.2-.2-.6-1-2.3-2.2 4.7-4.2 8.2-5.2 12.1 0 .3.3.9.5.9zM214.6 671.7c3.3 3.3 6.1 6 9.4 8.1.3.2 1-.1 1.4-.4.2-.1.2-.8.1-.9-2.9-2.6-5.9-5.1-8.9-7.6-.1-.1-.8.3-2 .8zM758.2 528.3c.2-4.8.4-8.9-1.6-13.5-.6 1-1.3 1.6-1.2 2.1.2 3.4.6 6.7 1.1 10.1-.1.4.8.7 1.7 1.3zM756.7 15c.5-2.9.8-5.9 1.1-8.9 0-.1-.5-.3-.8-.5-.3.2-.8.3-.8.5-.8 3.4-1.5 6.9-2.2 10.3-.1.5.3 1 .4 1.5.3.1.6.1 1 .2.5-1 1.1-2.1 1.3-3.1zM600.3 141.7c0-.2-.6-.4-.9-.4-3.6 1.4-7 3.2-9.8 6-.2.2.2.9.4 1.7 3.7-1.7 6.9-3.8 10.1-5.9.3-.2.2-.9.2-1.4zM530.3 568.9c-.1.3.4 1.1.7 1.2.4.1 1.2-.2 1.3-.6 1.4-3.5 2.5-7 3.3-11.6-1.3.4-2 .5-2.1.8-1.2 3.4-2.2 6.8-3.2 10.2zM429.9 765.7c3 .6 6 1 9.2 1.6.6-.3 1.5-.4 2-1 .6-.5-.4-1.3-2.1-1.6-1.6-.2-3.2-.5-4.8-.7-1.4-.2-2.8-.4-4.2-.5-.4 0-.8.4-1.3.7.4.5.7 1.4 1.2 1.5zM873.1 256c-.1-.1-.5.4-.9.8 2.6 3.2 5.9 5.5 9.3 7.7.2.1.7-.1.9-.3.2-.2.4-.8.2-.9-2.8-3-5.6-5.9-9.5-7.3zM604.7 691c-2.1 3.3-3.8 6.8-5 10.3.8 1 1.7 1 2 .3 1.7-3.2 3.3-6.4 4.8-9.6.2-.3-.1-1.1-.5-1.4-.2-.1-1.1.1-1.3.4zM824.6 674.3c.7-3.8-.6-7.3-1.1-11 0-.2-.6-.6-.8-.5-.4.2-1.1.6-1 .9.3 3.7 0 7.5 2 11.1.6-.4.9-.4.9-.5zM200.7 655.3c2.3 3 4.6 5.9 7 8.7.2.2 1.1-.1 2.3-.3-2.9-3.7-5.4-6.8-8.6-10.8-.4 1.5-.8 2.2-.7 2.4zM262.6 718.9c-.2 0-.4.7-.3.9l5.1 9.9c.1.2.6.2 1 .3.1 0 .3-.1.4-.2.1-.3.4-.7.3-.9L264 719c-.1-.2-.9-.2-1.4-.1zM251.9 540.8c2.9-2.8 5.5-5.9 7.6-10.2-1.1.1-2-.1-2.3.2-2.2 2.8-4.4 5.6-6.5 8.4-.1.1-.1.3-.1.5.1.3.2.7.4.9.2.2.8.3.9.2zM822.4 652.5c1-4.5 1.5-8.6 1.4-12.8-.6 0-1.2-.1-1.3 0-2 3.6-1.7 7.5-1.5 11.5 0 .3.6.6 1.4 1.3zM792.7 486.5c-.8-2.5-2.8-3.8-4.5-5.2-1.5-1.2-2.9-2.7-5-2.8-.3 0-.6.3-.9.4 0 .2-.1.4 0 .5 2.9 2.5 5.8 5 8.8 7.5.2.2.9-.2 1.6-.4zM527 357.7c-3.8 1.6-7.3 3.5-10.1 7.1.7 0 1.5.2 2 0 2.8-1.6 5.6-3.2 8.3-4.9.3-.2.6-.5.7-.8.1-.3.1-.7-.1-1-.1-.2-.6-.5-.8-.4zM772.9 478.5c0-.4-.1-.7-.1-1-.6-.1-1.3-.4-1.8-.3-3.6.7-6.5 2.6-8.8 5.5-.5.6-.7 1.3.1 1.8.3.2 1.1.1 1.4-.1 2.1-2 4.2-3.8 7-4.7.7-.4 1.5-.9 2.2-1.2zM631.2 128.9c3.5-1.2 6.9-2.6 10.4-3.9.2-.1.2-.6.4-1.8-4.6.8-8.5 2.2-12.8 4.6 1 .6 1.6 1.2 2 1.1zM547.6 347.2c-.6-.4-.9-.7-1.2-.7-4 1.1-7.2 3.5-11.2 6.4 1.4.5 2 1 2.2.8 3.6-1.9 7.4-3.3 10.2-6.5zM857.3 756.5c-2-3.5-3.4-7.4-7-10.5-.1 1.3-.4 2.1-.2 2.6 1.9 3.3 3.3 7 6.6 9.8.3-1 .8-1.6.6-1.9zM541 170c-3.3-1.2-5.9-3.3-7.7-6.4-.2-.3-.9-.3-1.4-.5-1.1 1.7.1 2.8.9 3.9 1.8 2.5 4.3 4.3 7.4 5 .5.1 1.2-.3 2-.5-.6-.7-.8-1.3-1.2-1.5zM610.3 333.3c-2.6-.7-5.2-1.3-7.9-1.7-1.1-.2-2.4.1-4.5.2 1.2 1 1.6 1.6 2.1 1.7 3.2.7 6.3 1.4 9.5 1.9.7.1 1.6 0 1.5-1 .1-.3-.3-1-.7-1.1zM1086.1 750.9c-3 2.3-6.9 3.5-9.4 6.9 2.6.2 2.7.3 3.3-.2 2.8-2 6.4-3.1 8.5-6.8-1.1 0-2-.2-2.4.1zM913.7 308.2c-.3.2-.8.5-.8.6.5 4.1 1.7 7.9 3.3 12.1.8-.7 1.4-.9 1.3-1.1-.6-3.1-1.3-6.2-2.1-9.3-.1-.9-.3-2.1-1.7-2.3zM955 812.5c4.2 1.3 8 .9 11.7-.1.4-.1.6-.7.9-1.1-.5-.3-1.1-1-1.5-1-3.2.3-6.3.7-9.5 1.2-.5 0-1 .6-1.6 1zM922.2 811.7c-3.3-.6-6.7-1.2-10-1.7-.5-.1-1 .2-1.9.4.6.7.9 1.4 1.4 1.6 3.7 1.1 7.4 2.1 12.1 1.1-1.1-.9-1.3-1.3-1.6-1.4zM708.3 314.9c.5 0 1.2-.1 1.3-.4 1.2-3.5 2.2-7.1 3.3-10.7.1-.3-.3-.6-.8-1.9-2.5 4.3-3.4 8.2-4.3 12.1-.1.3.3.9.5.9zM508.3 369.6c-.3-.3-1.1-.4-1.4-.2-3.2 1.8-6.4 3.8-9.4 5.5.1 1.6.9 2.1 1.8 1.6 3-1.6 5.8-3.4 8.7-5.2.5-.3 1-1 .3-1.7zM1084.9 447.6c-.4 0-.9.7-1.7 1.4 4.3 2 8.5 1.3 13.2.9-.4-.5-.8-1.2-1.3-1.3-3.4-.5-6.8-.8-10.2-1zM904 288c-.3.2-.6 1-.5 1.3 1.6 3.2 3.3 6.3 5 9.4.2.3.9.4 1.5.6.1-.6.5-1.2.3-1.6-1.6-3.1-3.3-6.3-5-9.4-.1-.3-1-.5-1.3-.3zM974.2 449.5c5.6 2.1 7.5 2.3 11.4.7-1-.3-1.4-.6-2-.7-3.8-.6-7.3-2.5-11.1-2.4-.5 1.9.7 2 1.7 2.4zM751.1 39.7c1.8-2.4 1.7-5.4 2.5-8.1.4-1.3.9-2.7-.3-4-2 1.9-3.6 8.1-3.2 12.2.4 0 .9.1 1-.1zM890.4 802.1c2.7 2.5 5.9 4.5 9.4 5.7.5.2 1.5.1 1.5-1.3-3.2-2.3-6.8-4.3-11-6.7.1 1.2-.1 2.1.1 2.3zM876 784c-.2-.1-.6.3-.8.5 1.9 4.5 5.1 8.4 8 9.7.7-.9.4-1.7-.2-2.4-2.3-2.7-3.7-6.1-7-7.8zM837.1 229.3c3 2.4 6.1 4.8 9.2 7.1.2.1.8-.3 1.8-.8-3.5-3-6.6-5.8-10.5-7.9-.2.8-.6 1.5-.5 1.6zM854.7 242.2c0 .5 0 .9.2 1.1 2.9 2.4 5.8 4.7 8.8 7 .2.2 1-.2 1.3-.4.1-.1.1-.8-.1-1-2.9-2.4-5.8-4.7-8.7-7-.3-.1-1 .2-1.5.3zM1039.3 780.4c3.2-1.7 6.3-3.4 9.4-5.2.3-.2.4-.9.7-1.5-.6-.2-1.3-.5-1.6-.3-3.2 1.7-6.3 3.4-9.4 5.2-.3.2-.5 1-.3 1.4.1.2.9.6 1.2.4zM420.9 569.6c0 .5 0 .8.1.8 3.1 2.3 6.2 4.6 9.4 6.8.2.2 1.1-.2 1.3-.5.2-.3 0-1.2-.3-1.4-2.9-2.1-5.8-4.1-8.8-6-.4-.2-1.2.2-1.7.3zM341.7 775.9c3.9-.5 7.6-1.9 11.1-3.7.2-.1.2-.9.4-2.1-4.7 1.4-8.6 2.4-12.4 4.4.4.6.7 1.4.9 1.4zM836 575.4c0 4.3 2.3 7.5 2.6 11.2 0 .6.7 1.1 1.2 1.9 2-1.8.9-3.6.5-5.1-.7-2.8-.9-5.9-4.3-8zM722.7 262.6c-.8 2.7-1.4 5.5-2.1 8.3 0 .2.3.6 1 1.6 2.3-4.2 3.2-8.2 4-12.2.1-.4-.3-.9-.8-2.1-1.2 2.2-1.8 3.3-2.1 4.4zM702.2 98.2c-3 1.2-5.9 2.5-8.8 3.8-.4.2-.5 1.1-.7 1.7.5.1 1.1.5 1.4.3 3.1-1.3 6.2-2.7 9.3-4.1.4-.2.5-.8.9-1.6-.9 0-1.6-.3-2.1-.1zM200.6 583.8c-.3.2-.4 1.1-.2 1.3.2.3 1.1.5 1.4.3 2.9-2.1 5.7-4.2 8.5-6.5.3-.3.1-1.2.2-2.3-4.1 2-7 4.6-9.9 7.2zM706.8 576.6c-3.4 2.6-7.3 3.8-9.2 7.6 4.1-.6 7-3.4 10.4-5.6-.4-.7-.6-1.1-1.2-2zM868.8 776.4c.2.1.8-.3 1.6-.7-2-3.5-4.3-6.7-6.8-9.6-.2-.2-.9-.1-1.4 0-.2.1-.4.7-.2.9 1.7 3.5 3.8 6.8 6.8 9.4zM545.8 515.2c0-.2-.4-.6-.7-.7-.3-.1-.8.1-.9.3-.9 3.8-1.8 7.5-2.6 11.3 0 .2.8.6 1.4 1 1.8-3.9 2.6-7.8 2.8-11.9zM734.4 240.1c.1-.2-.1-.9-.3-.9-.4-.1-1.2-.1-1.3.1-2.1 3.1-4 6.3-4.8 10.1-.1.3.3.6.4.9.3-.1.9 0 1-.2 1.7-3.2 3.3-6.6 5-10zM515.9 30.6c-.3.3-.6 1-.5 1.4 1.1 3.2 2.2 6.4 3.5 9.6.1.4.8.5 1.8 1-.3-4.2-1.8-9.3-3.5-11.7-.2-.3-1.1-.5-1.3-.3zM827.8 695.7c.1.3.8.5 1.7.9.1-4.7-1.2-8.7-3.5-12.6-1 4.2.6 7.9 1.8 11.7zM472.8 396.4c-3.4 2.3-4 5.8-4.9 9.2-.3 1.1-.6 2.5 1.5 3.3.7-2.4 1.3-4.4 1.8-6.4.6-1.9 2.9-3.4 1.6-6.1zM819.8 215.1c-.2-.1-.6.2-.9.3-.1.3-.3.8-.2 1 3 2.7 6.5 4.8 10 6.8 1-1 .9-1.8.1-2.4-2.9-2-5.9-3.9-9-5.7zM1062.2 445.7c-.2 0-.6.5-.6.7.1.4.4 1.1.7 1.2 3.8.6 7.7 1 11.8.5-.4-.7-.6-1.5-.8-1.5-3.7-.4-7.4-.7-11.1-.9zM799.3 205.9c-.3 0-.6.3-1.1.5.2.4.2 1.2.5 1.3 3.3 1.3 6.7 2.6 10 3.8.3.1 1.1-.4 1.2-.6.1-.4-.2-1.1-.6-1.3-3.2-1.6-6.4-3.2-10-3.7zM776.8 204.9c-.4.1-.8.8-.8 1.1s.7.9 1 .9c3.4-.2 6.7-.5 10.1-.9.5-.1.9-.8 1.7-1.5-4.4-.9-8.3-.8-12 .4zM490.3 381.5c-1.4 0-2.2-.3-2.6 0-2.9 2.4-6.5 4.1-7.8 8.2 3.9-1.9 7.3-4.3 10.4-8.2zM889.8 270.7c-.2.3-.2 1.1.1 1.4 2.4 2.7 4.8 5.3 7.3 7.9.2.2.7.2 1.1.3.1-.5.5-1.2.3-1.4-2.4-2.8-4.9-5.6-7.5-8.4-.2-.2-1.1 0-1.3.2zM357.6 525.2c.1-.1 0-.8-.1-1-3-2.2-6-4.3-9.1-6.5-.1-.1-.3 0-.5 0-.3.2-.7.3-.8.6-.1.3-.1.8.1 1 3 2.2 6 4.3 9.1 6.4.3.2 1-.2 1.3-.5zM980 807.2c-1 .3-2.7.3-2.5 2.4.6.1 1.3.4 1.9.2 3.4-1 7-1.4 10.5-3.9-2.5-1.1-2.5-1.2-9.9 1.3zM501.1 601.9c.8.5.9.8 1 .8 4.3-.2 7.6-2.3 10.7-4.9.2-.2.2-.9.1-1-.4-.3-1-.6-1.4-.5-2.9 1.3-5.7 2.8-8.5 4.2-.5.3-1 .8-1.9 1.4zM528.6 73.9c0-.1-.6-.1-1-.1-.4 3 .2 9.1 1.2 11.9.1.2.6.2 1.1.4 1.2-2.2.3-4.5.1-6.6-.1-1.9-.8-3.7-1.4-5.6zM933.4 812.5c-.3 0-.5.8-.9 1.5 1.2.2 2.3.5 3.3.5 3 0 6-.2 9-.3.2 0 .4-.5.6-.7-.1-.3-.2-.8-.4-.9-3.9-.7-7.8-.6-11.6-.1zM537.5 463.5c-1.5-4.3-4.9-6.5-8.3-8.7-.3-.2-.9.2-1.7.5 2.1 3.4 5.5 5.1 8.2 7.6.4.4 1.1.4 1.8.6zM580.2 153.6c-3 2.3-5.8 4.6-8.7 7-.2.1.2.9.3 1.4 3.5-1.4 7-4.1 10.5-8.2-1.1-.2-1.8-.5-2.1-.2zM642.3 347.3c3.3 1.2 6.6 2.4 9.9 3.5.3.1.9-.6 1.8-1.3-4.3-1.9-7.9-4-12.6-4 .5.9.6 1.6.9 1.8zM925.6 364.8c1.2-2.9.6-6.9-1.9-12.5-1.3-.2-1.5.8-1.4 1.6.7 3.3 1.4 6.6 2.2 9.8.2.5.7.8 1.1 1.1zM509.5 11.6c-.2-.5-.4-1.1-.8-1.4-.3-.3-1-.6-1.3-.4-.3.1-.7.9-.5 1.3 1.1 3 2.3 5.9 3.5 8.9.2.5.6.9 1 1.2.2.2.7.2 1 .1.3-.1.4-.5.6-.9-.1-.4-.2-1-.4-1.4-1.1-2.5-2.1-4.9-3.1-7.4zM543.6 471.4c1.2 3.5 2.5 7.1 3.8 10.7.1.3.9.4 1.4.3.2 0 .5-.6.5-.8-.5-3.7-1.6-7.3-3.8-10.4-.3-.6-1.1-.7-1.9.2zM833.2 706.3c-.1-.3-.8-.4-1.7-.8.2 4.9 2 8.7 4.8 12.3.4-4.2-1.6-7.8-3.1-11.5zM628.5 639.9c-.1.3.3.8.8 1.8 2.8-3.5 5.7-6.5 7-10.6 0-.1-.4-.4-.9-.8-3.1 2.5-5.3 5.8-6.9 9.6zM278 750.4c-.9-4.3-2.8-9.2-4.4-11.2-.1-.2-.6-.1-1-.1-.1.1-.3.3-.3.4.5 4 2 7.7 4.3 11 .2.1 1-.1 1.4-.1zM812.3 526.1c-1.4-3.4-2.9-6.9-4.4-10.5-.1-.2-.8-.3-.9-.2-.3.3-.8.9-.7 1.2 1.2 3.3 2.5 6.6 3.7 9.9.1.2.2.3.4.3.3.1.7.3 1 .2.2 0 .4-.4.9-.9zM682.5 107c-3.7 1.1-7.3 2.6-10.9 4.8.6.8.8 1.3 1 1.3 3.9-.7 7.3-2.6 10.7-4.4.2-.1.4-.8.3-.9-.3-.3-.8-.8-1.1-.8zM549.8 493.7c0-.4-.5-.8-.7-1.2-1.9 2.4-2.8 8.7-2 12.6.5-.3 1.2-.5 1.3-.8.8-3.6 1.7-7 1.4-10.6zM337.7 513.6c.3.1 1.1-.3 1.2-.6s-.1-1.1-.4-1.3c-3-1.9-6.2-3.3-9.7-4.1-.4-.1-.9.3-1.5.5.3.6.4 1.3.7 1.4 3.2 1.4 6.4 2.8 9.7 4.1zM330.8 779.4c.4-.1.5-.8 1.4-2.1-4.9.2-8.6 1.3-12.5 2-.3 0-.4.9-.6 1.5 4.2.8 7.9-.3 11.7-1.4zM620.4 131.8c-4.2.2-7.7 2.2-11 4.6-.2.1.2.9.4 1.7 4-1.8 8.1-2.7 11.3-5.7-.5-.4-.6-.6-.7-.6zM305.1 505.5c3.6 1.7 7.5 1 11.2 1.4.4 0 .8-.5 1.2-.7-2.2-2.1-6.8-2.5-12.4-.7zM955.3 435.5c-.5-.3-1.2-.2-1.8-.3 2.3 4.2 5.5 6.8 9.3 8.6 1.1-.9.9-1.7.1-2.3-2.6-2-5.1-4-7.6-6zM480 426.5c.3.2 1.1 0 1.4-.2.2-.2.1-1.1-.1-1.3-2.6-2.4-5.2-4.8-7.8-7.1-.2-.2-.6-.1-1.3-.3 0 .7-.3 1.5 0 2 2 2.9 4.7 5.2 7.8 6.9zM451 588.7c-3.3-3-6.7-5.4-11.1-6.4 1.5 3.4 4.8 4.5 7.5 6.4.9.6 1.8 1.4 3.6 0zM933.6 396.6c-.1-.1-.3-.1-.5-.1h-.5c-.1.1-.3.3-.3.4-.1 4 1.2 7.6 2.9 11.1.1.3.9.2 2.2.5-1.3-4.4-2.4-7.9-3.4-11.5 0-.2-.2-.3-.4-.4zM258.2 710.3c-.5-1-.7-1.8-1.2-2.5-2-2.5-4.1-5-6.1-7.4-.1-.2-.6-.1-1-.1-.1.3-.5.7-.4.9 1.6 3.6 4.3 6.5 7 9.3.2.3.9 0 1.7-.2zM1040.2 447c3.4.1 6.7.1 10.1 0 .5 0 .9-.6 2-1.4-4.9-1.3-9-.9-13.8-.2.9.8 1.3 1.5 1.7 1.6zM531.8 766.2c-4.6-1.2-8.5-.5-12.3-.2-.3 0-.6.9-1 1.5 5.8.9 9.9.6 13.3-1.3zM452 768.6c3.7.5 7.3.9 11.4.3-.4-.9-.5-1.4-.6-1.5-3.7-.3-7.4-.7-11-.9-.3 0-.9.8-.8 1.1.1.4.6.9 1 1zM930.6 359.7h-.5v7.5c-2.5.2-4.5.3-6.5.4v.3c2.6.1 5.2.3 7.7.4-.2-3-.5-5.8-.7-8.6zM188.9 564.3c-2-.6-4.4.4-4.4-3.4-.5 2.7-1.8 3.2-3.2 3.5.8.3 1.5.7 2.4 1 .2 1.5.3 2.8.6 4.8.4-2 .6-3.5.9-5 1.2-.3 2.2-.5 3.7-.9zM1118.5 584.5c-.4 2.5-.8 5 0 7.5v-7.5zM1081.3 761.2h3.6c1.2 0 2.4-.1 3.6-.2v-.2h-7.2c-.1.2-.1.3 0 .4zM390.2 564.6c.3 0 .6-.3 1.9-.9-3.5.7-5.9-.1-9.5.9h7.6zM370.9 502.1h.3v-7.8h-.3v7.8zM1118.1 479.7h.3v-7.8h-.3v7.8zM558.1 475.8c0-1.2-.1-2.4-.2-3.5h-.2v7.2h.4v-3.7zM371 471.8v7.7h.2v-7.7h-.2zM271.4 564.7h3.6c1.2 0 2.4-.1 3.6-.2v-.2h-7.2v.4zM1118.2 502.3c.4-2.6.5-5.1 0-7.7v7.7zM518.7 564.5h7.4v-.3h-7.2c-.1.1-.2.2-.2.3zM548.6 564.5v-.3h-7.5v.3h7.5zM698.7 957.3v.3h7.8v-.3h-7.8zM634.8 957.7c1.2 0 2.4-.1 3.5-.2v-.3h-7.7v.5c1.5.1 2.8.1 4.2 0zM683.7 564.2h-7.6v.3h7.6v-.3zM796.7 564.3h-8c2.4.2 4.8.7 8 0zM818.5 564.6v-.3h-7.3v.3h7.3zM557.7 67.1v7.2h.2v-7.2h-.2zM184.5 591.9v-7.8c-.5 2.6-.6 5.2 0 7.8zM1118.5 614.5v-7.8h-.2v7.8h.2zM184.6 633.2c0-1.2-.1-2.4-.2-3.5h-.3v7.7h.5c.1-1.4.1-2.8 0-4.2zM1118.2 629.7v7.6c.4-2.5.5-5.1 0-7.6zM558 202h-.3v7.4h.3V202zM683.5 367.7h-7.3v.3h7.2c.1-.1.1-.2.1-.3zM660.8 368c.1-.2.1-.4.2-.5h-3.7c-1.2 0-2.3.1-3.5.2v.4l7-.1zM557.5 745.7c0 1.2.1 2.3.2 3.5h.3v-7.1h-.5c0 1.2-.1 2.4 0 3.6zM1118.5 652.3c-.1 0-.2-.1-.3-.1v7.8h.3v-7.7zM541.2 368h7.4v-.3h-7.4v.3zM518.6 368h7.3v-.3h-7.3v.3zM248.7 564.6h7.3v-.3h-7.3v.3zM526 760.7h-7.4c2.4.6 4.9.6 7.4 0zM368.4 760.6h-3.7c-1.2 0-2.4.1-3.5.2v.2h7.3c0-.1 0-.3-.1-.4zM248.6 761.2h3.7c1.1 0 2.3-.1 3.4-.2v-.4h-7c0 .3 0 .5-.1.6zM930.6 344.6V337c0 2.4-.8 4.8 0 7.6zM1118.1 719.2v7.4c.1.1.2.2.3.2v-7.7c-.1.1-.2.1-.3.1zM1118.1 749c0 .1.2.2.5.5v-7.8h-.5c-.1 2.5-.1 4.9 0 7.3zM1118.6 517.2c-.2 0-.3-.1-.5-.1v6.4c0 .1.2.2.5.5v-6.8zM558.1 115.5c0-1-.1-2-.2-3h-.3v6.2c.2 0 .3-.1.5-.1v-3.1zM557.6 720.4v6.2c.1 0 .2.1.3.1v-6.4c-.1 0-.2 0-.3.1zM563.8 761.1h6.8v-.3h-6.8v.3zM557.9 523.7v-6.3c-.4 2.1-.5 4.2 0 6.3zM930.3 321.8c.2 0 .3-.1.5-.2v-3.1c0-1-.1-2-.2-3h-.3v6.3zM557.9 315.3h-.2v6.6h.2v-6.6zM300.6 760.8h-6.8v.3h6.8v-.3zM323.3 760.8h-6.6c0 .1 0 .2-.1.3h6.7v-.3zM345.7 761.1v-.3H339v.5h3.6c1-.1 2-.2 3.1-.2zM435.5 760.7h-6.7v.3h6.5s.1-.2.2-.3zM450.7 761.1h7.5c-2.2-.3-4.4-.8-7.5 0zM480.8 760.8H474v.3h6.7c0-.1 0-.3.1-.3zM503.5 760.8h-6.7v.2h6.7v-.2zM593.2 761.1v-.5h-3.6c-1 0-2 .1-3.1.2v.2l6.7.1zM451.4 367.9h6.6v-.2h-6.6v.2zM859.8 761.2c1 0 2.1-.1 3.1-.2v-.3h-6.7v.5c1.2 0 2.4.1 3.6 0zM477.5 368.1c1 0 2-.1 3-.2v-.3h-6.4c.1.2.1.3.2.5h3.2zM502.9 368.1c.1 0 .2-.2.3-.4h-6.6v.4h6.3zM991.2 761.2h3.6c1 0 2-.1 3.1-.2v-.2h-6.7v.4zM1020.8 760.8h-6.6c0 .1 0 .2-.1.3h6.7v-.3zM1043.4 760.8h-6.7v.3h6.7v-.3zM370.7 520.8c0 1 .1 2 .2 3h.3v-6.6h-.5v3.6zM1110.4 761.1v-.5h-3.6c-1 0-2 .1-2.9.2v.3h6.5zM184 655.9c0 1 .1 2 .2 3h.4v-6.8c-.2 0-.4.1-.6.1 0 1.2-.1 2.5 0 3.7zM930.7 292.6h-.3v6.6h.3v-6.6zM558 765c-.4 1.9-.8 4.1 0 6.2V765zM557.9 292.8h-.3v6.4h.3v-6.4zM557.6 270.2v6.2h.5V273c0-1-.1-1.9-.2-2.9-.1.1-.2.1-.3.1zM557.7 253.9h.2v-6.6h-.2v6.6zM570.4 367.9v-.2h-6.7v.2h6.7zM557.6 231c.1 0 .2 0 .3.1v-6.2h-.3v6.1zM593 367.7h-6.6v.2h6.6c-.1 0-.1-.1 0-.2zM609 367.9h6.6v-.2H609v.2zM558.1 790.5c0-1-.1-2-.2-3.1h-.3v6.3c.2 0 .4-.1.5-.1 0-1 .1-2 0-3.1zM371.3 546.7V540c-.1-.1-.2-.1-.3-.2v6.9h.3zM631.6 368h6.7v-.3h-6.7v.3zM558 546.7v-6.6c-.2 2.1-1 4.2 0 6.6zM930.7 810c-.1 2.2-1.1 4.3 0 6.6V810zM558 186.6v-6.2c-.4 2.1-.7 4.2 0 6.2zM698.9 367.9h6.6v-.3h-6.4c-.1.1-.2.2-.2.3zM721.5 367.7v.2h6.7v-.2h-6.7zM930.7 839.2v-6.7h-.3v6.7h.3zM557.7 141.4c.1-.1.2-.3.3-.4v-5.9h-.6l.3 6.3zM207.6 564.7c1 0 1.9-.1 2.9-.2v-.3h-6.4v.5h3.5zM557.7 359.7v6.5h.3v-6.5h-.3zM1118.5 539.9c-.6 2.3-.7 4.5 0 6.8v-6.8zM557.7 96.2h.3v-6.5h-.3v6.5zM557.5 385.6c0 1 .1 2 .2 3h.3v-6.2c-.2 0-.4.1-.5.2 0 1-.1 2 0 3zM557.7 591.7c.1-.1.2-.3.3-.4v-5.9h-.6l.3 6.3zM557.6 404.9v6.5c.1-2.2 1.1-4.3 0-6.5zM557.9 501v-6.2c-.4 2.1-.5 4.2 0 6.2zM930.7 405.1c-.1 0-.2-.1-.3-.1v6.4h.3v-6.3zM557.5 453.5c0 1 .1 2.1.2 3.2h.2v-6.2h-.5c.1.9 0 2 .1 3zM743.7 950.7c.1.1.1.2.2.2v-5.4h-.2v5.2zM557.9 434.2v-6.5h-.3v6.5h.3zM930.4 434.2h.2v-6.6h-.2v6.6zM557.7 569c.1-.1.2-.3.3-.4v-5.9h-.6l.3 6.3zM863.2 564.3h-6.7v.2h6.7v-.2zM773.5 564.2h-6.6c0 .1 0 .2-.1.3h6.7v-.3zM724.6 564.1c-1 0-2 .1-3 .2v.2h6.7v-.5c-1.3.1-2.5 0-3.7.1zM698.6 564.5h6.9v-.5h-6.3c-.1.1-.2.2-.6.5zM570.5 564.2h-6.7v.3h6.5c0-.1.1-.2.2-.3zM721.2 957.2c2.4.4 4.7.8 6.8 0h-6.8zM435.6 564.3H429v.3h6.6v-.3zM1118 431.3c0 1 .1 2 .2 3h.3v-6.8c-.2.1-.3.1-.5.2v3.6zM1118.4 569.4v-7h-.3v6.8c.1 0 .2.1.3.2zM743.8 925.2c0 .1-.1.3-.1.4 0 .1.1.2.2.2 0-.1.1-.3.1-.4-.1 0-.2-.1-.2-.2zM0 70.8l.9.3C5.3 73.5 8.6 77 11 81.4c2.1 3.8 3.9 7.7 5.6 11.6 3.5 7.9 6.9 15.8 10.4 23.7 1.1 2.5 2.4 4.8 3.7 7.2 5.7 10.6 14.8 16.5 26.4 18.6 11.9 2.2 24 2.3 36 .5 8.2-1.2 16.3-2.8 24.3-4.7 11.3-2.7 20.4-8.7 27.6-17.7 3.2-3.9 6.1-8 9.1-12.1l9.3-12.6c9.5-12.4 21.9-20.7 36.5-25.8 9.9-3.5 20.1-5.2 30.6-5.9 9.7-.6 19.4 0 29.1 1.1 12.9 1.4 25.7 2.9 38.7 3.4 3.2.1 6.5.1 9.7-.1 10.4-.6 20.9-.8 31.3-.1 9 .6 18 1.1 26.9 1.6 1.2.1 2.5.4 3.9.6.3 1.3.6 2.5 1 4.2.3-1.5.5-2.5.7-3.6 3.8-.7 7.3.5 10.8 1.1 15.3 2.9 30 7.6 44 14.3 3.2 1.6 6.3 3.5 9.3 5.4 1.8 1.2 3.5 2.6 5 4.1 9.1 8.9 11 17.8 6.5 30.6-1.4 4.1-3.8 7.8-6.7 11-9 10.3-17.8 20.8-27.1 30.8-3.4 3.7-6.3 7.7-9.8 11.3-3.5 3.6-6.8 7.5-10.2 11.1-3.5 3.6-6.9 7.3-10.6 10.7-2.5 2.3-5.5 4.1-8.3 6-.7.5-1.6.6-3.3 1.2v-3.6l-.1-.1v-3.5h-.5c0 1.8.1 3.5 0 5.2-.1 2.1-.8 2.9-2.8 3.3-4.7 1-9.3.9-13.9-.6-2.5-.9-5.1-1.8-7.5-3-4.1-1.9-8.1-3.9-12.1-5.9-7.7-3.9-15.8-6.9-23.9-9.8-16-5.6-32.1-5.3-48.2-.4-12.6 3.8-23.7 10.2-33.9 18.5l-2.4 2.1c-12.1 11.5-16.3 25.4-12.5 41.8 1.8 7.4 4.8 14.3 8.5 20.9 4.9 8.8 10.8 17 16.9 25 3.9 5.1 8.7 9.1 14.2 12.3 9.2 5.2 18.9 8.7 29.6 9 5 .1 10 .7 15 1.6 14.9 2.6 28.6-.6 41.3-8.5 4.4-2.8 8.4-6.1 12.5-9.4 4.4-3.7 8.6-7.6 13-11.4 3.3-2.8 7-5 11.2-6.4 6.1-1.9 12.1-1.4 18 .5 3.9 1.2 7.8 2.9 11.4 4.8 6.4 3.4 11.9 8.1 16.9 13.4 4.8 5 7.5 10.9 7 18-.3 4.2-1.7 8.1-4 11.6-1.7 2.5-3.5 5-5.7 7.2-8 8-16.2 15.9-24.2 23.9-1.2 1.2-2.6 1.8-4.3 1.8-2.3 0-4.7 0-7 .5 2.2.1 4.4.3 7 .4-.3.9-.3 1.6-.7 2-5.6 6.1-11.2 12.1-16.9 18.2-.2.2-.6.2-1.3.4-.2-2.3-.3-4.5-.5-6.7h-.5c0 1.7-.1 3.4 0 5.1.1 2.9-.8 5.1-2.8 7.3-5.6 6.2-11.9 11.5-18.9 16-12.3 8-25.9 13.4-40.1 16.9-8 2-16.2 3.4-24.3 4.9-5.4 1-10.8.5-16-.8-6.8-1.7-12.5-5.4-17.1-10.7-4.4-5.1-7.5-11-9.6-17.4-1.4-4.3-2.6-8.6-3.7-13-1.7-6.8-3.9-13.5-7.1-19.7-.3-.6-.5-1.3-.9-2.3 1.2-.3 2.2-.6 3.7-1-1.9-.2-3.4-.4-4.8-.5-.9-1.1-1.6-2.1-2.4-3.1-6.6-9-15.2-15.1-25.8-18.6-4.4-1.4-8.9-2.9-13.3-4.3-2.1-.7-3.4-1.9-2.7-5.5-.9 1.8-1.2 2.5-1.7 3.4-1.1-.5-2.3-.9-3.4-1.4-7.6-3.9-14.7-8.5-20.7-14.5-16.4-16.2-36.1-26.4-58.1-32.9-6.7-2-13.4-4-20.1-6.3-4.1-1.4-8.1-3.1-11.8-5.2-8.3-4.6-13.5-11.6-15.3-21.1-2.3-12.2-4.8-24.3-7.2-36.5-3.3-16.6-9.3-32.1-19.3-45.9-3.8-5.2-10.5-12.9-17.5-18.8-3.2-2.8-6.6-5.4-9.9-8.1v3.1c4.2 3.4 8.4 6.9 12.4 10.6 12.3 11.2 21.1 24.9 26.7 40.7 2.3 6.4 4.1 13 5.4 19.7 2.3 11.8 4.7 23.6 7 35.5 2 10.9 8.2 18.7 17.8 23.6 4.3 2.2 8.8 4 13.4 5.5 7 2.4 14.1 4.3 21.1 6.5 20 6.3 38 16 53.1 30.9 6.4 6.3 13.9 11.3 22 15.5 1.1.6 2.3 1.1 3.4 1.6s1.5 1.5 1.6 2.6c0 .2.3.4.4.5.3-.5.6-.9.8-1.4 6.1 1.2 18.4 5.3 22.9 7.7 5.9 3.2 11.1 7.3 15.2 12.7 1 1.4 1.4 3.3 2.6 4.4 2.1 1.9 3.1 4.4 4.3 6.8 2.9 6 4.6 12.5 6.2 18.9 1.6 6.5 3.5 12.8 6.5 18.8 3 5.8 6.8 11 12 15.1 9.2 7 19.7 8.6 30.7 7 8.3-1.3 16.6-3.1 24.8-5.1 11.2-2.8 21.9-6.9 32.1-12.4 11.2-6.1 21.1-13.7 29.2-23.5 7.7-9.3 16-18.1 24.7-26.4 7.7-7.3 15.2-14.8 22.8-22.2 3.2-3.2 6.1-6.6 8.3-10.6 5.1-9 5-20.6-2.5-29.2-7.6-8.8-16.7-15.8-27.8-19.9-13.5-4.9-25.8-3.2-36.6 6.8-3.3 3.1-6.6 6.1-10.1 9-3.6 3-7.1 6.1-11 8.7-12.2 8.3-25.6 12.1-40.4 9.9-5.7-.9-11.3-1.8-17.1-1.9-9.8-.1-18.7-3.4-27.1-8-5.8-3.1-10.8-7.3-14.7-12.5-5.8-7.6-11.3-15.4-16-23.7-3.2-5.6-5.9-11.5-7.8-17.7-2.2-7.2-2.8-14.5-1.3-21.9 1.7-8.6 6.3-15.6 12.8-21.4 10-8.8 21.3-15.4 34-19.4 16.1-5.1 32.2-5.3 48.2.4 8.1 2.9 16.2 6 23.9 9.9 5.1 2.6 10.3 5.1 15.6 7.3 6.1 2.6 12.5 3.3 19 1.7 5.7-1.4 10.6-4.3 15-8.2 1.9-1.7 3.7-3.5 5.4-5.3 4.8-5.1 9.7-10.1 14.4-15.4 4.8-5.3 9.7-10.5 14.3-16 7.6-8.9 15.4-17.6 23.1-26.4 4.5-5.1 8-10.6 9.8-17.2 2.9-10.6.9-20-6.7-27.9-2-2.1-4.1-4-6.5-5.7-3.1-2.1-6.4-4.1-9.7-5.7-16.5-7.9-33.8-13.2-51.9-15.8-1.7-.2-3.7.2-4.7-1.9 0-.1-.6-.1-.7 0-1.1 1.5-2.6.9-4 .8-6.5-.4-12.9-.8-19.4-1.3-12-1-24.1-1-36.1-.5-13.5.6-27-.4-40.4-1.9-11.3-1.3-22.5-2.7-33.9-2.5-16.8.2-32.9 3.1-48.1 10.5-1.1.5-2.3.9-3.9 1.5-.2-2.5-.4-4.7-.6-6.9h-.3c-.1 2.7-.2 5.3-.3 7.7-.6.6-.8.9-1.1 1-9 5.3-16.2 12.5-22.5 20.7-3.7 4.9-7.1 9.9-10.9 14.8-2.9 3.9-5.9 7.7-9.2 11.3-5.6 6.1-12.3 10.4-20.3 12.7-7.4 2.1-15 3.6-22.7 4.9-12.7 2.1-25.4 2.5-38.1.5-11.7-1.9-20.9-7.4-26.5-18.2-1.1-2.1-2.2-4.1-3.2-6.2-3.3-7.4-6.5-14.8-9.8-22.2-1.5-3.4-3-6.9-4.7-10.3-3.3-6.8-7.9-12.4-15-15.5v3.2H0z" class="st1"/><path d="M293.1 220.8c-10-3.1-19.2-1.3-27.5 4.9-7.9 5.9-11.9 14.9-8.7 26.3 4.4 15.9 20.2 27.6 37.1 27.8 2.3-.2 4.6-.4 7-.7 8.3-1.1 13.6-6 16.5-13.7 2-5.5 2.7-11.2 2.4-17-.1-1.4-.6-2.8-1.1-4.1-4.9-11.8-13.4-19.7-25.7-23.5zm21.7 44.6c-2.7 6.5-7.2 10.6-14.4 11.4-2.1.2-4.3.5-6.4.8-15.9-.2-31-11.6-34.9-26.5-2.4-9.1 0-16.8 7.2-22.7 7.9-6.4 16.8-8.3 26.8-5 11.1 3.7 18.7 11 23.3 21.6.9 2 1.3 4.1 1.2 6.3-.2 4.8-.9 9.6-2.8 14.1zM188.2 367.7c-1.1-.2-2.1-.4-3.3-.6-.2-2.6-.3-5.1-.5-7.6-.5 2.1-.5 4.2-.6 6.4 0 1.5-1.2 1.6-3.5 1.8 3.6.9 5.8.9 7.9 0zM184.5 494.4h-.3v7.8h.3v-7.8zM184.4 471.9h-.3v7.8h.3v-7.8zM371.2 457v-7.8h-.3v7.8h.3zM184.5 449.2h-.3v7.8h.3v-7.8zM184.2 52l.3-.3v-7.5h-.4c-.1.8-.1 1.7-.1 2.5 0 1.7.1 3.5.2 5.3zM117.3 564.1c-1.2 0-2.3.1-3.5.2v.3h7.3c-.1-.2-.1-.3-.2-.5-1.2 0-2.4-.1-3.6 0zM140 564.7c1.2 0 2.4-.1 3.6-.2v-.3h-7.3v.5h3.7zM246.4 957.8c3.2 0 6.5-.1 9.7-.1-3.2-.3-6.5-1.2-9.7.1zM246.2 957.9c.1 0 .2-.1.3-.1h-.4l.1.1zM370.9 52h.3v-7.7h-.3V52zM371.3 224.8c-.5 2.4-.7 4.9 0 7.4v-7.4zM413.6 368v-.3h-7.2v.3h7.2zM143.8 367.6h-7.4c0 .1.1.2.1.3h7.3v-.3zM1.4 761.1h7.3v-.3H1.4v.3zM53.3 367.7h-6.7v.3h6.7v-.3zM159 367.9h6.7v-.2H159v.2zM203.4 367.9h7.6c-2.3-.2-4.5-.7-7.6 0zM226.1 761.1h7.4c-2.2-.3-4.4-.8-7.4 0zM434.9 368c.1 0 .2-.2.4-.4h-6.6v.4c2 .1 4.1.1 6.2 0zM184.1 523.9c.1 0 .2.1.3.2v-7h-.3v6.8zM370.7 273.6c0 1 .1 2 .2 2.9h.2v-6.6h-.4v3.7zM371.3 247.2c-.5 2.3-.7 4.6 0 6.8v-6.8zM184 813.5c0 1 .1 2 .2 3.1h.4v-6.8c-.2 0-.4.1-.6.1 0 1.2-.1 2.4 0 3.6zM558.1 833c0-.1-.2-.2-.5-.5v6.7h.5V833zM184.2 382v6.7l.3.3v-7h-.3zM184.6 404.9c-.2 0-.4-.1-.5-.1v6.4c0 .1.2.2.5.6v-6.9zM371.2 404.6h-.5v3.7c0 1.1.1 2.1.2 3.2h.3v-6.9zM184.4 427.4h-.3v6.8c.1.1.2.1.3.2v-7zM371.2 427.3h-.3v7.2h.3v-7.2zM615.8 957.1h-3.7c-1 0-2 .1-3 .2v.3h6.8c0-.2-.1-.4-.1-.5zM480.9 564.1h-3.6c-1 0-2 .1-3.1.2v.3h6.7v-.5zM98.6 564.5v-.2h-6.8v.2h6.8zM72.3 564.1c-1 0-2 .1-3 .2v.3h6.6v-.5c-1.2 0-2.4-.1-3.6 0zM53.5 564.2h-7.1c2.2.2 4.4.9 7.1 0zM371.2 22.3h-.5V26c0 1.1.1 2.1.2 3.2h.3v-6.9zM1045.8 944.3c4.1-15.7 12.3-28.6 25.3-38.5 5.9-4.5 12.2-8.2 19-11.2 2-.8 4-1.6 6.1-2.1 3.9-.9 6.6.5 8.5 4 .4.8.8 1.6 1.1 2.5 2.4 8.9 4.3 17.8 4.1 27.1-.1 4.3-.3 8.6-.7 12.9-.3 3.4-.7 6.8-1.2 10.2-.3 1.8-.9 3.5-1.3 5.2-.5 1.8-1.7 2.6-3.5 2.8.3.2.6.5.9.7h5c.9-.2 1.8-.4 2.8-.6-1.1-.4-1.9-.6-2.7-.9 0-.8 0-1.4.1-1.9 1.6-5.2 2.1-10.6 2.6-15.9 1.2-12.3.5-24.4-2.5-36.4-.5-2.1-1.1-4.2-2-6.1-2.3-5.1-6.3-7.1-11.9-6-1.9.4-3.8 1.1-5.6 1.9-5.7 2.4-11 5.3-16.1 8.8-18.1 12.3-28.8 29.2-31.8 51-.2 1.7-.1 3.6-1.7 5.1-1.6.1-3.2.2-4.7.3v.3c1.3.2 2.7.3 4.1.5h4.1c.4-4.6.8-9.2 2-13.7zM716.7 757.5c1.3 1.2 2.2 2.9 3.7 3.7 5 3.1 10.3 5.9 15.4 8.8 5.5 3.2 10.9 6.2 16.3 9.5 9 5.6 17.3 12.2 24.2 20.5.3.4.7.8 1.1 1.2 1.3 1.2 2.4 1.4 3.9.4 2.5-1.6 3.2-3.1 1.2-5.7-.9-1.1-1.7-2.3-2.5-3.5-2.7-4.2-5.6-8.4-8-12.8-8.6-16-17.1-32-25.6-48.1-.7-1.4-1.1-3-1.7-4.5-.2-.7-.5-1.6-1-1.8-2.1-1.1-2.7-3.3-4-5-3.1-4-6-8.1-9.4-11.8-2.1-2.4-4.7-4.5-7.5-6.1-7.9-4.5-16.8-2-21.5 5.8-2.5 4.1-3.5 8.6-3.6 12.2-.1 5.3.8 9.2 2.4 12.8 4 9.2 9.1 17.7 16.6 24.4zm-15.6-42.1c.3-1.2.7-2.4 1.2-3.6 4.2-9.4 13.6-11.8 21.7-5.6 2.1 1.6 4 3.6 5.9 5.5 4.8 5.2 8.7 11 12 17.2 5.9 10.9 11.6 21.9 17.5 32.8 2.5 4.8 5.1 9.5 7.6 14.3 3.6 6.8 7.4 13.5 12.1 19.7.6.8 1.1 1.8 1.7 2.8-.6.3-1 .6-1.9 1.1-.5-.7-1-1.4-1.6-2.1-8.1-9.4-18-16.5-28.5-22.9-1.5-.9-3.3-1.4-4.2-3.2-.1-.3-.5-.7-.8-.7-2.9.1-4.9-1.9-7.2-3s-4.4-2.4-6.6-3.7c-.8-.5-1.5-1-2.1-1.7-.2-.2.1-.9.2-1.4-4.3-.8-5-1.2-9-4.7-8-6.8-13.3-15.5-17.1-25.1-2-5-2.5-10.4-.9-15.7zM908.1 957.6l.3-.3h-7.7v.3h7.4zM976.4 957.5v-.2h-7.8v.2h7.8zM945.9 957.7h4.2c1.2 0 2.3-.1 3.5-.2v-.3h-7.7v.5zM1118.2 929.8h.3V922h-.3v7.8zM1118 903.6c0 1.2.1 2.4.2 3.5h.3v-7.7h-.5c0 1.4-.1 2.8 0 4.2zM923.2 957.5h7.8v-.3h-7.8v.3zM1118.5 876.7h-.3v7.8h.3v-7.8zM1118.5 854.2h-.3v7.8h.3v-7.8zM788.5 761.1h7.5v-.3h-7.5v.3zM676.2 761.2h3.7c1.2 0 2.4-.1 3.7-.2v-.3h-7.3c-.1.2-.1.4-.1.5zM699 761.1h6.6v-.3H699v.3zM773.2 761.1v-.3h-6.6v.5h3.6c1-.1 2-.2 3-.2zM1118 813.6c0 1 .1 2 .2 3h.3v-6.8c-.2.1-.4.1-.6.2.1 1.1.1 2.4.1 3.6zM1118.1 832.4v6.8c.6-2.2.7-4.5 0-6.8zM930.3 922.2v6.7c.2-2.2 1.1-4.4 0-6.7zM930.7 951.7v-6.6c-.1 0-.2-.1-.3-.1v6.7c.1-.1.2-.1.3 0zM1118 948.6c0 1 .2 2 .2 3h.3v-6.9c-.2.1-.4.1-.6.2.1 1.2 0 2.4.1 3.7zM833.7 957.7h3.7c1 0 2-.1 3-.2v-.3h-6.8c0 .2.1.4.1.5zM856.2 957.7h6.4c.1 0 .2-.2.5-.5h-6.8c0 .1 0 .3-.1.5zM879 957.7h6.8c0-.2.1-.4.1-.5h-6.4c-.1-.1-.2.1-.5.5zM991.3 957.7h3.7c1 0 2-.1 3-.2v-.4h-6.8c0 .3.1.5.1.6zM1017 957.1c-1 0-2 .1-3 .2v.3h6.8c0-.2-.1-.3-.1-.5h-3.7zM1.8 367.5c-.1 0-.2.1-.7.5h7.4c0-.2.1-.3.1-.5H1.8zM98.5 367.7h-6.7v.2h6.7v-.2zM930.8 250.5c0-1-.1-2-.2-3h-.3v6.3c.2-.1.3-.1.5-.2 0-1 .1-2 0-3.1zM930.6 224.8h-.3v6.4h.3v-6.4zM971.8 367.5c-1 0-2 .1-2.9.2v.3h6.5v-.4c-1.2-.1-2.4-.1-3.6-.1zM1118.5 411.7v-6.8c-.1-.1-.2-.1-.3-.2v6.9c.1.1.2.1.3.1zM162.8 748.2c.4-1.9.7-4 .3-5.9-2.1-10-6.2-19.1-13.4-26.6-6.6-6.9-14.6-11.6-23.6-14.7-15.6-5.5-31.7-7.9-48.2-8.2-2.3 0-4.7.2-7 .6-9 1.3-14.6 6.8-15.8 15.9-.4 3-.5 6.1-.3 9.1 1 13.9 5.2 26.8 12.6 38.6.6.9 1.2 1.8 1.6 2.8.2.5-.8 1.3.3 1.6 2.3.7 3.2 2.8 4.6 4.4 4.5 5.2 9.4 9.9 15.4 13.4 21 12.6 50.7 9.8 66.7-14.5.7-1 1.4-2 2.3-3.2 2.5-.1 4.9-.3 7.4-.4v-.2c-2.1-.2-4.2-.4-6.6-.6.5-1.5.8-2.6 1.2-3.8.8-2.8 1.8-5.5 2.5-8.3zM122 783.8c-13.7 1.8-26.1-1.8-36.8-10.5-3.6-2.9-6.7-6.5-9.9-9.9-1.1-1.1-.1-1.9 1.1-2.6-2.6.3-4.1-1-5.4-3-8.6-12.9-13.2-27-13.8-42.5 0-1.4.1-2.9.2-4.3.8-9.2 6.3-14.8 15.7-15.4 5-.3 10.1-.3 15.1.1 11.5 1 22.8 2.9 33.8 6.5 5.8 1.9 11.4 4.4 16.6 7.7 12.2 7.8 19.2 19.2 22.2 33.1.3 1.2.2 2.5-.1 3.7-3.8 19.3-19.3 34.5-38.7 37.1zM184.5 772.2v-7.9h-.3v7.9h.3zM184.1 749.8h.5v-4.2c0-1.2-.1-2.4-.2-3.5h-.3v7.7zM184.1 726.7c.1.1.2.2.3.2v-7.7h-.3v7.5zM52.9 761v-.4h-6.2c-.1.2-.1.4-.2.6h3.6c.9 0 1.9-.1 2.8-.2zM181.4 761.1h6.8v-.4h-6.8v.4zM30.8 564.2h-7c2.2.2 4.4.9 7 0zM788.2 957.2v.3h7.8v-.3h-7.8zM765.8 957.3v.2h7.8v-.2h-7.8zM930.7 884.3v-7.4h-.3v7.4h.3zM930.4 854.5v7.4c.5-2.4.6-4.9 0-7.4zM660.9 760.7h-7.3c2.5.5 4.9.7 7.3 0zM638.4 761.1v-.3h-7.2c-.1.1-.1.2-.2.3h7.4zM743.9 880.3h-.2v1h.2v-1zM226 957.3c-.1.1-.1.2-.2.3h7.9v-.3H226zM23.7 957.2v.3h7.7c.1-.1.1-.2.2-.3h-7.9zM184.1 854.3v7.9h.3v-7.9h-.3zM1026 371.1c6.3 3.6 13.2 5.7 20.4 6.8 14.8 2.2 29.4 1 43.8-2.9 2.9-.8 5.9-1.7 8.7-2.8s5.6-3.1 8.5-3.3c3.5-.2 4.9-3.2 7.7-4.1.8-.3 1.6-.5 2.5-.9.3 1.4.5 2.4.8 3.9.2-2 .4-3.5.6-5.1.3-.2.7-.4 1-.7v-3.1c-.4.1-.8 0-1.3-.1-.2-.1-.6.2-.8.5-3.5 4.1-8.6 5.5-13.2 8-2.5-.1-4.2 1.8-6.3 2.7-8.1 3.1-16.5 5.1-25.1 6-4.8.5-9.7.7-13.5 1-8.4-.6-15.8-1.1-22.9-3.5-14-4.6-25-13.4-33.4-25.3-8.9-12.5-13.3-26.5-13.5-42-.1-11.3 2-22.1 6.1-32.7 7.1-18.5 16.1-36.1 25.7-53.4 2.3-4.2 4.7-8.5 7.3-12.6 14.1-21.8 33.8-35.5 59.3-40.5 8.2-1.6 16.4-2.3 24.7-1.9 2.2.1 4.5.1 6.8.2v-2.6c-.3-.1-.7-.1-1-.2-.2-1.8-.4-3.4-.6-5.5-.3 2.1-.6 3.6-.8 5-.6.3-.9.5-1.3.5-1.2.1-2.5 0-3.8.1-9.4 0-18.7.6-27.8 2.9-6.9 1.8-13.7 4.2-20.6 6.3-.5.1-.9.6-1.3.9-1 .7-2 1.6-3 2.2-15.8 8.9-27.6 21.8-36.3 37.5-5.7 10.2-11.2 20.6-16.5 31-5.6 11.1-10.8 22.4-14.7 34.1-5.3 15.7-6.2 31.7-2 47.8 4 15.5 12.3 28.2 24.5 38.5 1.2 1 2.8 1.6 3.2 3.6-1.4.2-2.6.3-3.8.5 7.1.5 6.9.3 11.9 3.2zM998.1 367.9v-.2h-6.7v.2h6.7zM184.1 907.3c.1-.1.2-.1.4-.2v-7.8h-.4v8zM184.2 929.2h.3v-7.1h-.3v7.1zM184.2 951.8h.4v-6.9c-.1 0-.2-.1-.4-.1v7zM46.5 957.2c2.3.6 4.6.7 6.9 0h-6.9zM181.2 957.6h7.2v-.3h-7.2v.3zM927.1 69.7c-3.2-4.2-7.1-7.6-11.5-10.6-4.5-3.1-9.2-5.6-14.2-7.7-14-5.8-28.2-10.8-42.9-14.5-5.6-1.4-11.2-2.6-17-2.5-8.7.2-15.7 3.5-21 10.3-2.1 2.7-4 5.6-5.5 8.6-8.5 16-12 33.1-10.2 51.1.8 7.9 3.4 15.1 8.8 21.1 11.9 13.2 25.4 24.5 41.2 32.7 8.2 4.2 16.6 7.8 25.7 9.5 9.8 1.9 18.6-.3 26.2-6.8 2.8-2.4 5.4-5.3 7.6-8.4 5-6.8 9.2-14.2 12.8-21.9 5.6-12 9.3-24.4 8.6-38-.2-5-.9-9.7-3.1-14.1-1.2-2.3-1.6-4.8-1.7-7.3v-4.3h-.5c-.1 1.5-.2 3.1-.4 6-1.5-1.6-2.2-2.4-2.9-3.2zm3.9 11.4c1.6 3.7 2.6 7.4 2.3 11.5-.1 1.2 0 2.5 0 3.8h-.1c0 2 .1 4 0 5.9-.2 3-.2 6.1-2.3 8.6-.5.6-.6 1.7-.5 2.6.1 2.6-.7 5-1.6 7.3-4.2 11.4-10.1 21.9-17.2 31.7-1.7 2.3-3.7 4.5-5.8 6.4-8.3 7.2-17.8 8.8-28.3 5.8-10.1-2.9-19.6-7.1-28.6-12.5-12.2-7.4-23-16.7-32.6-27.2-5.9-6.4-8.5-14.1-9.2-22.6-1.4-17.7 2.8-34.3 11.3-49.8.7-1.3 1.5-2.5 2.3-3.7 6.3-9.6 15.3-13.2 26.5-11.7 7.7 1 15.2 2.9 22.5 5.3 9.9 3.3 19.7 6.8 29.5 10.5 6.6 2.5 12.7 5.9 18.3 10.3C923.4 68.1 928 74 931 81.1zM930.2 183.7c0 1 .1 1.9.2 2.9h.3v-6.3h-.5v3.4zM930.4 163.9h.2v-6.2h-.2v6.2zM930.6 135.1h-.2v6.3h.2v-6.3zM930.6 45.4c-.4 1.8-.4 3.5-.3 5.3 0 .3.2.6.3 1v-6.3zM346 957.2c-1.2-.2-2.4-.7-3-2.2-2.3-5.7-4.9-11.2-7-16.9-4.8-13.3-1.9-25.1 7.7-35.3.9-.9 1.7-1.8 2.7-2.6l20.4-16.8c.9-.8 2-1.3 3.4-2.2.3 1.4.6 2.4.8 3.5.2-.2.4-.4.4-.6.1-1.4.2-2.8.3-4.4 10.9-8.1 22-15.6 35.7-18.1 8.5-1.5 16.8-1.2 25.1.9 12.4 3.3 24.3 7.7 35.9 13.2 8.3 3.9 16.5 8 24.6 12.3 3 1.6 5.9 3.5 8.6 5.6 7 5.5 11.9 12.4 14 21.2.3 1.4.6 2.8 1.1 4.2 1.1 3.2.8 6.3.3 9.6-1.6 10.7-5.1 20.4-10 29.6h2.9c4.7-9.1 7.9-18.8 9.6-29.2.3-2.1.8-4.3.5-6.4-1.5-9.8-4.5-18.9-11.6-26.2-3.9-4.1-8.3-7.5-13.3-10-9.5-4.8-18.9-9.7-28.5-14.1-10.6-4.9-21.6-8.8-32.9-11.9-11.2-3-22.4-2.9-33.5.7-4.6 1.5-9 3.7-13.4 5.7-5.5 2.5-9.8 7.2-15.6 9.3-.3.1-.4.6-.6.8-1.3 1.2-2.6 2.4-4 3.6-7.1 5.8-14.2 11.6-21.3 17.5-4.2 3.5-7.6 7.6-10.2 12.5-5.2 10.1-4.8 20.4-.8 30.8 1.6 4 3.4 7.9 5.1 11.9.4.8.7 1.7.9 2.5.3 1.2-.8 1.4-2.1 2.1 1 0 1.8.1 2.4.4h4.9c.1-.5.3-.7.5-1zM518.5 957.3v.3h7.8v-.3h-7.8zM540.9 957.6h7.8c0-.1 0-.2-.1-.3h-7.7v.3zM371.4 835.5c0-1-.1-2-.2-3h-.3v6.9c.2 0 .4-.1.6-.1-.1-1.3-.1-2.5-.1-3.8zM557.5 905.7c0 .1.3.2.5.2v-6.3h-.5v6.1zM558 922.5c-.5 2.1-.8 4.2 0 6.3v-6.3zM558 951.6v-6.7h-.3v6.7h.3zM166.5 957.2h-7.9v.3h7.9v-.3zM144 957.3h-7.7v.3h7.7v-.3zM121.8 957.3h-8.4c2.1.5 4.3.5 6.4.4.4 0 .9-.2 2-.4zM90.8 957.3c2.6.5 5.2.7 7.8 0h-7.8zM184.2 29.4h.3v-6.8l-.3-.2v7zM1004.9 63.5c.3-.6.6-1 .5-1.2-1.4-3.4-2.9-6.9-4.4-10.3-.1-.3-1.1-.5-1.3-.3-.3.2-.6 1-.4 1.4 1.4 3.3 2.9 6.5 4.4 9.7 0 .3.5.4 1.2.7zM1073.2 111.7c.3 0 .6-.7 1.1-1.3-4.1-1.8-8.2-1-13-1.8.4 1.2.6 2 .8 2.1 3.7.4 7.4.7 11.1 1zM996.5 42.1c-1.3-3.6-2.6-7.3-4-10.9-.1-.3-.8-.4-2.1-1.1.9 5 2.7 8.8 4.9 13 .7-.6 1.2-.9 1.2-1zM1114.2 99.9c-2.4 1.5-5 2.7-7.5 4.1-.3.2-.6.4-.8.7-.2.3-.2.7-.1 1 .1.3.5.6.8.6.9-.2 1.8-.3 2.5-.7 3.1-1.8 6.1-3.6 9.1-5.4-1.3-.8-2.5-1.3-4-.3zM1118.2 100.1zM1118.2 100.1zM1016.1 82.8c-2.2-3.9-4.2-7.4-6.5-11.4-.7 1-1.1 1.3-1.1 1.5.9 3.9 2.9 7.2 5.5 10.1.2.3 1.1-.1 2.1-.2zM987.7 21.4c.3-.3.8-.9.7-1.2-1.4-3.3-3-6.5-4.5-9.7-.1-.2-.6-.3-.9-.5-.2 0-.4 0-.5.1-.2.3-.5.7-.5.9 1.5 3.4 3.1 6.8 4.8 10.2 0 .2.7.4.9.2zM1096 109.4c.2-.1.2-.6.4-1.6-1.6.1-2.7.2-3.7.3-2.6.4-5.3.8-7.9 1.3-.3.1-.6.7-.8 1.2-.1.1.4.7.6.7 4 .2 7.8-.4 11.4-1.9zM1030.6 99.3c1.1-.9 1-1.7.2-2.3-2.5-2-5-4.1-7.5-6.1-.3-.2-.6-.4-1-.4-.3 0-.7.1-.9.4-.2.2-.3.8-.1.9 2.5 3.1 5.6 5.7 9.3 7.5zM1051.4 106.6c-3.5-1.3-6.9-2.6-10.4-3.8-.2-.1-.8.3-.8.4 0 .5 0 1.2.3 1.4 3.4 1.8 6.9 3.4 11.4 3.7-.3-1-.3-1.6-.5-1.7zM1118.5 74.4v-7.7h-.5v4.2c0 1.2.1 2.3.2 3.5.1.1.2.1.3 0zM1118.2 100.1c.6-3.6.5-7.1 0-10.7v10.7zM1118.1 119c.2 0 .3-.1.5-.1v-3.6c0-1-.1-2-.2-3h-.3v6.7zM1118.2 22.5v6.8h.3v-6.8h-.3zM867.2 343.7c-1.7-9-4-17.9-8.2-26.1-10.2-20-26-32.7-48.1-37.2-11.7-2.4-21.5 2.2-27.2 12.8-3.4 6.3-5.3 13-5.2 20.3-.2 5.7.9 11.3 2.9 16.7 5.3 14.3 12.7 27.4 22.8 38.9 7.7 8.8 16.8 15.7 27.4 20.7 4.8 2.2 9.7 3.7 15.1 3.6 5.6-.1 10-2.5 13.5-6.7 2.3-2.8 4-6 5-9.5 3.1-10.2 5.1-20.6 2.3-31.3-.2-.7-.2-1.5-.3-2.2zm-2.1 23.7h-8.7c2.6 1.1 5.4.2 8.2 1.4-.1 1.1-.1 2.1-.4 3.1-.8 3.7-2.2 7.2-4.1 10.5-4.5 7.4-10.8 10.1-19.3 8.1-4-1-7.8-2.6-11.5-4.6-11.2-5.9-20.4-14.1-28-24.1-7-9.2-12.5-19.4-16.8-30.1-2.1-5.2-3.5-10.6-3.7-16.2-.4-7.4 1.4-14.3 4.7-20.8 5.2-10.1 14.7-14 24.7-12 16.4 3.4 29.7 11.5 39.7 25 7.2 9.7 11.8 20.5 14 32.4.6 3.4 1.4 6.7 2 10.1 1 5.5.3 11-.8 17.2zM941.4 703c-1.9-6-4-12-7.4-17.2-2-3.1-3.3-6.3-3.1-10.1 0-.2-.3-.4-.5-.6-.1 1.1-.3 2.2-.5 4.1-1.8-1.7-3-2.8-4.2-3.8-3.9-3.2-8.3-4.9-13.4-4.6-4.5.3-8.3 2.2-11.6 5.1-8.5 7.5-13.3 16.8-13.9 28.2-.9 15.2 4 28.3 15.2 38.7 4.8 4.5 10.5 7.5 17.1 8.3 3.1.4 6.1 0 9.1-.7.8-.2 3.8-1.5 4.3-1.9.4-.3.9-.6 1.3-.9 4.5-3.3 7.5-7.7 9.2-12.9 2.5-7.5 3.1-15.1 1-22.8-.9-3.1-1.7-6-2.6-8.9zm-3.6 36.5c-1.5 2.4-3.2 4.7-6.2 5.8-.4-1.3-.7-2.3-1.2-3.7-.2 1.9-.3 3.4-.4 4.9-4.6 2.8-9.4 2.6-14.1 1.3-3-.9-6.1-2.3-8.7-4.1-15.8-10.8-23.9-35.8-13.8-54.9 2.2-4.2 5.1-7.9 8.7-11 7.8-6.7 16.3-6.4 23.6.8 4 4 6.8 8.8 9.2 13.9 3.4 7.4 5.9 15.1 7.5 23 1.4 8.4 0 16.6-4.6 24zM929.9 565.6c.1 1.1.3 2.4.5 4.3.5-2 .5-3.4 1-4.4.9-1.6-.5-2-.9-3.1-1.8 3.1-4.9.8-7.1 2.1 2.2.6 4.4-.4 6.5 1.1zM930.8 472.6c0-.1-.3-.1-.4-.2v7.1h.4v-6.9zM908.2 564.6v-.3h-7.3v.3h7.3zM949.8 564.7c1.2 0 2.4-.1 3.7-.2v-.3h-7.3v.5h3.6zM1058.4 564.5h7.6v-.3h-7.6v.3zM1081 564.5h7.6v-.3h-7.6v.3zM930.4 607.3v7.2c.4-2.4.6-4.8 0-7.2zM788.6 367.9h7.4v-.3h-7.4v.3zM946 760.8v.3h7.7v-.3H946zM923.3 761.2h7.5c0-.2.1-.4.1-.6H924c-.1.1-.2.2-.7.6zM930.7 517.4c-.5 2.2-.5 4.3 0 6.3v-6.3zM901.6 761h6.7v-.3h-6.7v.3zM930.2 655.8c0 1 .1 2 .2 3h.3v-6.4h-.5v3.4zM930.3 771.1c.5-2.2.6-4.2 0-6.3v6.3zM930.7 629.7c-.2.1-.3.2-.5.2v3.2c0 1 .1 2 .2 3h.3v-6.4zM930.6 494.8h-.3v6.2h.3v-6.2zM766.8 367.9h6.7v-.2h-6.7v.2zM879 367.9h6.7v-.3H879v.3zM930.7 546.5v-6.3c-.1 0-.2-.1-.3-.1v6.4h.3zM930.4 585.4v6.3c.4-2.1.5-4.2 0-6.3zM1036.6 564.2v.2h6.7v-.2h-6.7zM1014 564.2v.3h6.7v-.3h-6.7zM991.2 564.5h6.9v-.5h-6.3c-.1.1-.2.2-.6.5zM968.6 564.2v.5h3.6c1 0 2-.1 3.1-.2v-.2l-6.7-.1zM480.7 665.9c-4.7-5-10.2-9.1-15.7-13.1-24-17.2-48-34.2-72-51.4-5.5-3.9-11.4-6.7-17.9-8.5-1.2-.3-2.2-.9-3.4-1.3-.1-1.5-.1-2.8-.2-4-.1-1-.1-2.1-.2-3.8-.8 3 .2 5.5-1.3 7.8-.9-.1-1.7-.2-2.6-.2-3.4-.3-6.8-1-10.2-.9-14.4.4-28.3 11.8-31.5 25.9-1.2 5.1-2 10.3-2.3 15.5-1.6 22.1 3.4 42.8 13.7 62.3 3.3 6.3 8.4 10.2 15.2 12 2.6.7 5.3 1.1 8 1.3 9 .8 17.9 1.4 26.9 2.1 11.3.8 22.5 2.5 33.5 5.2s22.1 3.4 33.1.3c15.5-4.3 28.3-12.2 35.5-27.3 1.2-2.5 1.5-4.6.6-7.2-2-5.8-5.2-10.5-9.2-14.7zm5.8 21.1c-5.5 12.2-15.6 18.9-27.5 23.6-10.5 4.2-21.4 4.5-32.4 2.7-6.5-1.1-13-2.7-19.5-3.9-9.6-1.7-19.2-2.5-28.9-3.1-2.1-.1-4.4.3-6.6-1.3-.1-2.3-.2-4.7-.4-7.2h-.3c-.1 1.2-.1 2.3-.2 3.5-.1 1.2-.2 2.4-.4 3.8-2.3.7-4.5.3-6.6.2-4.1-.1-8.2-.8-12.2-2-5.4-1.7-9.5-5-12.2-10-6.9-13-11.5-26.6-13.3-41.3-1.4-11.2-.5-22.2 1.4-33.3 2.4-13.4 14.3-23.3 25.7-25.4 3.5-.7 7.2-.4 10.7 0 10.7 1.3 20.4 5 29.3 11.4 22.4 16.2 45.1 32.1 67.6 48.2 4.4 3.1 8.7 6.4 12.8 9.9 3 2.6 5.7 5.5 8.3 8.5 3.1 3.6 5.1 7.8 6.3 12.8-.6 1-1.2 1.9-1.6 2.9zM370.9 727h.3v-7.8h-.3v7.8zM558 704v-6.2c-.4 2.1-.7 4.2 0 6.2zM558 681.4v-6.2c-.5 2-.7 4.1 0 6.2zM558 658.5v-6.2h-.5v3.4c0 .9.2 1.9.2 2.8h.3zM557.6 636.1c.1-2.1 1.1-4.2 0-6.5v6.5zM345.8 564.1h-6.2c-.1 0-.2.2-.7.5h6.7c.1-.2.1-.3.2-.5zM323 564.2h-6.6v.5h3.6c1 0 2-.1 3.1-.2-.1-.1-.1-.2-.1-.3zM631.7 564.5h6.8v-.2h-6.8v.2zM612.2 564.1c-1 0-2 .1-3 .2v.3h6.6v-.5c-1.2 0-2.4-.1-3.6 0zM170.2 142.5c-2.1 5-4.2 9.9-6.4 14.8-3.1 6.7-8.4 10.8-15.6 12-7.4 1.3-14.9 2.6-22.4 3.2-7.3.7-14.6 1.9-21.7 3.6-5.3 1.3-10.3 3.3-14.7 6.5-10.5 7.5-14.6 17.9-13.1 30.5.9 7 3.1 13.7 6.2 20 5.4 11.2 13.8 19.2 25.6 23.3 8.6 3 17.5 4.3 26.5 3.8 10.9-.7 19-5.9 24.3-15.5 2-3.6 3.4-7.5 4.4-11.5 2.4-8.9 4.8-17.7 7.3-26.5 2.2-7.8 6.7-13.7 13.7-17.8h-2.6v-.3H185c4.1-2.3 8.5-3.8 13.1-5 4.7-1.2 9.5-2.2 14.1-3.4 23.6-6.2 46.1-15.1 67-27.7 2.6-1.6 5.2-3.2 7.5-5.2 2-1.7 4-3.7 5.4-5.9 3.2-4.8 4.2-9.9.8-15.2-.8-1.2-1.4-2.5-2.1-3.8-6.2-10.2-15.2-17.2-25.9-22.1-7.2-3.3-14.8-5.6-22.5-7.2-8.4-1.8-16.8-1.8-25.1.3-11.5 2.9-21.1 8.9-29.4 17.2-.8.8-1.7 1.5-2.6 2.3-.5-.5-.7-.8-1-1-.5 1.6-.6 3.5-1.5 4.8-5.4 8.1-8.9 16.9-12.6 25.8zm14.4-22.4c2.9-7.3 8.9-11.6 14.9-15.8 12.4-8.7 26.2-11.6 41-8.9 8.9 1.6 17.4 4.4 25.5 8.4 10.9 5.4 19.5 13.3 25.1 24.3 1.8 3.4 1.8 6.6.1 9.7-1.1 2.2-2.6 4.4-4.4 6.1-2.5 2.3-5.3 4.3-8.2 6.1-13.2 8.1-27.2 14.8-41.8 20-2.5.9-5.4.9-7.7 2-2.4 1.2-4.8 2.4-7.4 3-6.9 1.8-13.9 3.6-20.9 5.5-5.2 1.4-10.3 3-16.1 4.7-.2-2.2-.3-4.1-.4-6h-.3c-.1 2.2-.2 4.5-.4 7-.6.5-1.3 1.1-2 1.6-7.3 4.8-11.7 11.5-13.9 19.8-2.2 8.3-4.5 16.6-6.7 25-1.2 4.4-2.7 8.6-5 12.5-4.8 8-12 12.3-21.2 12.9-9.8.7-19.4-.9-28.5-4.6-7.9-3.2-14.2-8.4-18.7-15.7-4.7-7.6-7.7-15.8-8.9-24.7-2-14.5 5.3-25.2 16.1-30.8 5.2-2.6 10.7-4.3 16.4-5.1 8-1.2 16-2.1 24-3.2 4.6-.6 9.2-1.4 13.8-2.2 7.4-1.4 13-5.4 16.2-12.1 3.1-6.5 5.8-13.1 8.7-19.7 1.9-4.3 3.7-8.6 5.7-12.8 1.1-2.2 1.9-4.7 4.2-6.1.5-.3.7-.6.8-.9zM361.7 367.4v.5h9.5v-9c-1.1 3 .4 5.9-1.6 8.5h-7.9zM184.5 314.2c-.1.1-.2.1-.3.2v7.7h.3v-7.9zM184.5 97.1v-7.7h-.5v4.2c0 1.2.1 2.3.2 3.5h.3zM371.4 95.4c0-1.9-.1-3.9-.2-5.8l-.3.3v7.4h.4c0-.7.1-1.3.1-1.9zM371.2 179.2h-.2v7.7h.2v-7.7z" class="st1"/><path d="M184.4 202.4v-.4c-.5 2.6-.6 5.1 0 7.6v-7.2zM184.6 228.2c0-1.2-.1-2.4-.2-3.6h-.3v7.7h.5c0-1.3.1-2.7 0-4.1zM370.9 314.4v7.6c.5-2.5.6-5.1 0-7.6zM271.5 367.7c-.1.1-.1.2-.2.3h7.4v-.3h-7.2zM256.1 367.5h-3.7c-1.2 0-2.4.1-3.6.2v.2h7.3v-.4zM370.9 337v7.6c.3-2.5.7-5.1 0-7.6zM300.6 367.7H294v.2h6.6v-.2zM316.4 367.6v.3h6.7v-.3h-6.7zM342.7 368.1c1 0 2-.1 3-.2v-.2h-6.6v.5c1.2-.1 2.4-.1 3.6-.1zM371.2 299.7v-7.4c-.2 2.3-.9 4.6 0 7.4zM184.4 292.4h-.3v6.8c.1.1.2.1.3.2v-7zM184.6 272.9c0-1-.1-2-.2-3h-.3v6.8c.2 0 .4-.1.5-.1 0-1.3.1-2.5 0-3.7zM184.1 254.2h.3V247h-.3v7.2zM371.2 157.5h-.3v6.7h.3v-6.7zM370.7 138.4c0 1.1.1 2.1.2 3.2h.3v-6.9h-.5v3.7zM371.2 119.2V112h-.3v7.1c.1.1.2.1.3.1zM1080.8 957.3c2.6.4 5.2.7 7.7 0h-7.7zM1058.2 957.3c2.6.5 5.2.6 7.7 0h-7.7zM750.7 761.1v-.3H744v.3h6.7zM136.3 761.1h7.3v-.3h-7.3v.3zM117.4 760.6c-1.2 0-2.4.1-3.6.2v.2h7.3v-.4h-3.7zM91.8 760.8v.2h6.8v-.2h-6.8zM1120 326.9c-6.1 5.1-12.5 9.7-19.3 13.7-8.5 4.9-17.5 8.5-27.2 10-7.5 1.1-15 1.2-22.5-.5-10.6-2.4-19.2-8-25.7-16.7-6.4-8.6-9.7-18.3-10.2-29.1-.3-7.3.5-14.4 2.5-21.4 5-17.5 10.7-34.7 19.2-50.9 3.3-6.4 7.1-12.6 11.2-18.4 9-12.7 20.8-21.8 35.9-26.3 10.3-3.1 20.9-3.2 31.6-2.6 1.7.1 2.4 1.1 2.9 2.2.6-.4 1.2-.9 1.7-1.1v-2.9c-.3-.1-.6-.2-.9-.2-.3-1.3-.5-2.3-.8-3.9-.2 1.5-.3 2.4-.6 3.8-2.8-.1-5.1-.3-7.4-.4-10.7-.6-21.2.7-31.3 4.4-14 5.1-24.8 14.3-33.4 26.2-4.5 6.3-8.4 12.9-11.9 19.9-7.3 14.7-12.6 30.2-17.4 45.8-1.2 3.8-2 7.6-2.8 11.5-2.3 12.8-.9 25.1 4.9 36.8 6 12.2 15.4 20.6 28.5 24.8 4.8 1.5 9.8 2.1 14.9 2.2 14.2.3 27.3-3.8 39.6-10.7 6.6-3.8 12.8-8.2 18.7-13v-3.2h-.2zM1081.3 367.7v.4h6.9c.1-.2.2-.4.2-.5h-3.7c-1.1-.1-2.2 0-3.4.1zM1058.6 368.1h3.7c1.2 0 2.4-.1 3.6-.2v-.2h-7.2c-.1.1-.1.3-.1.4zM1118.5 344.5v-7.7h-.2v7.7h.2zM1043.2 367.9v-.2h-6.6v.2h6.6zM930.3 89.8V96c.5-2.1.6-4.1 0-6.2zM375.8 956c-2-5.2-3.8-10.4-4.5-16-1.1-8.9 1.1-16.7 6.9-23.5 3.6-4.3 7.8-8 12.4-11.2 8.7-6 18.2-10 28.8-11.5 2-.3 3.9-.3 4.9-.4 7.6.1 13.9 1.2 20 3.4 6.2 2.2 12.4 4.8 18.4 7.6 4.6 2.1 8.7 5.1 12.2 8.7 2.9 3 5.1 6.5 6.8 10.3 1.6 3.9 1.7 7.7.7 12-1.9 8.5-5.9 15.8-10.7 22.6h3.3c2.3-.2 4.3-.3 7.2-.5-2.5-.4-4-.6-5.8-.9.3-.9.4-1.7.8-2.2 4.5-6.5 6.3-14 8.4-21.5.5-1.8.4-3.5 0-5.3-1.5-6.7-4.7-12.4-9.6-17.1-3.5-3.4-7.5-6.1-11.9-8.3-6.9-3.4-14.1-6.4-21.5-8.6-7.5-2.2-15.2-3.5-22.9-2.4-18 2.5-32.9 11-44.5 25-1.4 1.6-2.7 3.3-4 5-1.2 1.5-1 4.1-1.5 6.2-1.3 5.1-1.4 10.3-.3 15.5.6 2.8.9 5.7 1.3 8.5.1.5.1 1.2.4 1.5 1.4 1.5 2.4 3.3 3.1 5.1h2.5c-.4-.7-.7-1.4-.9-2zM503.6 957.2h-7.9c.1.1.1.2.2.3h7.7v-.3zM368.7 957.1h-4.2c-1.2 0-2.4.1-3.5.2v.3h7.7v-.5zM371.2 899.5h-.4v7.8h.4v-7.8zM811.3 367.7v.2h7.4v-.2h-7.4zM834 367.6c-.1.1-.1.2-.2.3h6.6v-.3H834zM930.4 720.5v6.4h.5v-6.1c-.1-.1-.4-.1-.5-.3zM930.7 697.8h-.3v6.4h.3v-6.4zM371.2 606.8h-.3v7.8h.3v-7.8zM371.2 629.7h-.3v7.7h.3v-7.7zM370.7 678.6c0 1 .1 2 .2 3h.3v-6.8c-.2.1-.4.1-.5.2v3.6zM371.2 652.3h-.3v6.8c.2 0 .4-.1.5-.1v-3.7c0-1.1-.2-2.1-.2-3zM184.5 157.3h-.3v7.2h.3v-7.2zM184.5 134.9c-.1 0-.2-.1-.3-.1v6.9h.3v-6.8z" class="st1"/><path d="M1120 289.1c-1.4 1.6-2.9 3.2-4.3 4.9-2.4 2.9-5.4 5.3-8.3 7.6-3.1 2.4-6.4 4.7-9.8 6.7-3.2 1.9-6.7 3.5-10.1 5-3.5 1.5-7 2.8-10.7 3.8-4 1.1-8 1.7-12.2.8-9.2-2-16.2-8.7-17.9-18-.6-3.1-.5-6.4-.7-9.6-.1-1.6 0-3.2 0-4.7.7-18.6 5.2-36 13.8-52.3.7-1.3 1.4-2.5 2.2-3.7 8.1-13.5 20.3-20.6 35.8-21.8 8.1-.6 15.6 1.1 22.3 5.3v-2.9c-.4-.3-.9-.6-1.4-.9v-4.2c0-1-.1-2-.2-2.9h-.2c-.2 2.1-.4 4.2-.6 6.6-1.9-.6-3.5-.9-5-1.4-18.5-5.9-40.2 2.4-50.2 17.2-2.3 3.4-4.6 6.9-6.3 10.6-9.2 18.9-13.4 39-12.6 60 .1 3 .8 6.1 1.8 8.9 3 8.6 9.1 14 18.1 16.1 5.3 1.2 10.3.5 15.4-1 13.8-4.2 26.2-10.9 36.5-21.1.6-.5 1.3-.9 2.1-1.5.4 1.2.6 2 .9 2.8-.1-2.3.6-4.2 1.7-6l-.1-4.3zM1118.2 314.4v7.8h.5v-4.1c0-1.2-.1-2.4-.2-3.7-.1-.1-.2-.1-.3 0zM428.5 957.3c2.6.4 5.2.7 7.8 0h-7.8zM406 957.3v.2h7.8v-.2H406zM391 957.3h-7.7v.3h7.8c-.1-.1-.1-.2-.1-.3zM458.1 957.1h-3.7c-1 0-2 .1-3 .2v.3h6.8c0-.2-.1-.4-.1-.5z" class="st1"/><path d="M1118.2 224.6v7.8c.4-2.7.6-5.3 0-7.8zM1118.5 269.7h-.3v6.6l.3.3v-6.9zM1118.4 247.2h-.3v6.8c.1 0 .2.1.3.1v-6.9zM707 189.1v-.3h-7.8v.3h7.8zM631.2 189.2h4.1c1.2 0 2.4-.1 3.5-.2v-.3h-7.7c.1.2.1.4.1.5zM744.4 182.4V177h-.2v5.1c0 .2.1.3.2.3zM728.5 188.7h-6.8c2.4.4 4.7.8 6.8 0zM246.6 189.4c.1 0 .2-.1.3-.1h-.4l.1.1zM256.6 189.1c-3.2-.3-6.5-1.2-9.7.1 3.2 0 6.5 0 9.7-.1zM609.6 189.1h6.8c-.1-.2-.1-.4-.2-.5h-4.3c-.8.1-1.6.1-2.4.2.1.1.1.2.1.3zM901.2 189.1h7.4l.3-.3h-7.7v.3zM969.2 188.8v.2h7.8v-.2h-7.8zM946.3 189.2h4.2c1.2 0 2.3-.1 3.5-.2v-.3h-7.7v.5zM923.7 189h7.8v-.3h-7.8v.3zM930.8 176.5v6.7h.3v-6.6c0-.1-.2-.1-.3-.1zM834.2 189.2h3.7c1 0 2-.1 3-.2v-.3H834c.1.2.1.4.2.5zM856.7 189.2h6.4c.1 0 .2-.2.5-.5h-6.8c0 .1 0 .3-.1.5zM879.4 189.2h6.8c0-.2.1-.4.1-.5h-6.4c-.1-.1-.2.1-.5.5zM995.5 189.2c1 0 2-.1 3-.2v-.4h-6.8c0 .2.1.4.1.6 1.2 0 2.4.1 3.7 0zM1014.5 189.1h6.8c0-.2-.1-.4-.1-.5h-3.7c-.4 0-.8 0-1.2.1-.6.1-1.2.1-1.8.1v.3zM930.9 199v6.7h.3V199h-.3zM1118.7 206h.3v-7.3h-.3v7.3zM796.5 188.7h-7.8v.3h7.8v-.3zM774.1 188.8h-7.8v.2h7.8v-.2zM234.2 189.1v-.3h-7.7c-.1.1-.1.2-.2.3h7.9zM24.1 188.7v.3h7.7c.1-.1.1-.2.2-.3h-7.9zM47 188.7c2.3.6 4.6.7 6.9 0H47zM181.7 189.1h7.2v-.3h-7.2v.3zM185.1 202.4v-3.7h-.7v7.4h.7v-3.7zM519 189.1h7.8v-.3H519v.3zM541.4 188.8v.3h7.8c0-.1 0-.2-.1-.3h-7.7zM558.4 176.4h-.3v6.7h.3v-6.7zM159.1 188.7v.3h7.9v-.3h-7.9zM136.7 188.8v.3h7.7v-.3h-7.7zM120.3 189.2c.4 0 .9-.2 2-.4h-8.4c2.1.4 4.3.4 6.4.4zM99.1 188.8h-7.8c2.6.5 5.2.6 7.8 0zM1081.3 188.8c2.6.4 5.2.7 7.7 0h-7.7zM1058.7 188.8c2.6.4 5.2.6 7.7 0h-7.7zM504.1 188.7h-7.9c.1.1.1.2.2.3h7.7v-.3zM369.2 188.6H365c-1.2 0-2.4.1-3.5.2v.3h7.7v-.5zM371.4 205.5c.1.1.3.1.4.2V199c-.2 0-.4-.1-.6-.1v6.4c0 .1.1.1.2.2zM436.8 188.8H429c2.6.3 5.2.7 7.8 0zM414.2 189.1v-.2h-7.8v.2h7.8zM391.5 188.8h-7.7v.3h7.8c-.1-.1-.1-.2-.1-.3zM454.9 188.6c-1 0-2 .1-3 .2v.3h6.8c0-.2-.1-.4-.1-.5-1.2 0-2.5-.1-3.7 0z" class="st1"/></svg>